{
.appVersion = "1125";
DisplayStrings = (
"'/tcaron",
",/quotesinglbase ,/quotedblbase lt/quotedblleft/quotedblright/quoteleft t/quoteright \"'",
"T/Tcaron",
"/hungarumlautcomb.cap/Uhungarumlaut",
nTnonnoon,
S,
".,H:H;/ellipsis H!¡?¿·/bullet *H#H///backslash (H){H}[H]-/endash H/emdash _/quotesinglbase/quotedblbase H/quotedblleft/quotedblright H/quoteleft/quoteright «H»H/guilsinglleft H/guilsinglright \"'",
ABCDEFGHIJKLMNOPQRSTUVWXYZ,
"/tildecomb Ã",
"}",
fg,
"eai/_part_bowl p&w",
"abcdefghijklmnop/_part_bowl qrstiunnvwxyz"
);
date = "2017-07-05 13:14:12 +0000";
designer = "Mirco Monsees";
familyName = Shakespeare;
fontMaster = (
{
alignmentZones = (
"{800, -20}",
"{700, 20}",
"{500, 15}",
"{0, -15}",
"{-195, -20}"
);
ascender = 800;
capHeight = 700;
customParameters = (
{
name = paramArea;
value = "470";
},
{
name = paramDepth;
value = "30";
},
{
name = paramOver;
value = "2";
}
);
descender = -200;
id = "1B5E7594-BD1E-41E1-80E1-0DE241437139";
userData = {
GSCornerRadius = 38;
};
weight = Light;
weightValue = 65;
xHeight = 500;
},
{
alignmentZones = (
"{806, -20}",
"{706, 20}",
"{506, 20}",
"{0, -20}",
"{-215, 20}"
);
ascender = 806;
capHeight = 706;
custom = Black;
customParameters = (
{
name = paramArea;
value = "280";
},
{
name = paramDepth;
value = "23";
},
{
name = paramOver;
value = "2";
}
);
descender = -200;
iconName = Bold;
id = "5A1ECF60-5C3D-4C60-84B4-C69E600E0422";
userData = {
GSCornerRadius = 40;
};
weightValue = 175;
xHeight = 506;
}
);
glyphs = (
{
color = 1;
glyphname = A;
lastChange = "2018-04-01 20:43:37 +0000";
layers = (
{
anchors = (
{
name = bottom;
position = "{313, 0}";
},
{
name = ogonek;
position = "{563, 10}";
},
{
name = top;
position = "{313, 655}";
}
);
background = {
components = (
{
name = V;
transform = "{-1, 0, 0, -1, 651, 703}";
}
);
};
layerId = "5A1ECF60-5C3D-4C60-84B4-C69E600E0422";
paths = (
{
closed = 1;
nodes = (
"356 296 LINE",
"369 197 LINE",
"168 197 LINE",
"193 296 LINE"
);
},
{
closed = 1;
nodes = (
"204 138 LINE SMOOTH",
"200 116 OFFCURVE",
"207 97 OFFCURVE",
"229 93 CURVE SMOOTH",
"264 86 LINE",
"264 -3 LINE",
"92 0 LINE",
"-18 -3 LINE",
"-18 86 LINE",
"5 95 LINE SMOOTH",
"23 102 OFFCURVE",
"42 116 OFFCURVE",
"47 134 CURVE SMOOTH",
"185 684 LINE",
"440 716 LINE",
"458 698 LINE",
"583 121 LINE SMOOTH",
"587 101 OFFCURVE",
"596 95 OFFCURVE",
"616 91 CURVE SMOOTH",
"640 86 LINE",
"640 -3 LINE",
"488 0 LINE",
"304 -3 LINE",
"304 86 LINE",
"328 89 LINE SMOOTH",
"351 92 OFFCURVE",
"360 108 OFFCURVE",
"357 130 CURVE SMOOTH",
"298 520 LINE",
"279 520 LINE"
);
}
);
width = 625;
},
{
associatedMasterId = "5A1ECF60-5C3D-4C60-84B4-C69E600E0422";
layerId = "CF9093F7-A231-4E4E-A851-3B74EE9DCD64";
name = "Mar 25 18, 12:33";
paths = (
{
closed = 1;
nodes = (
"197 189 LINE",
"398 189 LINE",
"398 288 LINE",
"197 288 LINE"
);
},
{
closed = 1;
nodes = (
"395 130 LINE SMOOTH",
"400 108 OFFCURVE",
"390 92 OFFCURVE",
"367 89 CURVE SMOOTH",
"343 86 LINE",
"343 -3 LINE",
"516 0 LINE",
"680 -3 LINE",
"680 86 LINE",
"648 89 LINE SMOOTH",
"628 91 OFFCURVE",
"616 101 OFFCURVE",
"611 121 CURVE SMOOTH",
"454 700 LINE",
"436 718 LINE",
"341 704 OFFCURVE",
"248 694 OFFCURVE",
"155 690 CURVE",
"155 600 LINE",
"182 599 LINE SMOOTH",
"214 598 OFFCURVE",
"226 580 OFFCURVE",
"216 550 CURVE SMOOTH",
"78 134 LINE SMOOTH",
"72 116 OFFCURVE",
"54 99 OFFCURVE",
"36 95 CURVE SMOOTH",
"-10 86 LINE",
"-10 -3 LINE",
"121 0 LINE",
"275 -3 LINE",
"275 86 LINE",
"240 93 LINE SMOOTH",
"218 97 OFFCURVE",
"210 116 OFFCURVE",
"215 138 CURVE SMOOTH",
"307 505 LINE"
);
}
);
width = 670;
},
{
anchors = (
{
name = bottom;
position = "{316, 0}";
},
{
name = ogonek;
position = "{568, 10}";
},
{
name = top;
position = "{316, 670}";
}
);
background = {
components = (
{
name = H;
transform = "{1, 0, 0, 1, -49, 0}";
}
);
};
layerId = "1B5E7594-BD1E-41E1-80E1-0DE241437139";
paths = (
{
closed = 1;
nodes = (
"442 261 LINE",
"441 215 LINE",
"177 215 LINE",
"178 261 LINE"
);
},
{
closed = 1;
nodes = (
"145 83 LINE SMOOTH",
"138 61 OFFCURVE",
"146 45 OFFCURVE",
"175 40 CURVE SMOOTH",
"239 28 LINE",
"239 -3 LINE",
"107 0 LINE",
"-6 -3 LINE",
"-6 28 LINE",
"41 38 LINE SMOOTH",
"65 43 OFFCURVE",
"76 57 OFFCURVE",
"85 83 CURVE SMOOTH",
"284 695 LINE",
"351 711 LINE",
"359 705 LINE",
"547 69 LINE SMOOTH",
"552 52 OFFCURVE",
"567 40 OFFCURVE",
"583 37 CURVE SMOOTH",
"636 28 LINE",
"636 -3 LINE",
"511 0 LINE",
"392 -3 LINE",
"392 28 LINE",
"444 35 LINE SMOOTH",
"463 38 OFFCURVE",
"478 53 OFFCURVE",
"472 73 CURVE SMOOTH",
"316 629 LINE",
"313 629 LINE"
);
}
);
width = 631;
}
);
leftKerningGroup = A;
rightKerningGroup = A;
unicode = 0041;
},
{
color = 1;
glyphname = B;
lastChange = "2018-04-01 20:43:37 +0000";
layers = (
{
anchors = (
{
name = bottom;
position = "{348, 0}";
},
{
name = top;
position = "{348, 655}";
}
);
background = {
components = (
{
name = R;
transform = "{1, 0, 0, 1, -5, 0}";
}
);
};
layerId = "5A1ECF60-5C3D-4C60-84B4-C69E600E0422";
paths = (
{
closed = 1;
nodes = (
"422 712 OFFCURVE",
"651 727 OFFCURVE",
"651 545 CURVE SMOOTH",
"651 383 OFFCURVE",
"507 336 OFFCURVE",
"232 336 CURVE",
"230 407 LINE",
"399 393 OFFCURVE",
"419 430 OFFCURVE",
"419 498 CURVE SMOOTH",
"419 594 OFFCURVE",
"383 609 OFFCURVE",
"285 602 CURVE",
"268 706 LINE"
);
},
{
closed = 1;
nodes = (
"285 99 LINE",
"413 90 OFFCURVE",
"439 128 OFFCURVE",
"439 203 CURVE SMOOTH",
"439 297 OFFCURVE",
"390 312 OFFCURVE",
"248 299 CURVE",
"242 372 LINE",
"487 372 OFFCURVE",
"672 376 OFFCURVE",
"672 181 CURVE SMOOTH",
"672 18 OFFCURVE",
"482 -10 OFFCURVE",
"328 -2 CURVE"
);
},
{
closed = 1;
nodes = (
"34 89 LINE",
"56 91 LINE SMOOTH",
"77 93 OFFCURVE",
"91 108 OFFCURVE",
"91 129 CURVE SMOOTH",
"86 569 LINE SMOOTH",
"86 590 OFFCURVE",
"75 602 OFFCURVE",
"54 606 CURVE SMOOTH",
"35 610 LINE",
"35 709 LINE",
"201 706 LINE",
"362 709 LINE",
"362 610 LINE",
"340 607 LINE SMOOTH",
"319 604 OFFCURVE",
"307 591 OFFCURVE",
"307 570 CURVE SMOOTH",
"303 126 LINE SMOOTH",
"303 105 OFFCURVE",
"315 93 OFFCURVE",
"336 91 CURVE SMOOTH",
"361 89 LINE",
"361 -3 LINE",
"197 0 LINE",
"34 -3 LINE"
);
}
);
width = 696;
},
{
anchors = (
{
name = bottom;
position = "{315, 0}";
},
{
name = top;
position = "{315, 670}";
}
);
background = {
components = (
{
name = R;
transform = "{1, 0, 0, 1, -2, 0}";
}
);
};
layerId = "1B5E7594-BD1E-41E1-80E1-0DE241437139";
paths = (
{
closed = 1;
nodes = (
"319 709 OFFCURVE",
"528 721 OFFCURVE",
"528 539 CURVE SMOOTH",
"528 377 OFFCURVE",
"403 347 OFFCURVE",
"159 343 CURVE",
"167 373 LINE",
"365 375 OFFCURVE",
"454 406 OFFCURVE",
"454 529 CURVE SMOOTH",
"454 631 OFFCURVE",
"363 680 OFFCURVE",
"163 654 CURVE",
"165 700 LINE"
);
},
{
closed = 1;
nodes = (
"168 46 LINE",
"405 28 OFFCURVE",
"486 62 OFFCURVE",
"486 193 CURVE SMOOTH",
"486 309 OFFCURVE",
"378 346 OFFCURVE",
"166 329 CURVE",
"158 361 LINE",
"312 368 OFFCURVE",
"559 392 OFFCURVE",
"559 200 CURVE SMOOTH",
"559 37 OFFCURVE",
"437 -14 OFFCURVE",
"243 -2 CURVE"
);
},
{
closed = 1;
nodes = (
"52 26 LINE",
"100 34 LINE SMOOTH",
"124 38 OFFCURVE",
"136 51 OFFCURVE",
"136 75 CURVE SMOOTH",
"136 621 LINE SMOOTH",
"136 645 OFFCURVE",
"123 663 OFFCURVE",
"99 666 CURVE SMOOTH",
"53 672 LINE",
"53 704 LINE",
"166 700 LINE",
"292 704 LINE",
"292 672 LINE",
"239 664 LINE SMOOTH",
"215 660 OFFCURVE",
"203 646 OFFCURVE",
"203 622 CURVE SMOOTH",
"203 75 LINE SMOOTH",
"203 51 OFFCURVE",
"216 39 OFFCURVE",
"240 35 CURVE SMOOTH",
"294 26 LINE",
"294 -3 LINE",
"171 0 LINE",
"52 -3 LINE"
);
}
);
width = 629;
}
);
unicode = 0042;
},
{
color = 1;
glyphname = C;
lastChange = "2018-04-01 20:43:37 +0000";
layers = (
{
anchors = (
{
name = bottom;
position = "{315, 0}";
},
{
name = top;
position = "{355, 670}";
}
);
layerId = "1B5E7594-BD1E-41E1-80E1-0DE241437139";
paths = (
{
closed = 1;
nodes = (
"62 110 OFFCURVE",
"185 -18 OFFCURVE",
"366 -18 CURVE SMOOTH",
"427 -18 OFFCURVE",
"511 -9 OFFCURVE",
"571 28 CURVE",
"562 155 LINE",
"516 155 LINE",
"520 52 OFFCURVE",
"498 36 OFFCURVE",
"388 31 CURVE SMOOTH",
"237 24 OFFCURVE",
"137 150 OFFCURVE",
"141 355 CURVE SMOOTH",
"145 589 OFFCURVE",
"274 671 OFFCURVE",
"404 671 CURVE SMOOTH",
"500 671 OFFCURVE",
"519 646 OFFCURVE",
"515 558 CURVE",
"558 558 LINE",
"576 701 LINE",
"525 712 OFFCURVE",
"476 717 OFFCURVE",
"431 717 CURVE SMOOTH",
"212 717 OFFCURVE",
"72 599 OFFCURVE",
"67 344 CURVE SMOOTH"
);
}
);
width = 630;
},
{
anchors = (
{
name = bottom;
position = "{322, 0}";
},
{
name = top;
position = "{362, 655}";
}
);
background = {
components = (
{
name = G;
transform = "{1, 0, 0, 1, -24, 0}";
}
);
};
layerId = "5A1ECF60-5C3D-4C60-84B4-C69E600E0422";
paths = (
{
closed = 1;
nodes = (
"22 103 OFFCURVE",
"153 -12 OFFCURVE",
"326 -15 CURVE SMOOTH",
"429 -17 OFFCURVE",
"526 3 OFFCURVE",
"600 38 CURVE",
"583 272 LINE",
"453 272 LINE",
"460 170 OFFCURVE",
"433 122 OFFCURVE",
"364 122 CURVE SMOOTH",
"269 122 OFFCURVE",
"265 209 OFFCURVE",
"266 338 CURVE SMOOTH",
"267 512 OFFCURVE",
"296 597 OFFCURVE",
"364 600 CURVE SMOOTH",
"424 603 OFFCURVE",
"459 605 OFFCURVE",
"442 462 CURVE",
"573 462 LINE",
"603 699 LINE",
"529 716 OFFCURVE",
"461 725 OFFCURVE",
"400 725 CURVE SMOOTH",
"155 725 OFFCURVE",
"22 587 OFFCURVE",
"22 336 CURVE SMOOTH"
);
}
);
width = 643;
}
);
unicode = 0043;
},
{
color = 1;
glyphname = D;
lastChange = "2018-04-01 20:43:37 +0000";
layers = (
{
anchors = (
{
name = bottom;
position = "{354, 0}";
},
{
name = center;
position = "{354, 353}";
},
{
name = top;
position = "{354, 655}";
}
);
background = {
components = (
{
name = i;
transform = "{1, 0, 0, 1, 12, 0}";
}
);
};
layerId = "5A1ECF60-5C3D-4C60-84B4-C69E600E0422";
paths = (
{
closed = 1;
nodes = (
"545 727 OFFCURVE",
"683 643 OFFCURVE",
"683 359 CURVE SMOOTH",
"683 100 OFFCURVE",
"556 -23 OFFCURVE",
"282 0 CURVE",
"287 103 LINE",
"422 95 OFFCURVE",
"444 139 OFFCURVE",
"444 365 CURVE SMOOTH",
"444 573 OFFCURVE",
"419 607 OFFCURVE",
"282 592 CURVE",
"268 706 LINE"
);
},
{
closed = 1;
nodes = (
"34 89 LINE",
"56 91 LINE SMOOTH",
"77 93 OFFCURVE",
"91 108 OFFCURVE",
"91 129 CURVE SMOOTH",
"86 569 LINE SMOOTH",
"86 590 OFFCURVE",
"75 602 OFFCURVE",
"54 606 CURVE SMOOTH",
"35 610 LINE",
"35 709 LINE",
"201 706 LINE",
"362 709 LINE",
"362 610 LINE",
"340 607 LINE SMOOTH",
"319 604 OFFCURVE",
"307 591 OFFCURVE",
"307 570 CURVE SMOOTH",
"303 126 LINE SMOOTH",
"303 105 OFFCURVE",
"315 93 OFFCURVE",
"336 91 CURVE SMOOTH",
"361 89 LINE",
"361 -3 LINE",
"197 0 LINE",
"34 -3 LINE"
);
}
);
width = 707;
},
{
anchors = (
{
name = bottom;
position = "{359, 0}";
},
{
name = center;
position = "{359, 350}";
},
{
name = top;
position = "{359, 670}";
}
);
background = {
components = (
{
name = O;
transform = "{1, 0, 0, 1, -19, 0}";
}
);
};
layerId = "1B5E7594-BD1E-41E1-80E1-0DE241437139";
paths = (
{
closed = 1;
nodes = (
"519 727 OFFCURVE",
"650 616 OFFCURVE",
"650 365 CURVE SMOOTH",
"650 120 OFFCURVE",
"542 -32 OFFCURVE",
"212 2 CURVE",
"212 41 LINE",
"504 23 OFFCURVE",
"581 148 OFFCURVE",
"581 365 CURVE SMOOTH",
"581 567 OFFCURVE",
"474 675 OFFCURVE",
"216 660 CURVE",
"194 700 LINE"
);
},
{
closed = 1;
nodes = (
"52 26 LINE",
"100 34 LINE SMOOTH",
"124 38 OFFCURVE",
"136 51 OFFCURVE",
"136 75 CURVE SMOOTH",
"136 621 LINE SMOOTH",
"136 645 OFFCURVE",
"123 663 OFFCURVE",
"99 666 CURVE SMOOTH",
"53 672 LINE",
"53 704 LINE",
"166 700 LINE",
"292 704 LINE",
"292 672 LINE",
"239 664 LINE SMOOTH",
"215 660 OFFCURVE",
"203 646 OFFCURVE",
"203 622 CURVE SMOOTH",
"203 75 LINE SMOOTH",
"203 51 OFFCURVE",
"216 39 OFFCURVE",
"240 35 CURVE SMOOTH",
"294 26 LINE",
"294 -3 LINE",
"171 0 LINE",
"52 -3 LINE"
);
}
);
width = 717;
}
);
unicode = 0044;
},
{
glyphname = Eth;
lastChange = "2018-04-01 18:28:07 +0000";
layers = (
{
components = (
{
name = D;
}
);
layerId = "1B5E7594-BD1E-41E1-80E1-0DE241437139";
paths = (
{
closed = 1;
nodes = (
"378 379 LINE",
"386 372 LINE",
"381 327 LINE",
"-8 325 LINE",
"-17 333 LINE",
"-12 377 LINE"
);
}
);
width = 600;
},
{
components = (
{
name = D;
}
);
layerId = "5A1ECF60-5C3D-4C60-84B4-C69E600E0422";
paths = (
{
closed = 1;
nodes = (
"371 409 LINE",
"396 382 LINE",
"391 297 LINE",
"10 295 LINE",
"-17 320 LINE",
"-12 407 LINE"
);
}
);
width = 707;
}
);
unicode = 00D0;
},
{
color = 1;
glyphname = E;
lastChange = "2018-04-01 20:43:36 +0000";
layers = (
{
anchors = (
{
name = bottom;
position = "{312, 0}";
},
{
name = ogonek;
position = "{562, 10}";
},
{
name = top;
position = "{312, 655}";
},
{
name = topleft;
position = "{20, 706}";
}
);
background = {
components = (
{
name = I;
transform = "{1, 0, 0, 1, 5, 0}";
}
);
};
guideLines = (
{
position = "{-652, 611}";
}
);
layerId = "5A1ECF60-5C3D-4C60-84B4-C69E600E0422";
paths = (
{
closed = 1;
nodes = (
"259 385 LINE",
"359 385 LINE SMOOTH",
"387 385 OFFCURVE",
"400 395 OFFCURVE",
"404 414 CURVE SMOOTH",
"411 451 LINE",
"501 451 LINE",
"501 231 LINE",
"411 231 LINE",
"406 263 LINE SMOOTH",
"403 282 OFFCURVE",
"388 292 OFFCURVE",
"361 292 CURVE SMOOTH",
"258 292 LINE"
);
},
{
closed = 1;
nodes = (
"205 705 LINE",
"559 712 LINE",
"585 690 LINE",
"559 511 LINE",
"449 511 LINE",
"456 575 OFFCURVE",
"444 599 OFFCURVE",
"397 600 CURVE SMOOTH",
"321 601 LINE"
);
},
{
closed = 1;
nodes = (
"299 108 LINE",
"425 111 LINE SMOOTH",
"471 112 OFFCURVE",
"484 132 OFFCURVE",
"492 186 CURVE",
"601 186 LINE",
"581 -4 LINE",
"217 0 LINE"
);
},
{
closed = 1;
nodes = (
"34 89 LINE",
"56 91 LINE SMOOTH",
"77 93 OFFCURVE",
"91 108 OFFCURVE",
"91 129 CURVE SMOOTH",
"86 569 LINE SMOOTH",
"86 590 OFFCURVE",
"75 602 OFFCURVE",
"54 606 CURVE SMOOTH",
"35 610 LINE",
"35 709 LINE",
"201 706 LINE",
"362 709 LINE",
"362 610 LINE",
"340 607 LINE SMOOTH",
"319 604 OFFCURVE",
"307 591 OFFCURVE",
"307 570 CURVE SMOOTH",
"303 126 LINE SMOOTH",
"303 105 OFFCURVE",
"315 93 OFFCURVE",
"336 91 CURVE SMOOTH",
"361 89 LINE",
"361 -3 LINE",
"197 0 LINE",
"34 -3 LINE"
);
}
);
width = 624;
},
{
anchors = (
{
name = bottom;
position = "{300, 0}";
},
{
name = ogonek;
position = "{539, 10}";
},
{
name = top;
position = "{300, 670}";
},
{
name = topleft;
position = "{20, 700}";
}
);
background = {
components = (
{
name = F;
transform = "{1, 0, 0, 1, -10, 0}";
}
);
};
guideLines = (
{
angle = 90;
position = "{591, 664}";
}
);
layerId = "1B5E7594-BD1E-41E1-80E1-0DE241437139";
paths = (
{
closed = 1;
nodes = (
"151 357 LINE",
"356 359 LINE SMOOTH",
"373 359 OFFCURVE",
"388 370 OFFCURVE",
"391 388 CURVE SMOOTH",
"398 427 LINE",
"432 427 LINE",
"432 244 LINE",
"399 244 LINE",
"391 285 LINE SMOOTH",
"388 302 OFFCURVE",
"373 313 OFFCURVE",
"356 313 CURVE SMOOTH",
"151 313 LINE"
);
},
{
closed = 1;
nodes = (
"292 704 LINE",
"517 705 LINE",
"525 691 LINE",
"508 563 LINE",
"464 563 LINE",
"473 648 OFFCURVE",
"462 657 OFFCURVE",
"414 658 CURVE SMOOTH",
"204 661 LINE"
);
},
{
closed = 1;
nodes = (
"190 39 LINE",
"418 43 LINE SMOOTH",
"470 44 OFFCURVE",
"487 54 OFFCURVE",
"503 133 CURVE",
"545 133 LINE",
"527 -4 LINE",
"294 -3 LINE"
);
},
{
closed = 1;
nodes = (
"52 26 LINE",
"100 34 LINE SMOOTH",
"124 38 OFFCURVE",
"136 51 OFFCURVE",
"136 75 CURVE SMOOTH",
"136 621 LINE SMOOTH",
"136 645 OFFCURVE",
"123 663 OFFCURVE",
"99 666 CURVE SMOOTH",
"53 672 LINE",
"53 704 LINE",
"166 700 LINE",
"292 704 LINE",
"292 672 LINE",
"239 664 LINE SMOOTH",
"215 660 OFFCURVE",
"203 646 OFFCURVE",
"203 622 CURVE SMOOTH",
"203 75 LINE SMOOTH",
"203 51 OFFCURVE",
"216 39 OFFCURVE",
"240 35 CURVE SMOOTH",
"294 26 LINE",
"294 -3 LINE",
"171 0 LINE",
"52 -3 LINE"
);
}
);
width = 599;
}
);
unicode = 0045;
},
{
color = 1;
glyphname = F;
lastChange = "2018-04-01 20:43:37 +0000";
layers = (
{
anchors = (
{
name = bottom;
position = "{284, 0}";
},
{
name = top;
position = "{284, 655}";
}
);
background = {
components = (
{
name = I;
transform = "{1, 0, 0, 1, 4, 0}";
}
);
};
layerId = "5A1ECF60-5C3D-4C60-84B4-C69E600E0422";
paths = (
{
closed = 1;
nodes = (
"259 374 LINE",
"345 374 LINE SMOOTH",
"375 374 OFFCURVE",
"382 384 OFFCURVE",
"386 403 CURVE SMOOTH",
"393 440 LINE",
"484 440 LINE",
"484 220 LINE",
"393 220 LINE",
"387 253 LINE SMOOTH",
"384 272 OFFCURVE",
"376 281 OFFCURVE",
"347 281 CURVE SMOOTH",
"258 281 LINE"
);
},
{
closed = 1;
nodes = (
"350 91 LINE",
"397 89 LINE",
"397 -4 LINE",
"202 0 LINE"
);
},
{
closed = 1;
nodes = (
"292 706 LINE",
"554 712 LINE",
"570 690 LINE",
"544 512 LINE",
"432 512 LINE",
"439 576 OFFCURVE",
"423 601 OFFCURVE",
"384 601 CURVE SMOOTH",
"287 600 LINE"
);
},
{
closed = 1;
nodes = (
"34 89 LINE",
"56 91 LINE SMOOTH",
"77 93 OFFCURVE",
"91 108 OFFCURVE",
"91 129 CURVE SMOOTH",
"86 569 LINE SMOOTH",
"86 590 OFFCURVE",
"75 602 OFFCURVE",
"54 606 CURVE SMOOTH",
"35 610 LINE",
"35 709 LINE",
"201 706 LINE",
"362 709 LINE",
"362 610 LINE",
"340 607 LINE SMOOTH",
"319 604 OFFCURVE",
"307 591 OFFCURVE",
"307 570 CURVE SMOOTH",
"303 126 LINE SMOOTH",
"303 105 OFFCURVE",
"315 93 OFFCURVE",
"336 91 CURVE SMOOTH",
"361 89 LINE",
"361 -3 LINE",
"197 0 LINE",
"34 -3 LINE"
);
}
);
width = 568;
},
{
anchors = (
{
name = bottom;
position = "{268, 0}";
},
{
name = top;
position = "{268, 670}";
}
);
background = {
components = (
{
name = R;
transform = "{1, 0, 0, 1, -9, 0}";
}
);
};
guideLines = (
{
angle = 90;
position = "{519, 726}";
}
);
layerId = "1B5E7594-BD1E-41E1-80E1-0DE241437139";
paths = (
{
closed = 1;
nodes = (
"174 346 LINE",
"346 348 LINE SMOOTH",
"363 348 OFFCURVE",
"377 357 OFFCURVE",
"380 375 CURVE SMOOTH",
"388 417 LINE",
"422 417 LINE",
"422 234 LINE",
"389 234 LINE",
"380 276 LINE SMOOTH",
"376 293 OFFCURVE",
"363 303 OFFCURVE",
"346 303 CURVE SMOOTH",
"174 303 LINE"
);
},
{
closed = 1;
nodes = (
"224 37 LINE",
"331 26 LINE",
"331 -4 LINE",
"185 0 LINE"
);
},
{
closed = 1;
nodes = (
"295 704 LINE",
"496 706 LINE",
"504 690 LINE",
"487 567 LINE",
"444 567 LINE",
"449 644 OFFCURVE",
"440 656 OFFCURVE",
"392 657 CURVE SMOOTH",
"190 660 LINE"
);
},
{
closed = 1;
nodes = (
"52 26 LINE",
"100 34 LINE SMOOTH",
"124 38 OFFCURVE",
"136 51 OFFCURVE",
"136 75 CURVE SMOOTH",
"136 621 LINE SMOOTH",
"136 645 OFFCURVE",
"123 663 OFFCURVE",
"99 666 CURVE SMOOTH",
"53 672 LINE",
"53 704 LINE",
"166 700 LINE",
"292 704 LINE",
"292 672 LINE",
"239 664 LINE SMOOTH",
"215 660 OFFCURVE",
"203 646 OFFCURVE",
"203 622 CURVE SMOOTH",
"203 75 LINE SMOOTH",
"203 51 OFFCURVE",
"216 39 OFFCURVE",
"240 35 CURVE SMOOTH",
"294 26 LINE",
"294 -3 LINE",
"171 0 LINE",
"52 -3 LINE"
);
}
);
width = 535;
}
);
unicode = 0046;
},
{
color = 1;
glyphname = G;
lastChange = "2018-04-01 20:43:37 +0000";
layers = (
{
anchors = (
{
name = bottom;
position = "{349, 0}";
},
{
name = top;
position = "{349, 670}";
}
);
background = {
components = (
{
name = C;
transform = "{1, 0, 0, 1, -1, 0}";
}
);
};
guideLines = (
{
angle = 90;
position = "{736, 679}";
},
{
angle = 90;
position = "{598, 358}";
},
{
angle = 180;
position = "{734, 547}";
}
);
layerId = "1B5E7594-BD1E-41E1-80E1-0DE241437139";
paths = (
{
closed = 1;
nodes = (
"62 110 OFFCURVE",
"185 -18 OFFCURVE",
"366 -18 CURVE SMOOTH",
"429 -18 OFFCURVE",
"535 -7 OFFCURVE",
"589 28 CURVE",
"585 224 LINE SMOOTH",
"585 247 OFFCURVE",
"595 261 OFFCURVE",
"617 266 CURVE SMOOTH",
"647 273 LINE",
"647 307 LINE",
"549 304 LINE",
"425 307 LINE",
"425 276 LINE",
"484 267 LINE SMOOTH",
"508 263 OFFCURVE",
"519 250 OFFCURVE",
"519 227 CURVE SMOOTH",
"518 48 LINE",
"260 -12 OFFCURVE",
"136 95 OFFCURVE",
"141 355 CURVE SMOOTH",
"146 589 OFFCURVE",
"274 670 OFFCURVE",
"404 671 CURVE SMOOTH",
"524 672 OFFCURVE",
"539 646 OFFCURVE",
"535 558 CURVE",
"578 558 LINE",
"596 701 LINE",
"545 712 OFFCURVE",
"476 717 OFFCURVE",
"431 717 CURVE SMOOTH",
"212 717 OFFCURVE",
"72 599 OFFCURVE",
"67 344 CURVE SMOOTH"
);
}
);
width = 698;
},
{
anchors = (
{
name = bottom;
position = "{340, 0}";
},
{
name = top;
position = "{340, 655}";
}
);
background = {
components = (
{
name = C;
transform = "{1, 0, 0, 1, -6, 0}";
}
);
};
layerId = "5A1ECF60-5C3D-4C60-84B4-C69E600E0422";
paths = (
{
closed = 1;
nodes = (
"25 119 OFFCURVE",
"127 -16 OFFCURVE",
"355 -16 CURVE SMOOTH",
"454 -16 OFFCURVE",
"537 7 OFFCURVE",
"612 43 CURVE",
"608 211 LINE SMOOTH",
"607 232 OFFCURVE",
"614 250 OFFCURVE",
"634 253 CURVE SMOOTH",
"656 256 LINE",
"656 347 LINE",
"505 342 LINE",
"351 347 LINE",
"351 256 LINE",
"383 252 LINE SMOOTH",
"407 249 OFFCURVE",
"416 234 OFFCURVE",
"415 195 CURVE SMOOTH",
"414 122 LINE",
"266 89 OFFCURVE",
"271 172 OFFCURVE",
"270 361 CURVE SMOOTH",
"269 546 OFFCURVE",
"298 609 OFFCURVE",
"405 602 CURVE SMOOTH",
"449 599 OFFCURVE",
"468 569 OFFCURVE",
"453 462 CURVE",
"587 462 LINE",
"616 700 LINE",
"533 716 OFFCURVE",
"458 724 OFFCURVE",
"393 724 CURVE SMOOTH",
"147 724 OFFCURVE",
"25 608 OFFCURVE",
"25 336 CURVE SMOOTH"
);
}
);
width = 680;
},
{
associatedMasterId = "1B5E7594-BD1E-41E1-80E1-0DE241437139";
background = {
components = (
{
name = C;
transform = "{1, 0, 0, 1, -40, 0}";
}
);
};
guideLines = (
{
angle = 90;
position = "{697, 679}";
},
{
angle = 90;
position = "{559, 358}";
},
{
angle = 180;
position = "{695, 547}";
}
);
layerId = "893B14A9-BCCE-48BB-AD72-19BF754F558C";
name = "Mar 30 18, 20:24";
paths = (
{
closed = 1;
nodes = (
"23 110 OFFCURVE",
"146 -18 OFFCURVE",
"327 -18 CURVE SMOOTH",
"390 -18 OFFCURVE",
"496 -7 OFFCURVE",
"550 28 CURVE",
"546 224 LINE SMOOTH",
"546 247 OFFCURVE",
"556 261 OFFCURVE",
"578 266 CURVE SMOOTH",
"608 273 LINE",
"608 307 LINE",
"510 304 LINE",
"386 307 LINE",
"386 276 LINE",
"445 267 LINE SMOOTH",
"469 263 OFFCURVE",
"480 250 OFFCURVE",
"480 227 CURVE SMOOTH",
"479 48 LINE",
"221 -12 OFFCURVE",
"97 95 OFFCURVE",
"102 355 CURVE SMOOTH",
"107 589 OFFCURVE",
"235 670 OFFCURVE",
"365 671 CURVE SMOOTH",
"485 672 OFFCURVE",
"500 646 OFFCURVE",
"496 558 CURVE",
"539 558 LINE",
"557 701 LINE",
"506 712 OFFCURVE",
"437 717 OFFCURVE",
"392 717 CURVE SMOOTH",
"173 717 OFFCURVE",
"33 599 OFFCURVE",
"28 344 CURVE SMOOTH"
);
}
);
width = 614;
}
);
unicode = 0047;
},
{
color = 1;
glyphname = H;
lastChange = "2018-04-01 20:43:36 +0000";
layers = (
{
anchors = (
{
name = bottom;
position = "{387, 0}";
},
{
name = center;
position = "{387, 353}";
},
{
name = top;
position = "{387, 655}";
},
{
name = topleft;
position = "{20, 706}";
}
);
layerId = "5A1ECF60-5C3D-4C60-84B4-C69E600E0422";
paths = (
{
closed = 1;
nodes = (
"550 391 LINE",
"550 292 LINE",
"207 292 LINE",
"207 391 LINE"
);
},
{
closed = 1;
nodes = (
"34 89 LINE",
"56 91 LINE SMOOTH",
"77 93 OFFCURVE",
"91 108 OFFCURVE",
"91 129 CURVE SMOOTH",
"86 569 LINE SMOOTH",
"86 590 OFFCURVE",
"75 602 OFFCURVE",
"54 606 CURVE SMOOTH",
"35 610 LINE",
"35 709 LINE",
"201 706 LINE",
"362 709 LINE",
"362 610 LINE",
"340 607 LINE SMOOTH",
"319 604 OFFCURVE",
"307 591 OFFCURVE",
"307 570 CURVE SMOOTH",
"303 126 LINE SMOOTH",
"303 105 OFFCURVE",
"315 93 OFFCURVE",
"336 91 CURVE SMOOTH",
"361 89 LINE",
"361 -3 LINE",
"197 0 LINE",
"34 -3 LINE"
);
},
{
closed = 1;
nodes = (
"413 89 LINE",
"435 91 LINE SMOOTH",
"456 93 OFFCURVE",
"470 108 OFFCURVE",
"470 129 CURVE SMOOTH",
"465 569 LINE SMOOTH",
"465 590 OFFCURVE",
"454 602 OFFCURVE",
"433 606 CURVE SMOOTH",
"414 610 LINE",
"414 709 LINE",
"580 706 LINE",
"741 709 LINE",
"741 610 LINE",
"719 607 LINE SMOOTH",
"698 604 OFFCURVE",
"686 591 OFFCURVE",
"686 570 CURVE SMOOTH",
"682 126 LINE SMOOTH",
"682 105 OFFCURVE",
"694 93 OFFCURVE",
"715 91 CURVE SMOOTH",
"740 89 LINE",
"740 -3 LINE",
"576 0 LINE",
"413 -3 LINE"
);
}
);
width = 774;
},
{
associatedMasterId = "1B5E7594-BD1E-41E1-80E1-0DE241437139";
background = {
components = (
{
name = n;
transform = "{1, 0, 0, 1, 68, 0}";
}
);
};
layerId = "E010CDBE-0680-4596-A7F8-85DDDE4FE324";
name = "Mar 30 18, 20:27";
paths = (
{
closed = 1;
nodes = (
"556 368 LINE",
"556 325 LINE",
"145 325 LINE",
"145 368 LINE"
);
},
{
closed = 1;
nodes = (
"2 26 LINE",
"50 34 LINE SMOOTH",
"74 38 OFFCURVE",
"86 51 OFFCURVE",
"86 75 CURVE SMOOTH",
"86 621 LINE SMOOTH",
"86 645 OFFCURVE",
"73 663 OFFCURVE",
"49 666 CURVE SMOOTH",
"3 672 LINE",
"3 704 LINE",
"116 700 LINE",
"242 704 LINE",
"242 672 LINE",
"189 664 LINE SMOOTH",
"165 660 OFFCURVE",
"153 646 OFFCURVE",
"153 622 CURVE SMOOTH",
"153 75 LINE SMOOTH",
"153 51 OFFCURVE",
"166 39 OFFCURVE",
"190 35 CURVE SMOOTH",
"244 26 LINE",
"244 -3 LINE",
"121 0 LINE",
"2 -3 LINE"
);
},
{
closed = 1;
nodes = (
"409 26 LINE",
"457 34 LINE SMOOTH",
"481 38 OFFCURVE",
"493 51 OFFCURVE",
"493 75 CURVE SMOOTH",
"493 621 LINE SMOOTH",
"493 645 OFFCURVE",
"480 663 OFFCURVE",
"456 666 CURVE SMOOTH",
"410 672 LINE",
"410 704 LINE",
"523 700 LINE",
"649 704 LINE",
"649 672 LINE",
"596 664 LINE SMOOTH",
"572 660 OFFCURVE",
"560 646 OFFCURVE",
"560 622 CURVE SMOOTH",
"560 75 LINE SMOOTH",
"560 51 OFFCURVE",
"573 39 OFFCURVE",
"597 35 CURVE SMOOTH",
"651 26 LINE",
"651 -3 LINE",
"528 0 LINE",
"409 -3 LINE"
);
}
);
width = 653;
},
{
anchors = (
{
name = bottom;
position = "{374, 0}";
},
{
name = center;
position = "{374, 350}";
},
{
name = top;
position = "{374, 670}";
},
{
name = topleft;
position = "{20, 700}";
}
);
background = {
components = (
{
name = n;
transform = "{1, 0, 0, 1, 129, 0}";
}
);
};
layerId = "1B5E7594-BD1E-41E1-80E1-0DE241437139";
paths = (
{
closed = 1;
nodes = (
"587 368 LINE",
"587 325 LINE",
"176 325 LINE",
"176 368 LINE"
);
},
{
closed = 1;
nodes = (
"52 26 LINE",
"100 34 LINE SMOOTH",
"124 38 OFFCURVE",
"136 51 OFFCURVE",
"136 75 CURVE SMOOTH",
"136 621 LINE SMOOTH",
"136 645 OFFCURVE",
"123 663 OFFCURVE",
"99 666 CURVE SMOOTH",
"53 672 LINE",
"53 704 LINE",
"166 700 LINE",
"292 704 LINE",
"292 672 LINE",
"239 664 LINE SMOOTH",
"215 660 OFFCURVE",
"203 646 OFFCURVE",
"203 622 CURVE SMOOTH",
"203 75 LINE SMOOTH",
"203 51 OFFCURVE",
"216 39 OFFCURVE",
"240 35 CURVE SMOOTH",
"294 26 LINE",
"294 -3 LINE",
"171 0 LINE",
"52 -3 LINE"
);
},
{
closed = 1;
nodes = (
"457 26 LINE",
"505 34 LINE SMOOTH",
"529 38 OFFCURVE",
"541 51 OFFCURVE",
"541 75 CURVE SMOOTH",
"541 621 LINE SMOOTH",
"541 645 OFFCURVE",
"528 663 OFFCURVE",
"504 666 CURVE SMOOTH",
"458 672 LINE",
"458 704 LINE",
"571 700 LINE",
"697 704 LINE",
"697 672 LINE",
"644 664 LINE SMOOTH",
"620 660 OFFCURVE",
"608 646 OFFCURVE",
"608 622 CURVE SMOOTH",
"608 75 LINE SMOOTH",
"608 51 OFFCURVE",
"621 39 OFFCURVE",
"645 35 CURVE SMOOTH",
"699 26 LINE",
"699 -3 LINE",
"576 0 LINE",
"457 -3 LINE"
);
}
);
width = 747;
}
);
unicode = 0048;
},
{
color = 1;
glyphname = I;
lastChange = "2018-04-01 20:43:36 +0000";
layers = (
{
anchors = (
{
name = bottom;
position = "{171, 0}";
},
{
name = ogonek;
position = "{308, 10}";
},
{
name = top;
position = "{171, 670}";
},
{
name = topleft;
position = "{20, 700}";
}
);
background = {
paths = (
{
closed = 1;
nodes = (
"294 672 LINE",
"246 664 LINE SMOOTH",
"222 660 OFFCURVE",
"210 647 OFFCURVE",
"210 623 CURVE SMOOTH",
"210 88 LINE SMOOTH",
"210 64 OFFCURVE",
"223 46 OFFCURVE",
"247 43 CURVE SMOOTH",
"293 37 LINE",
"293 -7 LINE",
"180 -2 LINE",
"54 -7 LINE",
"54 37 LINE",
"107 45 LINE SMOOTH",
"131 49 OFFCURVE",
"143 63 OFFCURVE",
"143 87 CURVE SMOOTH",
"143 623 LINE SMOOTH",
"143 647 OFFCURVE",
"130 659 OFFCURVE",
"106 663 CURVE SMOOTH",
"52 672 LINE",
"52 701 LINE",
"175 698 LINE",
"294 701 LINE"
);
}
);
};
layerId = "1B5E7594-BD1E-41E1-80E1-0DE241437139";
paths = (
{
closed = 1;
nodes = (
"52 26 LINE",
"100 34 LINE SMOOTH",
"124 38 OFFCURVE",
"136 51 OFFCURVE",
"136 75 CURVE SMOOTH",
"136 621 LINE SMOOTH",
"136 645 OFFCURVE",
"123 663 OFFCURVE",
"99 666 CURVE SMOOTH",
"53 672 LINE",
"53 704 LINE",
"166 700 LINE",
"292 704 LINE",
"292 672 LINE",
"239 664 LINE SMOOTH",
"215 660 OFFCURVE",
"203 646 OFFCURVE",
"203 622 CURVE SMOOTH",
"203 75 LINE SMOOTH",
"203 51 OFFCURVE",
"216 39 OFFCURVE",
"240 35 CURVE SMOOTH",
"294 26 LINE",
"294 -3 LINE",
"171 0 LINE",
"52 -3 LINE"
);
}
);
width = 342;
},
{
anchors = (
{
name = bottom;
position = "{198, 0}";
},
{
name = ogonek;
position = "{356, 10}";
},
{
name = top;
position = "{198, 655}";
},
{
name = topleft;
position = "{20, 706}";
}
);
layerId = "5A1ECF60-5C3D-4C60-84B4-C69E600E0422";
paths = (
{
closed = 1;
nodes = (
"34 89 LINE",
"56 91 LINE SMOOTH",
"77 93 OFFCURVE",
"91 108 OFFCURVE",
"91 129 CURVE SMOOTH",
"86 569 LINE SMOOTH",
"86 590 OFFCURVE",
"75 602 OFFCURVE",
"54 606 CURVE SMOOTH",
"35 610 LINE",
"35 709 LINE",
"201 706 LINE",
"362 709 LINE",
"362 610 LINE",
"340 607 LINE SMOOTH",
"319 604 OFFCURVE",
"307 591 OFFCURVE",
"307 570 CURVE SMOOTH",
"303 126 LINE SMOOTH",
"303 105 OFFCURVE",
"315 93 OFFCURVE",
"336 91 CURVE SMOOTH",
"361 89 LINE",
"361 -3 LINE",
"197 0 LINE",
"34 -3 LINE"
);
}
);
width = 395;
},
{
associatedMasterId = "1B5E7594-BD1E-41E1-80E1-0DE241437139";
background = {
paths = (
{
closed = 1;
nodes = (
"244 672 LINE",
"196 664 LINE SMOOTH",
"172 660 OFFCURVE",
"160 647 OFFCURVE",
"160 623 CURVE SMOOTH",
"160 88 LINE SMOOTH",
"160 64 OFFCURVE",
"173 46 OFFCURVE",
"197 43 CURVE SMOOTH",
"243 37 LINE",
"243 -7 LINE",
"130 -2 LINE",
"4 -7 LINE",
"4 37 LINE",
"57 45 LINE SMOOTH",
"81 49 OFFCURVE",
"93 63 OFFCURVE",
"93 87 CURVE SMOOTH",
"93 623 LINE SMOOTH",
"93 647 OFFCURVE",
"80 659 OFFCURVE",
"56 663 CURVE SMOOTH",
"2 672 LINE",
"2 701 LINE",
"125 698 LINE",
"244 701 LINE"
);
}
);
};
layerId = "E2659496-786C-4E69-8E96-487439090C39";
name = "Mar 30 18, 20:24";
paths = (
{
closed = 1;
nodes = (
"2 26 LINE",
"50 34 LINE SMOOTH",
"74 38 OFFCURVE",
"86 51 OFFCURVE",
"86 75 CURVE SMOOTH",
"86 621 LINE SMOOTH",
"86 645 OFFCURVE",
"73 663 OFFCURVE",
"49 666 CURVE SMOOTH",
"3 672 LINE",
"3 704 LINE",
"116 700 LINE",
"242 704 LINE",
"242 672 LINE",
"189 664 LINE SMOOTH",
"165 660 OFFCURVE",
"153 646 OFFCURVE",
"153 622 CURVE SMOOTH",
"153 75 LINE SMOOTH",
"153 51 OFFCURVE",
"166 39 OFFCURVE",
"190 35 CURVE SMOOTH",
"244 26 LINE",
"244 -3 LINE",
"121 0 LINE",
"2 -3 LINE"
);
}
);
width = 246;
}
);
unicode = 0049;
},
{
color = 1;
glyphname = J;
lastChange = "2018-04-01 20:43:37 +0000";
layers = (
{
anchors = (
{
name = bottom;
position = "{163, 0}";
},
{
name = top;
position = "{163, 670}";
}
);
background = {
components = (
{
name = I;
transform = "{1, 0, 0, 1, 11, 0}";
}
);
};
guideLines = (
{
angle = 90;
position = "{43, 626}";
}
);
layerId = "1B5E7594-BD1E-41E1-80E1-0DE241437139";
paths = (
{
closed = 1;
nodes = (
"45 704 LINE",
"164 700 LINE",
"279 704 LINE",
"279 671 LINE",
"238 664 LINE SMOOTH",
"216 660 OFFCURVE",
"203 649 OFFCURVE",
"203 631 CURVE SMOOTH",
"201 105 LINE",
"185 22 OFFCURVE",
"141 -60 OFFCURVE",
"77 -138 CURVE",
"40 -111 LINE",
"99 -25 OFFCURVE",
"134 47 OFFCURVE",
"134 185 CURVE SMOOTH",
"133 630 LINE SMOOTH",
"133 650 OFFCURVE",
"120 664 OFFCURVE",
"97 666 CURVE SMOOTH",
"45 671 LINE"
);
}
);
width = 325;
},
{
anchors = (
{
name = bottom;
position = "{187, 0}";
},
{
name = top;
position = "{187, 655}";
}
);
background = {
components = (
{
name = I;
}
);
};
guideLines = (
{
angle = 90;
position = "{21, 660}";
}
);
layerId = "5A1ECF60-5C3D-4C60-84B4-C69E600E0422";
paths = (
{
closed = 1;
nodes = (
"19 709 LINE",
"193 706 LINE",
"355 709 LINE",
"355 615 LINE",
"337 612 LINE SMOOTH",
"316 609 OFFCURVE",
"304 596 OFFCURVE",
"304 575 CURVE SMOOTH",
"298 120 LINE",
"276 22 OFFCURVE",
"177 -88 OFFCURVE",
"93 -143 CURVE",
"7 -85 LINE",
"71 -3 OFFCURVE",
"90 94 OFFCURVE",
"88 222 CURVE SMOOTH",
"83 571 LINE SMOOTH",
"83 592 OFFCURVE",
"71 606 OFFCURVE",
"50 608 CURVE SMOOTH",
"19 611 LINE"
);
}
);
width = 374;
},
{
associatedMasterId = "1B5E7594-BD1E-41E1-80E1-0DE241437139";
background = {
components = (
{
name = I;
transform = "{1, 0, 0, 1, -38, 0}";
}
);
};
layerId = "5FEAFC23-CE29-4475-A910-56B6977470CB";
name = "Mar 30 18, 20:24";
paths = (
{
closed = 1;
nodes = (
"2 704 LINE",
"115 700 LINE",
"241 704 LINE",
"241 671 LINE",
"189 664 LINE SMOOTH",
"167 661 OFFCURVE",
"154 649 OFFCURVE",
"154 631 CURVE SMOOTH",
"152 65 LINE",
"134 -18 OFFCURVE",
"110 -80 OFFCURVE",
"58 -178 CURVE",
"19 -154 LINE",
"56 -75 OFFCURVE",
"85 8 OFFCURVE",
"85 165 CURVE SMOOTH",
"84 630 LINE SMOOTH",
"84 650 OFFCURVE",
"71 663 OFFCURVE",
"48 666 CURVE SMOOTH",
"2 671 LINE"
);
}
);
width = 236;
}
);
unicode = 004A;
},
{
color = 1;
glyphname = K;
lastChange = "2018-04-01 20:43:37 +0000";
layers = (
{
anchors = (
{
name = bottom;
position = "{364, 0}";
},
{
name = top;
position = "{364, 655}";
}
);
background = {
components = (
{
name = a;
transform = "{1, 0, 0, 1, 177, 0}";
}
);
};
guideLines = (
{
position = "{736, 611}";
}
);
layerId = "5A1ECF60-5C3D-4C60-84B4-C69E600E0422";
paths = (
{
closed = 1;
nodes = (
"553 704 LINE",
"696 707 LINE",
"696 610 LINE",
"646 598 LINE SMOOTH",
"628 594 OFFCURVE",
"611 580 OFFCURVE",
"598 566 CURVE SMOOTH",
"293 227 LINE",
"275 344 LINE",
"446 560 LINE SMOOTH",
"462 580 OFFCURVE",
"452 602 OFFCURVE",
"427 606 CURVE SMOOTH",
"395 611 LINE",
"395 706 LINE"
);
},
{
closed = 1;
nodes = (
"486 460 LINE",
"636 150 LINE SMOOTH",
"646 128 OFFCURVE",
"656 121 OFFCURVE",
"680 127 CURVE SMOOTH",
"714 135 LINE",
"732 105 LINE",
"683 1 LINE",
"480 -51 OFFCURVE",
"431 48 OFFCURVE",
"402 134 CURVE SMOOTH",
"339 321 LINE"
);
},
{
closed = 1;
nodes = (
"34 89 LINE",
"56 91 LINE SMOOTH",
"77 93 OFFCURVE",
"91 108 OFFCURVE",
"91 129 CURVE SMOOTH",
"86 569 LINE SMOOTH",
"86 590 OFFCURVE",
"75 602 OFFCURVE",
"54 606 CURVE SMOOTH",
"35 610 LINE",
"35 709 LINE",
"201 706 LINE",
"362 707 LINE",
"362 610 LINE",
"340 607 LINE SMOOTH",
"319 604 OFFCURVE",
"307 591 OFFCURVE",
"307 570 CURVE SMOOTH",
"303 126 LINE SMOOTH",
"303 105 OFFCURVE",
"315 93 OFFCURVE",
"336 91 CURVE SMOOTH",
"361 89 LINE",
"361 -3 LINE",
"197 0 LINE",
"34 -3 LINE"
);
}
);
width = 727;
},
{
anchors = (
{
name = bottom;
position = "{328, 0}";
},
{
name = top;
position = "{328, 670}";
}
);
background = {
components = (
{
name = R;
transform = "{1, 0, 0, 1, -1, 0}";
}
);
};
guideLines = (
{
angle = 90;
position = "{620, 101}";
}
);
layerId = "1B5E7594-BD1E-41E1-80E1-0DE241437139";
paths = (
{
closed = 1;
nodes = (
"521 700 LINE",
"624 703 LINE",
"624 672 LINE",
"599 664 LINE SMOOTH",
"577 657 OFFCURVE",
"560 641 OFFCURVE",
"544 621 CURVE SMOOTH",
"196 187 LINE",
"188 250 LINE",
"477 619 LINE SMOOTH",
"495 642 OFFCURVE",
"482 663 OFFCURVE",
"454 666 CURVE SMOOTH",
"405 672 LINE",
"405 704 LINE"
);
},
{
closed = 1;
nodes = (
"331 402 LINE",
"537 63 LINE SMOOTH",
"549 43 OFFCURVE",
"560 42 OFFCURVE",
"579 49 CURVE SMOOTH",
"629 68 LINE",
"639 47 LINE",
"615 4 LINE",
"541 -29 OFFCURVE",
"490 1 OFFCURVE",
"458 59 CURVE SMOOTH",
"297 350 LINE"
);
},
{
closed = 1;
nodes = (
"52 26 LINE",
"100 34 LINE SMOOTH",
"124 38 OFFCURVE",
"136 51 OFFCURVE",
"136 75 CURVE SMOOTH",
"136 621 LINE SMOOTH",
"136 645 OFFCURVE",
"123 663 OFFCURVE",
"99 666 CURVE SMOOTH",
"53 672 LINE",
"53 704 LINE",
"166 700 LINE",
"292 704 LINE",
"292 672 LINE",
"239 664 LINE SMOOTH",
"215 660 OFFCURVE",
"203 646 OFFCURVE",
"203 622 CURVE SMOOTH",
"203 75 LINE SMOOTH",
"203 51 OFFCURVE",
"216 39 OFFCURVE",
"240 35 CURVE SMOOTH",
"294 26 LINE",
"294 -3 LINE",
"171 0 LINE",
"52 -3 LINE"
);
}
);
width = 656;
}
);
unicode = 004B;
},
{
color = 1;
glyphname = L;
lastChange = "2018-04-01 20:43:36 +0000";
layers = (
{
anchors = (
{
name = bottom;
position = "{259, 0}";
},
{
name = center;
position = "{259, 350}";
},
{
name = top;
position = "{259, 670}";
},
{
name = topright;
position = "{498, 700}";
}
);
background = {
components = (
{
name = I;
transform = "{1, 0, 0, 1, 12, 0}";
}
);
};
layerId = "1B5E7594-BD1E-41E1-80E1-0DE241437139";
paths = (
{
closed = 1;
nodes = (
"52 26 LINE",
"100 34 LINE SMOOTH",
"124 38 OFFCURVE",
"136 51 OFFCURVE",
"136 75 CURVE SMOOTH",
"136 620 LINE SMOOTH",
"136 644 OFFCURVE",
"123 662 OFFCURVE",
"99 665 CURVE SMOOTH",
"53 671 LINE",
"53 704 LINE",
"166 700 LINE",
"292 704 LINE",
"292 671 LINE",
"239 663 LINE SMOOTH",
"215 659 OFFCURVE",
"203 645 OFFCURVE",
"203 621 CURVE SMOOTH",
"203 84 LINE SMOOTH",
"203 60 OFFCURVE",
"216 41 OFFCURVE",
"240 42 CURVE SMOOTH",
"378 46 LINE SMOOTH",
"430 48 OFFCURVE",
"446 54 OFFCURVE",
"462 133 CURVE",
"506 133 LINE",
"488 -2 LINE",
"169 0 LINE",
"52 -3 LINE"
);
}
);
width = 518;
},
{
anchors = (
{
name = bottom;
position = "{279, 0}";
},
{
name = center;
position = "{279, 353}";
},
{
name = top;
position = "{279, 655}";
},
{
name = topright;
position = "{538, 706}";
}
);
background = {
components = (
{
name = I;
transform = "{1, 0, 0, 1, 4, 0}";
}
);
};
layerId = "5A1ECF60-5C3D-4C60-84B4-C69E600E0422";
paths = (
{
closed = 1;
nodes = (
"34 89 LINE",
"56 91 LINE SMOOTH",
"77 93 OFFCURVE",
"91 108 OFFCURVE",
"91 129 CURVE",
"86 574 LINE",
"86 595 OFFCURVE",
"75 607 OFFCURVE",
"54 611 CURVE SMOOTH",
"35 615 LINE",
"35 709 LINE",
"191 706 LINE",
"356 709 LINE",
"356 615 LINE",
"336 612 LINE SMOOTH",
"315 609 OFFCURVE",
"303 596 OFFCURVE",
"303 575 CURVE SMOOTH",
"299 126 LINE SMOOTH",
"299 120 OFFCURVE",
"300 115 OFFCURVE",
"302 111 CURVE",
"386 112 LINE SMOOTH",
"444 113 OFFCURVE",
"456 134 OFFCURVE",
"467 205 CURVE",
"565 205 LINE",
"541 -6 LINE",
"181 0 LINE",
"34 -3 LINE"
);
}
);
width = 558;
},
{
associatedMasterId = "1B5E7594-BD1E-41E1-80E1-0DE241437139";
background = {
components = (
{
name = I;
transform = "{1, 0, 0, 1, -38, 0}";
}
);
};
layerId = "CB1406FC-2D8A-4902-AC46-AFC8A57CEB0D";
name = "Mar 30 18, 20:24";
paths = (
{
closed = 1;
nodes = (
"2 26 LINE",
"50 34 LINE SMOOTH",
"74 38 OFFCURVE",
"86 51 OFFCURVE",
"86 75 CURVE SMOOTH",
"86 620 LINE SMOOTH",
"86 644 OFFCURVE",
"73 662 OFFCURVE",
"49 665 CURVE SMOOTH",
"3 671 LINE",
"3 704 LINE",
"116 700 LINE",
"242 704 LINE",
"242 671 LINE",
"189 663 LINE SMOOTH",
"165 659 OFFCURVE",
"153 645 OFFCURVE",
"153 621 CURVE SMOOTH",
"153 84 LINE SMOOTH",
"153 60 OFFCURVE",
"166 41 OFFCURVE",
"190 42 CURVE SMOOTH",
"328 46 LINE SMOOTH",
"380 48 OFFCURVE",
"396 54 OFFCURVE",
"412 133 CURVE",
"456 133 LINE",
"438 -2 LINE",
"119 0 LINE",
"2 -3 LINE"
);
}
);
width = 461;
}
);
unicode = 004C;
},
{
color = 1;
glyphname = M;
lastChange = "2018-04-01 20:43:37 +0000";
layers = (
{
anchors = (
{
name = bottom;
position = "{442, 0}";
},
{
name = top;
position = "{442, 670}";
}
);
background = {
components = (
{
name = V;
transform = "{1, 0, 0, 1, 118, 0}";
}
);
};
layerId = "1B5E7594-BD1E-41E1-80E1-0DE241437139";
paths = (
{
closed = 1;
nodes = (
"179 0 LINE",
"285 -4 LINE",
"285 26 LINE",
"225 38 LINE SMOOTH",
"202 43 OFFCURVE",
"190 57 OFFCURVE",
"190 82 CURVE SMOOTH",
"186 621 LINE",
"410 -9 LINE",
"463 16 LINE",
"682 619 LINE",
"680 79 LINE SMOOTH",
"680 55 OFFCURVE",
"667 38 OFFCURVE",
"644 35 CURVE SMOOTH",
"579 26 LINE",
"579 -4 LINE",
"693 0 LINE",
"836 -4 LINE",
"836 28 LINE",
"778 35 LINE SMOOTH",
"756 38 OFFCURVE",
"746 59 OFFCURVE",
"746 83 CURVE SMOOTH",
"745 620 LINE SMOOTH",
"745 643 OFFCURVE",
"751 657 OFFCURVE",
"774 661 CURVE SMOOTH",
"828 671 LINE",
"828 704 LINE",
"736 700 LINE",
"656 702 LINE",
"440 99 LINE",
"432 99 LINE",
"229 702 LINE",
"155 700 LINE",
"55 704 LINE",
"55 669 LINE",
"100 663 LINE SMOOTH",
"124 660 OFFCURVE",
"136 644 OFFCURVE",
"136 620 CURVE SMOOTH",
"137 83 LINE SMOOTH",
"137 60 OFFCURVE",
"127 35 OFFCURVE",
"105 33 CURVE SMOOTH",
"52 28 LINE",
"52 -4 LINE"
);
}
);
width = 883;
},
{
anchors = (
{
name = bottom;
position = "{437, 0}";
},
{
name = top;
position = "{437, 655}";
}
);
background = {
components = (
{
name = I;
transform = "{1, 0, 0, 1, 485, 0}";
},
{
name = H;
transform = "{1, 0, 0, 1, -5, 0}";
}
);
};
layerId = "5A1ECF60-5C3D-4C60-84B4-C69E600E0422";
paths = (
{
closed = 1;
nodes = (
"145 0 LINE",
"297 -3 LINE",
"297 86 LINE",
"247 95 LINE SMOOTH",
"226 99 OFFCURVE",
"215 110 OFFCURVE",
"215 132 CURVE SMOOTH",
"212 408 LINE",
"360 -5 LINE",
"446 10 LINE",
"578 408 LINE",
"578 127 LINE SMOOTH",
"578 106 OFFCURVE",
"566 93 OFFCURVE",
"545 90 CURVE SMOOTH",
"517 86 LINE",
"517 -4 LINE",
"679 0 LINE",
"847 -3 LINE",
"847 86 LINE",
"814 91 LINE SMOOTH",
"793 94 OFFCURVE",
"782 107 OFFCURVE",
"782 128 CURVE SMOOTH",
"782 571 LINE SMOOTH",
"782 592 OFFCURVE",
"793 605 OFFCURVE",
"814 608 CURVE SMOOTH",
"842 612 LINE",
"842 709 LINE",
"701 706 LINE",
"569 709 LINE",
"448 358 LINE",
"433 358 LINE",
"323 710 LINE",
"183 706 LINE",
"34 709 LINE",
"34 611 LINE",
"59 605 LINE SMOOTH",
"80 600 OFFCURVE",
"91 589 OFFCURVE",
"91 568 CURVE SMOOTH",
"91 128 LINE SMOOTH",
"91 107 OFFCURVE",
"80 94 OFFCURVE",
"59 91 CURVE SMOOTH",
"28 86 LINE",
"28 -3 LINE"
);
}
);
width = 874;
}
);
unicode = 004D;
},
{
color = 1;
glyphname = N;
lastChange = "2018-04-01 20:43:37 +0000";
layers = (
{
anchors = (
{
name = bottom;
position = "{369, 0}";
},
{
name = top;
position = "{369, 670}";
}
);
background = {
components = (
{
name = H;
transform = "{1, 0, 0, 1, 2, 0}";
}
);
};
layerId = "1B5E7594-BD1E-41E1-80E1-0DE241437139";
paths = (
{
closed = 1;
nodes = (
"162 0 LINE",
"285 -4 LINE",
"285 30 LINE",
"225 41 LINE SMOOTH",
"202 45 OFFCURVE",
"190 58 OFFCURVE",
"190 87 CURVE SMOOTH",
"188 637 LINE",
"571 -21 LINE",
"609 -10 LINE",
"609 615 LINE SMOOTH",
"609 638 OFFCURVE",
"620 659 OFFCURVE",
"643 662 CURVE SMOOTH",
"694 669 LINE",
"694 704 LINE",
"581 700 LINE",
"461 701 LINE",
"461 666 LINE",
"514 661 LINE SMOOTH",
"543 658 OFFCURVE",
"557 646 OFFCURVE",
"557 615 CURVE SMOOTH",
"561 125 LINE",
"233 704 LINE",
"151 700 LINE",
"58 704 LINE",
"58 668 LINE",
"103 662 LINE SMOOTH",
"127 659 OFFCURVE",
"137 642 OFFCURVE",
"137 618 CURVE SMOOTH",
"137 88 LINE SMOOTH",
"137 63 OFFCURVE",
"127 44 OFFCURVE",
"104 40 CURVE SMOOTH",
"51 30 LINE",
"51 -4 LINE"
);
}
);
width = 737;
},
{
anchors = (
{
name = bottom;
position = "{368, 0}";
},
{
name = top;
position = "{368, 655}";
}
);
background = {
components = (
{
name = H;
transform = "{1, 0, 0, 1, -25, 0}";
}
);
};
layerId = "5A1ECF60-5C3D-4C60-84B4-C69E600E0422";
paths = (
{
closed = 1;
nodes = (
"147 0 LINE",
"321 -3 LINE",
"321 89 LINE",
"275 95 LINE SMOOTH",
"234 100 OFFCURVE",
"225 108 OFFCURVE",
"224 144 CURVE SMOOTH",
"220 403 LINE",
"444 -14 LINE",
"655 7 LINE",
"655 561 LINE SMOOTH",
"655 582 OFFCURVE",
"665 594 OFFCURVE",
"685 600 CURVE SMOOTH",
"716 610 LINE",
"716 709 LINE",
"599 706 LINE",
"424 709 LINE",
"424 610 LINE",
"480 600 LINE SMOOTH",
"504 596 OFFCURVE",
"520 572 OFFCURVE",
"520 553 CURVE SMOOTH",
"520 263 LINE",
"310 709 LINE",
"159 706 LINE",
"33 709 LINE",
"33 609 LINE",
"61 602 LINE SMOOTH",
"82 597 OFFCURVE",
"92 585 OFFCURVE",
"92 564 CURVE SMOOTH",
"92 135 LINE SMOOTH",
"92 115 OFFCURVE",
"78 98 OFFCURVE",
"57 94 CURVE SMOOTH",
"28 88 LINE",
"28 -3 LINE"
);
}
);
width = 736;
},
{
associatedMasterId = "5A1ECF60-5C3D-4C60-84B4-C69E600E0422";
background = {
components = (
{
name = H;
transform = "{1, 0, 0, 1, 15, 0}";
}
);
};
backgroundImage = {
crop = "{{0, 0}, {522, 160}}";
imagePath = ../../../../Desktop/4727e6a4b0acdab98c17b3db3e0cf7.gif;
transform = "{4.27, 0, 0, 4.56, -1490, -20}";
};
layerId = "B0EC626A-5EF7-4134-BABA-7ED347DC724B";
name = "Mar 25 18, 18:35";
paths = (
{
closed = 1;
nodes = (
"168 0 LINE",
"322 -3 LINE",
"322 89 LINE",
"276 95 LINE SMOOTH",
"235 100 OFFCURVE",
"225 108 OFFCURVE",
"225 144 CURVE SMOOTH",
"221 433 LINE",
"465 -14 LINE",
"696 7 LINE",
"696 566 LINE SMOOTH",
"696 587 OFFCURVE",
"706 600 OFFCURVE",
"726 605 CURVE SMOOTH",
"765 615 LINE",
"765 709 LINE",
"640 706 LINE",
"465 709 LINE",
"465 615 LINE",
"521 605 LINE SMOOTH",
"545 601 OFFCURVE",
"561 577 OFFCURVE",
"561 558 CURVE SMOOTH",
"561 243 LINE",
"331 709 LINE",
"180 706 LINE",
"30 709 LINE",
"30 615 LINE",
"68 608 LINE SMOOTH",
"89 604 OFFCURVE",
"99 591 OFFCURVE",
"99 570 CURVE SMOOTH",
"99 135 LINE SMOOTH",
"99 115 OFFCURVE",
"85 98 OFFCURVE",
"64 94 CURVE SMOOTH",
"30 88 LINE",
"30 -3 LINE"
);
}
);
width = 753;
},
{
associatedMasterId = "1B5E7594-BD1E-41E1-80E1-0DE241437139";
background = {
components = (
{
name = H;
transform = "{1, 0, 0, 1, -35, 0}";
}
);
};
layerId = "1466BF85-56D3-43EC-A9AA-B58353706C3C";
name = "Mar 30 18, 20:24";
paths = (
{
closed = 1;
nodes = (
"113 0 LINE",
"236 -4 LINE",
"236 30 LINE",
"176 41 LINE SMOOTH",
"153 45 OFFCURVE",
"141 58 OFFCURVE",
"141 87 CURVE SMOOTH",
"138 639 LINE",
"526 -21 LINE",
"564 -10 LINE",
"564 615 LINE SMOOTH",
"564 638 OFFCURVE",
"575 659 OFFCURVE",
"598 662 CURVE SMOOTH",
"649 669 LINE",
"649 704 LINE",
"536 700 LINE",
"416 701 LINE",
"416 666 LINE",
"469 661 LINE SMOOTH",
"498 658 OFFCURVE",
"512 646 OFFCURVE",
"512 615 CURVE SMOOTH",
"516 125 LINE",
"184 704 LINE",
"102 700 LINE",
"9 704 LINE",
"9 668 LINE",
"54 662 LINE SMOOTH",
"78 659 OFFCURVE",
"88 642 OFFCURVE",
"88 618 CURVE SMOOTH",
"88 88 LINE SMOOTH",
"88 63 OFFCURVE",
"78 44 OFFCURVE",
"55 40 CURVE SMOOTH",
"2 30 LINE",
"2 -4 LINE"
);
}
);
width = 645;
}
);
unicode = 004E;
},
{
color = 1;
glyphname = O;
lastChange = "2018-04-01 20:43:37 +0000";
layers = (
{
anchors = (
{
name = bottom;
position = "{372, 0}";
},
{
name = center;
position = "{372, 350}";
},
{
name = ogonek;
position = "{670, 10}";
},
{
name = top;
position = "{372, 670}";
},
{
name = topleft;
position = "{20, 700}";
},
{
name = topright;
position = "{724, 700}";
}
);
background = {
components = (
{
name = H;
transform = "{1, 0, 0, 1, -4, 0}";
}
);
};
guideLines = (
{
angle = 90;
position = "{52, 687}";
},
{
angle = 90;
position = "{692, 683}";
}
);
layerId = "1B5E7594-BD1E-41E1-80E1-0DE241437139";
paths = (
{
closed = 1;
nodes = (
"563 -18 OFFCURVE",
"676 121 OFFCURVE",
"675 354 CURVE SMOOTH",
"674 575 OFFCURVE",
"561 718 OFFCURVE",
"372 718 CURVE SMOOTH",
"181 718 OFFCURVE",
"68 575 OFFCURVE",
"68 354 CURVE SMOOTH",
"68 122 OFFCURVE",
"181 -16 OFFCURVE",
"371 -17 CURVE SMOOTH"
);
},
{
closed = 1;
nodes = (
"228 31 OFFCURVE",
"144 151 OFFCURVE",
"144 354 CURVE SMOOTH",
"144 553 OFFCURVE",
"229 670 OFFCURVE",
"372 670 CURVE SMOOTH",
"517 670 OFFCURVE",
"603 553 OFFCURVE",
"603 354 CURVE SMOOTH",
"603 151 OFFCURVE",
"517 31 OFFCURVE",
"371 31 CURVE SMOOTH"
);
}
);
width = 744;
},
{
anchors = (
{
name = bottom;
position = "{351, 0}";
},
{
name = center;
position = "{351, 353}";
},
{
name = ogonek;
position = "{631, 10}";
},
{
name = top;
position = "{351, 655}";
},
{
name = topleft;
position = "{20, 706}";
},
{
name = topright;
position = "{681, 706}";
}
);
background = {
components = (
{
name = H;
transform = "{1, 0, 0, 1, -25, 0}";
}
);
paths = (
{
closed = 1;
nodes = (
"341 -58 LINE",
"360 -58 LINE",
"360 772 LINE",
"341 772 LINE"
);
}
);
};
layerId = "5A1ECF60-5C3D-4C60-84B4-C69E600E0422";
paths = (
{
closed = 1;
nodes = (
"565 -20 OFFCURVE",
"669 98 OFFCURVE",
"672 353 CURVE SMOOTH",
"676 607 OFFCURVE",
"572 727 OFFCURVE",
"350 725 CURVE SMOOTH",
"132 723 OFFCURVE",
"28 603 OFFCURVE",
"28 353 CURVE SMOOTH",
"28 98 OFFCURVE",
"132 -20 OFFCURVE",
"350 -20 CURVE SMOOTH"
);
},
{
closed = 1;
nodes = (
"292 105 OFFCURVE",
"277 155 OFFCURVE",
"276 345 CURVE SMOOTH",
"275 545 OFFCURVE",
"290 594 OFFCURVE",
"352 594 CURVE SMOOTH",
"411 594 OFFCURVE",
"426 545 OFFCURVE",
"427 345 CURVE SMOOTH",
"428 155 OFFCURVE",
"413 105 OFFCURVE",
"352 105 CURVE SMOOTH"
);
}
);
width = 701;
},
{
associatedMasterId = "1B5E7594-BD1E-41E1-80E1-0DE241437139";
background = {
components = (
{
name = H;
transform = "{1, 0, 0, 1, -28, 0}";
}
);
};
layerId = "5C9B3C6F-C594-46CE-B60B-51CCC91A5373";
name = "Mar 30 18, 20:24";
paths = (
{
closed = 1;
nodes = (
"521 -17 OFFCURVE",
"636 121 OFFCURVE",
"635 354 CURVE SMOOTH",
"634 591 OFFCURVE",
"516 718 OFFCURVE",
"332 718 CURVE SMOOTH",
"141 718 OFFCURVE",
"28 576 OFFCURVE",
"28 354 CURVE SMOOTH",
"28 111 OFFCURVE",
"140 -16 OFFCURVE",
"331 -17 CURVE SMOOTH"
);
},
{
closed = 1;
nodes = (
"188 31 OFFCURVE",
"104 166 OFFCURVE",
"104 357 CURVE SMOOTH",
"104 537 OFFCURVE",
"190 670 OFFCURVE",
"332 670 CURVE SMOOTH",
"476 670 OFFCURVE",
"563 550 OFFCURVE",
"563 357 CURVE SMOOTH",
"563 164 OFFCURVE",
"475 31 OFFCURVE",
"331 31 CURVE SMOOTH"
);
}
);
width = 663;
}
);
unicode = 004F;
},
{
glyphname = Oslash;
lastChange = "2018-04-01 18:25:29 +0000";
layers = (
{
anchors = (
{
name = bottom;
position = "{372, 0}";
},
{
name = top;
position = "{372, 700}";
}
);
components = (
{
name = O;
}
);
guideLines = (
{
angle = 55;
position = "{253, 352}";
}
);
layerId = "1B5E7594-BD1E-41E1-80E1-0DE241437139";
paths = (
{
closed = 1;
nodes = (
"104 -43 LINE",
"127 -39 LINE",
"671 744 LINE",
"642 765 LINE",
"622 758 LINE",
"76 -20 LINE"
);
}
);
width = 744;
},
{
anchors = (
{
name = bottom;
position = "{349, 0}";
},
{
name = top;
position = "{349, 706}";
}
);
components = (
{
name = O;
}
);
layerId = "5A1ECF60-5C3D-4C60-84B4-C69E600E0422";
paths = (
{
closed = 1;
nodes = (
"137 -86 LINE",
"160 -82 LINE",
"704 701 LINE",
"577 796 LINE",
"557 789 LINE",
"11 11 LINE"
);
}
);
width = 701;
},
{
anchors = (
{
name = bottom;
position = "{372, 0}";
},
{
name = top;
position = "{372, 700}";
}
);
associatedMasterId = "1B5E7594-BD1E-41E1-80E1-0DE241437139";
components = (
{
name = O;
}
);
layerId = "135415CB-1A68-4D47-BB6C-A10C18EB0C52";
name = "Light [130]";
paths = (
{
closed = 1;
nodes = (
"579 611 LINE",
"671 744 LINE",
"642 765 LINE",
"622 758 LINE",
"544 646 LINE"
);
},
{
closed = 1;
nodes = (
"180 125 LINE",
"76 -20 LINE",
"104 -43 LINE",
"127 -39 LINE",
"214 88 LINE"
);
}
);
width = 744;
},
{
anchors = (
{
name = bottom;
position = "{349, 0}";
},
{
name = top;
position = "{349, 706}";
}
);
associatedMasterId = "5A1ECF60-5C3D-4C60-84B4-C69E600E0422";
components = (
{
name = O;
}
);
layerId = "FA6976FC-E3DC-43FD-95D7-AACFCD418CFF";
name = "Black [130]";
paths = (
{
closed = 1;
nodes = (
"548 477 LINE",
"704 701 LINE",
"577 796 LINE",
"557 789 LINE",
"431 610 LINE"
);
},
{
closed = 1;
nodes = (
"185 260 LINE",
"11 11 LINE",
"137 -86 LINE",
"160 -82 LINE",
"275 94 LINE"
);
}
);
width = 701;
}
);
unicode = 00D8;
},
{
color = 1;
glyphname = P;
lastChange = "2018-04-01 20:43:37 +0000";
layers = (
{
anchors = (
{
name = bottom;
position = "{337, 0}";
},
{
name = top;
position = "{337, 655}";
}
);
background = {
components = (
{
name = R;
transform = "{1, 0, 0, 1, -5, 0}";
}
);
};
layerId = "5A1ECF60-5C3D-4C60-84B4-C69E600E0422";
paths = (
{
closed = 1;
nodes = (
"537 718 OFFCURVE",
"671 706 OFFCURVE",
"671 500 CURVE SMOOTH",
"671 288 OFFCURVE",
"489 220 OFFCURVE",
"232 273 CURVE",
"230 382 LINE",
"411 341 OFFCURVE",
"439 405 OFFCURVE",
"439 490 CURVE SMOOTH",
"439 587 OFFCURVE",
"396 602 OFFCURVE",
"285 595 CURVE",
"268 706 LINE"
);
},
{
closed = 1;
nodes = (
"392 89 LINE",
"392 -3 LINE",
"351 -3 LINE",
"351 89 LINE"
);
},
{
closed = 1;
nodes = (
"34 89 LINE",
"56 91 LINE SMOOTH",
"77 93 OFFCURVE",
"91 108 OFFCURVE",
"91 129 CURVE SMOOTH",
"86 569 LINE SMOOTH",
"86 590 OFFCURVE",
"75 602 OFFCURVE",
"54 606 CURVE SMOOTH",
"35 610 LINE",
"35 709 LINE",
"201 706 LINE",
"362 709 LINE",
"362 610 LINE",
"340 607 LINE SMOOTH",
"319 604 OFFCURVE",
"307 591 OFFCURVE",
"307 570 CURVE SMOOTH",
"303 126 LINE SMOOTH",
"303 105 OFFCURVE",
"315 93 OFFCURVE",
"336 91 CURVE SMOOTH",
"361 89 LINE",
"361 -3 LINE",
"197 0 LINE",
"34 -3 LINE"
);
}
);
width = 674;
},
{
anchors = (
{
name = bottom;
position = "{287, 0}";
},
{
name = top;
position = "{287, 670}";
}
);
background = {
components = (
{
name = H;
transform = "{1, 0, 0, 1, 10, 0}";
}
);
};
layerId = "1B5E7594-BD1E-41E1-80E1-0DE241437139";
paths = (
{
closed = 1;
nodes = (
"398 716 OFFCURVE",
"540 691 OFFCURVE",
"540 509 CURVE SMOOTH",
"540 356 OFFCURVE",
"418 261 OFFCURVE",
"161 302 CURVE",
"180 342 LINE",
"397 322 OFFCURVE",
"466 375 OFFCURVE",
"466 509 CURVE SMOOTH",
"466 611 OFFCURVE",
"423 680 OFFCURVE",
"175 659 CURVE",
"177 700 LINE"
);
},
{
closed = 1;
nodes = (
"313 26 LINE",
"313 -3 LINE",
"294 -3 LINE",
"271 30 LINE"
);
},
{
closed = 1;
nodes = (
"52 26 LINE",
"100 34 LINE SMOOTH",
"124 38 OFFCURVE",
"136 51 OFFCURVE",
"136 75 CURVE SMOOTH",
"136 621 LINE SMOOTH",
"136 645 OFFCURVE",
"123 663 OFFCURVE",
"99 666 CURVE SMOOTH",
"53 672 LINE",
"53 704 LINE",
"166 700 LINE",
"292 704 LINE",
"292 672 LINE",
"239 664 LINE SMOOTH",
"215 660 OFFCURVE",
"203 646 OFFCURVE",
"203 622 CURVE SMOOTH",
"203 75 LINE SMOOTH",
"203 51 OFFCURVE",
"216 39 OFFCURVE",
"240 35 CURVE SMOOTH",
"294 26 LINE",
"294 -3 LINE",
"171 0 LINE",
"52 -3 LINE"
);
}
);
width = 574;
}
);
unicode = 0050;
},
{
color = 1;
glyphname = Q;
lastChange = "2018-04-01 20:43:36 +0000";
layers = (
{
associatedMasterId = "5A1ECF60-5C3D-4C60-84B4-C69E600E0422";
components = (
{
name = O;
}
);
layerId = "30201244-EAB5-4B4D-BFDE-DE8E7A0844E1";
name = "Sep 25 17, 14:14";
paths = (
{
closed = 1;
nodes = (
"226 -16 OFFCURVE",
"104 -59 OFFCURVE",
"76 -74 CURVE",
"66 -172 LINE",
"88 -194 LINE",
"173 -181 OFFCURVE",
"244 -177 OFFCURVE",
"320 -177 CURVE SMOOTH",
"416 -177 OFFCURVE",
"503 -189 OFFCURVE",
"551 -205 CURVE",
"651 -108 LINE",
"633 -54 LINE",
"244 -88 LINE",
"523 0 LINE",
"347 15 LINE"
);
}
);
width = 719;
},
{
anchors = (
{
name = bottom;
position = "{352, 0}";
},
{
name = top;
position = "{352, 655}";
}
);
background = {
components = (
{
name = R;
transform = "{1, 0, 0, 1, -73, -164}";
}
);
};
guideLines = (
{
angle = 90;
position = "{672, 333}";
},
{
position = "{-831, -215}";
}
);
layerId = "5A1ECF60-5C3D-4C60-84B4-C69E600E0422";
paths = (
{
closed = 1;
nodes = (
"507 -73 OFFCURVE",
"325 -73 OFFCURVE",
"244 24 CURVE",
"54 166 LINE",
"166 -107 OFFCURVE",
"336 -281 OFFCURVE",
"578 -192 CURVE",
"639 -59 LINE",
"621 -28 LINE"
);
},
{
closed = 1;
nodes = (
"568 -14 OFFCURVE",
"672 98 OFFCURVE",
"675 353 CURVE SMOOTH",
"679 607 OFFCURVE",
"575 727 OFFCURVE",
"353 725 CURVE SMOOTH",
"135 723 OFFCURVE",
"31 603 OFFCURVE",
"31 353 CURVE SMOOTH",
"31 98 OFFCURVE",
"135 -14 OFFCURVE",
"353 -14 CURVE SMOOTH"
);
},
{
closed = 1;
nodes = (
"295 105 OFFCURVE",
"280 155 OFFCURVE",
"279 345 CURVE SMOOTH",
"278 545 OFFCURVE",
"293 594 OFFCURVE",
"355 594 CURVE SMOOTH",
"414 594 OFFCURVE",
"429 545 OFFCURVE",
"430 345 CURVE SMOOTH",
"431 155 OFFCURVE",
"416 105 OFFCURVE",
"355 105 CURVE SMOOTH"
);
}
);
width = 703;
},
{
anchors = (
{
name = bottom;
position = "{374, 0}";
},
{
name = top;
position = "{374, 670}";
}
);
background = {
components = (
{
name = R;
transform = "{1, 0, 0, 1, 88, -180}";
}
);
};
guideLines = (
{
angle = 90;
position = "{728, 323}";
}
);
layerId = "1B5E7594-BD1E-41E1-80E1-0DE241437139";
paths = (
{
closed = 1;
nodes = (
"467 -157 OFFCURVE",
"321 -106 OFFCURVE",
"187 76 CURVE",
"107 157 LINE",
"239 -160 OFFCURVE",
"453 -226 OFFCURVE",
"614 -177 CURVE",
"637 -133 LINE",
"627 -113 LINE"
);
},
{
closed = 1;
nodes = (
"567 -18 OFFCURVE",
"680 121 OFFCURVE",
"679 354 CURVE SMOOTH",
"678 575 OFFCURVE",
"565 718 OFFCURVE",
"376 718 CURVE SMOOTH",
"185 718 OFFCURVE",
"72 575 OFFCURVE",
"72 354 CURVE SMOOTH",
"72 122 OFFCURVE",
"185 -16 OFFCURVE",
"375 -17 CURVE SMOOTH"
);
},
{
closed = 1;
nodes = (
"232 31 OFFCURVE",
"148 151 OFFCURVE",
"148 354 CURVE SMOOTH",
"148 553 OFFCURVE",
"233 670 OFFCURVE",
"376 670 CURVE SMOOTH",
"521 670 OFFCURVE",
"607 553 OFFCURVE",
"607 354 CURVE SMOOTH",
"607 151 OFFCURVE",
"521 31 OFFCURVE",
"375 31 CURVE SMOOTH"
);
}
);
width = 748;
}
);
unicode = 0051;
},
{
color = 1;
glyphname = R;
lastChange = "2018-04-01 20:43:37 +0000";
layers = (
{
anchors = (
{
name = bottom;
position = "{357, 0}";
},
{
name = top;
position = "{357, 655}";
}
);
background = {
components = (
{
name = P;
transform = "{1, 0, 0, 1, -3, 0}";
}
);
};
layerId = "5A1ECF60-5C3D-4C60-84B4-C69E600E0422";
paths = (
{
closed = 1;
nodes = (
"515 718 OFFCURVE",
"659 707 OFFCURVE",
"659 501 CURVE SMOOTH",
"659 299 OFFCURVE",
"397 267 OFFCURVE",
"232 293 CURVE",
"230 394 LINE",
"389 380 OFFCURVE",
"427 415 OFFCURVE",
"427 493 CURVE SMOOTH",
"427 590 OFFCURVE",
"374 604 OFFCURVE",
"285 597 CURVE",
"268 706 LINE"
);
},
{
closed = 1;
nodes = (
"517 334 LINE",
"621 149 LINE SMOOTH",
"630 132 OFFCURVE",
"642 124 OFFCURVE",
"661 128 CURVE SMOOTH",
"699 135 LINE",
"716 105 LINE",
"667 0 LINE",
"461 -50 OFFCURVE",
"416 45 OFFCURVE",
"392 135 CURVE SMOOTH",
"339 332 LINE"
);
},
{
closed = 1;
nodes = (
"34 89 LINE",
"56 91 LINE SMOOTH",
"77 93 OFFCURVE",
"91 108 OFFCURVE",
"91 129 CURVE SMOOTH",
"86 569 LINE SMOOTH",
"86 590 OFFCURVE",
"75 602 OFFCURVE",
"54 606 CURVE SMOOTH",
"35 610 LINE",
"35 709 LINE",
"201 706 LINE",
"362 709 LINE",
"362 610 LINE",
"340 607 LINE SMOOTH",
"319 604 OFFCURVE",
"307 591 OFFCURVE",
"307 570 CURVE SMOOTH",
"303 126 LINE SMOOTH",
"303 105 OFFCURVE",
"315 93 OFFCURVE",
"336 91 CURVE SMOOTH",
"361 89 LINE",
"361 -3 LINE",
"197 0 LINE",
"34 -3 LINE"
);
}
);
width = 713;
},
{
anchors = (
{
name = bottom;
position = "{317, 0}";
},
{
name = top;
position = "{317, 670}";
}
);
background = {
components = (
{
name = H;
transform = "{1, 0, 0, 1, 10, 0}";
}
);
};
layerId = "1B5E7594-BD1E-41E1-80E1-0DE241437139";
paths = (
{
closed = 1;
nodes = (
"360 716 OFFCURVE",
"520 698 OFFCURVE",
"520 516 CURVE SMOOTH",
"520 356 OFFCURVE",
"390 290 OFFCURVE",
"157 309 CURVE",
"166 350 LINE",
"403 336 OFFCURVE",
"448 401 OFFCURVE",
"448 513 CURVE SMOOTH",
"448 615 OFFCURVE",
"395 681 OFFCURVE",
"163 659 CURVE",
"155 700 LINE"
);
},
{
closed = 1;
nodes = (
"369 329 LINE",
"522 63 LINE SMOOTH",
"534 43 OFFCURVE",
"545 42 OFFCURVE",
"564 49 CURVE SMOOTH",
"614 68 LINE",
"624 47 LINE",
"600 4 LINE",
"526 -29 OFFCURVE",
"472 1 OFFCURVE",
"443 59 CURVE SMOOTH",
"308 329 LINE"
);
},
{
closed = 1;
nodes = (
"52 26 LINE",
"100 34 LINE SMOOTH",
"124 38 OFFCURVE",
"136 51 OFFCURVE",
"136 75 CURVE SMOOTH",
"136 621 LINE SMOOTH",
"136 645 OFFCURVE",
"123 663 OFFCURVE",
"99 666 CURVE SMOOTH",
"53 672 LINE",
"53 704 LINE",
"166 700 LINE",
"292 704 LINE",
"292 672 LINE",
"239 664 LINE SMOOTH",
"215 660 OFFCURVE",
"203 646 OFFCURVE",
"203 622 CURVE SMOOTH",
"203 75 LINE SMOOTH",
"203 51 OFFCURVE",
"216 39 OFFCURVE",
"240 35 CURVE SMOOTH",
"294 26 LINE",
"294 -3 LINE",
"171 0 LINE",
"52 -3 LINE"
);
}
);
width = 633;
}
);
unicode = 0052;
},
{
color = 1;
glyphname = S;
lastChange = "2018-04-01 20:43:36 +0000";
layers = (
{
anchors = (
{
name = bottom;
position = "{294, 0}";
},
{
name = top;
position = "{294, 670}";
}
);
guideLines = (
{
angle = 82;
position = "{115, 450}";
},
{
position = "{716, 544}";
}
);
layerId = "1B5E7594-BD1E-41E1-80E1-0DE241437139";
paths = (
{
closed = 1;
nodes = (
"74 399 OFFCURVE",
"164 367 OFFCURVE",
"280 327 CURVE SMOOTH",
"373 295 OFFCURVE",
"463 265 OFFCURVE",
"461 165 CURVE SMOOTH",
"459 84 OFFCURVE",
"387 33 OFFCURVE",
"247 36 CURVE SMOOTH",
"124 39 OFFCURVE",
"114 58 OFFCURVE",
"126 160 CURVE",
"81 160 LINE",
"62 38 LINE",
"66 24 LINE",
"119 -5 OFFCURVE",
"174 -14 OFFCURVE",
"251 -15 CURVE SMOOTH",
"408 -16 OFFCURVE",
"525 47 OFFCURVE",
"525 190 CURVE SMOOTH",
"525 319 OFFCURVE",
"417 352 OFFCURVE",
"317 383 CURVE SMOOTH",
"227 411 OFFCURVE",
"144 437 OFFCURVE",
"145 526 CURVE SMOOTH",
"146 615 OFFCURVE",
"204 662 OFFCURVE",
"324 663 CURVE SMOOTH",
"436 664 OFFCURVE",
"450 654 OFFCURVE",
"439 554 CURVE",
"483 554 LINE",
"500 683 LINE",
"493 696 LINE",
"444 708 OFFCURVE",
"395 712 OFFCURVE",
"347 712 CURVE SMOOTH",
"203 712 OFFCURVE",
"87 660 OFFCURVE",
"80 525 CURVE SMOOTH"
);
}
);
width = 587;
},
{
anchors = (
{
name = bottom;
position = "{310, 0}";
},
{
name = top;
position = "{310, 655}";
}
);
background = {
components = (
{
name = C;
transform = "{1, 0, 0, 1, -44, 0}";
}
);
};
layerId = "5A1ECF60-5C3D-4C60-84B4-C69E600E0422";
paths = (
{
closed = 1;
nodes = (
"42 364 OFFCURVE",
"117 308 OFFCURVE",
"205 277 CURVE SMOOTH",
"301 243 OFFCURVE",
"389 225 OFFCURVE",
"387 156 CURVE SMOOTH",
"385 89 OFFCURVE",
"306 83 OFFCURVE",
"249 92 CURVE SMOOTH",
"197 100 OFFCURVE",
"166 123 OFFCURVE",
"187 221 CURVE",
"69 221 LINE",
"20 46 LINE",
"36 18 LINE",
"116 -11 OFFCURVE",
"203 -17 OFFCURVE",
"270 -18 CURVE SMOOTH",
"509 -22 OFFCURVE",
"594 64 OFFCURVE",
"595 227 CURVE SMOOTH",
"596 369 OFFCURVE",
"482 415 OFFCURVE",
"381 444 CURVE SMOOTH",
"302 467 OFFCURVE",
"244 485 OFFCURVE",
"244 537 CURVE SMOOTH",
"244 610 OFFCURVE",
"311 612 OFFCURVE",
"360 605 CURVE SMOOTH",
"430 595 OFFCURVE",
"424 537 OFFCURVE",
"415 490 CURVE",
"532 490 LINE",
"566 663 LINE",
"555 698 LINE",
"480 717 OFFCURVE",
"406 721 OFFCURVE",
"348 721 CURVE SMOOTH",
"180 721 OFFCURVE",
"44 661 OFFCURVE",
"43 488 CURVE SMOOTH"
);
}
);
width = 620;
},
{
associatedMasterId = "1B5E7594-BD1E-41E1-80E1-0DE241437139";
background = {
components = (
{
name = C;
transform = "{1, 0, 0, 1, -114, 0}";
}
);
};
guideLines = (
{
angle = 82;
position = "{77, 450}";
},
{
position = "{678, 544}";
}
);
layerId = "0621537E-4CF2-4CC9-9B4E-E3CD804081AB";
name = "Mar 30 18, 20:24";
paths = (
{
closed = 1;
nodes = (
"41 660 OFFCURVE",
"165 712 OFFCURVE",
"309 712 CURVE SMOOTH",
"357 712 OFFCURVE",
"406 708 OFFCURVE",
"455 696 CURVE",
"462 683 LINE",
"445 554 LINE",
"401 554 LINE",
"412 654 OFFCURVE",
"398 664 OFFCURVE",
"286 663 CURVE SMOOTH",
"166 662 OFFCURVE",
"100 615 OFFCURVE",
"99 526 CURVE SMOOTH",
"98 458 OFFCURVE",
"145 427 OFFCURVE",
"264 390 CURVE SMOOTH",
"368 358 OFFCURVE",
"487 329 OFFCURVE",
"487 190 CURVE SMOOTH",
"487 47 OFFCURVE",
"370 -16 OFFCURVE",
"213 -15 CURVE SMOOTH",
"136 -14 OFFCURVE",
"81 -5 OFFCURVE",
"28 24 CURVE",
"24 38 LINE",
"43 160 LINE",
"88 160 LINE",
"76 58 OFFCURVE",
"86 39 OFFCURVE",
"209 36 CURVE SMOOTH",
"349 33 OFFCURVE",
"421 84 OFFCURVE",
"423 165 CURVE SMOOTH",
"425 254 OFFCURVE",
"336 288 OFFCURVE",
"234 320 CURVE SMOOTH",
"127 354 OFFCURVE",
"28 397 OFFCURVE",
"34 525 CURVE SMOOTH"
);
}
);
width = 508;
}
);
unicode = 0053;
},
{
color = 1;
glyphname = T;
lastChange = "2018-04-01 20:43:37 +0000";
layers = (
{
anchors = (
{
name = bottom;
position = "{290, 0}";
},
{
name = center;
position = "{290, 350}";
},
{
name = top;
position = "{290, 670}";
}
);
background = {
components = (
{
name = H;
transform = "{1, 0, 0, 1, -104, 0}";
}
);
};
guideLines = (
{
position = "{-77, 555}";
}
);
layerId = "1B5E7594-BD1E-41E1-80E1-0DE241437139";
paths = (
{
closed = 1;
nodes = (
"27 554 LINE",
"72 554 LINE",
"68 634 OFFCURVE",
"78 650 OFFCURVE",
"118 651 CURVE SMOOTH",
"251 654 LINE",
"254 641 OFFCURVE",
"254 624 OFFCURVE",
"254 610 CURVE SMOOTH",
"254 77 LINE SMOOTH",
"254 53 OFFCURVE",
"242 40 OFFCURVE",
"218 36 CURVE SMOOTH",
"170 28 LINE",
"170 -3 LINE",
"289 0 LINE",
"412 -3 LINE",
"412 28 LINE",
"358 37 LINE SMOOTH",
"334 41 OFFCURVE",
"321 53 OFFCURVE",
"321 77 CURVE SMOOTH",
"321 611 LINE SMOOTH",
"321 626 OFFCURVE",
"320 643 OFFCURVE",
"324 656 CURVE",
"453 653 LINE SMOOTH",
"502 652 OFFCURVE",
"512 633 OFFCURVE",
"507 554 CURVE",
"548 554 LINE",
"568 687 LINE",
"564 703 LINE",
"290 700 LINE",
"16 703 LINE",
"12 687 LINE"
);
}
);
width = 579;
},
{
anchors = (
{
name = bottom;
position = "{326, 0}";
},
{
name = center;
position = "{326, 353}";
},
{
name = top;
position = "{326, 655}";
}
);
background = {
components = (
{
name = H;
transform = "{1, 0, 0, 1, -67, 0}";
}
);
};
layerId = "5A1ECF60-5C3D-4C60-84B4-C69E600E0422";
paths = (
{
closed = 1;
nodes = (
"17 491 LINE",
"131 490 LINE",
"120 553 OFFCURVE",
"125 598 OFFCURVE",
"170 601 CURVE SMOOTH",
"215 604 LINE",
"215 590 OFFCURVE",
"216 577 OFFCURVE",
"216 559 CURVE SMOOTH",
"221 129 LINE",
"221 109 OFFCURVE",
"209 94 OFFCURVE",
"190 92 CURVE SMOOTH",
"123 85 LINE",
"123 -4 LINE",
"326 0 LINE",
"533 -4 LINE",
"533 85 LINE",
"454 92 LINE SMOOTH",
"438 93 OFFCURVE",
"429 108 OFFCURVE",
"429 126 CURVE SMOOTH",
"433 560 LINE SMOOTH",
"433 579 OFFCURVE",
"433 590 OFFCURVE",
"434 604 CURVE",
"483 602 LINE SMOOTH",
"520 600 OFFCURVE",
"534 561 OFFCURVE",
"521 490 CURVE",
"633 490 LINE",
"660 688 LINE",
"639 710 LINE",
"325 706 LINE",
"17 710 LINE",
"-9 688 LINE"
);
}
);
width = 651;
},
{
associatedMasterId = "1B5E7594-BD1E-41E1-80E1-0DE241437139";
background = {
components = (
{
name = H;
transform = "{1, 0, 0, 1, -111, 0}";
}
);
};
guideLines = (
{
position = "{-84, 555}";
}
);
layerId = "C5929904-11A4-4B27-886A-82A423437620";
name = "Mar 30 18, 20:24";
paths = (
{
closed = 1;
nodes = (
"9 704 LINE",
"283 700 LINE",
"557 704 LINE",
"561 688 LINE",
"541 555 LINE",
"500 555 LINE",
"505 634 OFFCURVE",
"495 653 OFFCURVE",
"446 654 CURVE SMOOTH",
"317 656 LINE",
"313 643 OFFCURVE",
"314 626 OFFCURVE",
"314 611 CURVE SMOOTH",
"314 77 LINE SMOOTH",
"314 53 OFFCURVE",
"327 41 OFFCURVE",
"351 37 CURVE SMOOTH",
"405 28 LINE",
"405 -3 LINE",
"282 0 LINE",
"163 -3 LINE",
"163 28 LINE",
"211 36 LINE SMOOTH",
"235 40 OFFCURVE",
"247 53 OFFCURVE",
"247 77 CURVE SMOOTH",
"247 610 LINE SMOOTH",
"247 624 OFFCURVE",
"247 641 OFFCURVE",
"244 654 CURVE",
"111 652 LINE SMOOTH",
"71 651 OFFCURVE",
"61 635 OFFCURVE",
"65 555 CURVE",
"20 555 LINE",
"5 688 LINE"
);
}
);
width = 565;
}
);
unicode = 0054;
},
{
color = 1;
glyphname = U;
lastChange = "2018-04-01 20:43:36 +0000";
layers = (
{
anchors = (
{
name = bottom;
position = "{354, 0}";
},
{
name = ogonek;
position = "{636, 10}";
},
{
name = top;
position = "{354, 670}";
},
{
name = topright;
position = "{687, 700}";
}
);
background = {
components = (
{
name = H;
transform = "{1, 0, 0, 1, -6, 0}";
}
);
};
guideLines = (
{
position = "{270, 664}";
}
);
layerId = "1B5E7594-BD1E-41E1-80E1-0DE241437139";
paths = (
{
closed = 1;
nodes = (
"51 704 LINE",
"152 700 LINE",
"269 704 LINE",
"269 671 LINE",
"224 666 LINE SMOOTH",
"200 663 OFFCURVE",
"186 644 OFFCURVE",
"186 620 CURVE SMOOTH",
"184 280 LINE SMOOTH",
"183 104 OFFCURVE",
"224 33 OFFCURVE",
"366 34 CURVE SMOOTH",
"473 35 OFFCURVE",
"536 100 OFFCURVE",
"536 253 CURVE SMOOTH",
"536 611 LINE SMOOTH",
"536 648 OFFCURVE",
"522 661 OFFCURVE",
"487 665 CURVE SMOOTH",
"440 671 LINE",
"440 704 LINE",
"561 700 LINE",
"668 704 LINE",
"668 671 LINE",
"634 667 LINE SMOOTH",
"601 663 OFFCURVE",
"591 649 OFFCURVE",
"591 612 CURVE SMOOTH",
"591 244 LINE SMOOTH",
"591 74 OFFCURVE",
"518 -15 OFFCURVE",
"341 -15 CURVE SMOOTH",
"178 -15 OFFCURVE",
"114 65 OFFCURVE",
"114 247 CURVE SMOOTH",
"115 622 LINE SMOOTH",
"115 647 OFFCURVE",
"107 664 OFFCURVE",
"83 667 CURVE SMOOTH",
"51 671 LINE"
);
}
);
width = 707;
},
{
anchors = (
{
name = bottom;
position = "{348, 0}";
},
{
name = ogonek;
position = "{626, 10}";
},
{
name = top;
position = "{348, 655}";
},
{
name = topright;
position = "{675, 706}";
}
);
background = {
components = (
{
name = H;
transform = "{1, 0, 0, 1, -24, 0}";
}
);
};
layerId = "5A1ECF60-5C3D-4C60-84B4-C69E600E0422";
paths = (
{
closed = 1;
nodes = (
"16 710 LINE",
"177 706 LINE",
"349 710 LINE",
"349 615 LINE",
"315 608 LINE SMOOTH",
"287 602 OFFCURVE",
"280 584 OFFCURVE",
"280 548 CURVE SMOOTH",
"278 267 LINE SMOOTH",
"277 180 OFFCURVE",
"312 133 OFFCURVE",
"388 133 CURVE SMOOTH",
"455 133 OFFCURVE",
"487 187 OFFCURVE",
"487 274 CURVE SMOOTH",
"487 552 LINE SMOOTH",
"487 586 OFFCURVE",
"469 608 OFFCURVE",
"433 611 CURVE SMOOTH",
"391 615 LINE",
"391 710 LINE",
"553 706 LINE",
"681 710 LINE",
"681 615 LINE",
"657 610 LINE SMOOTH",
"630 604 OFFCURVE",
"628 587 OFFCURVE",
"628 558 CURVE SMOOTH",
"628 285 LINE SMOOTH",
"628 117 OFFCURVE",
"565 -17 OFFCURVE",
"350 -17 CURVE SMOOTH",
"151 -17 OFFCURVE",
"67 71 OFFCURVE",
"68 278 CURVE SMOOTH",
"69 571 LINE SMOOTH",
"69 592 OFFCURVE",
"59 605 OFFCURVE",
"39 608 CURVE SMOOTH",
"16 612 LINE"
);
}
);
width = 695;
},
{
associatedMasterId = "1B5E7594-BD1E-41E1-80E1-0DE241437139";
background = {
components = (
{
name = H;
transform = "{1, 0, 0, 1, -55, 0}";
}
);
};
guideLines = (
{
position = "{221, 664}";
}
);
layerId = "0A94CDA9-CC55-45D0-A3CC-1475F0087483";
name = "Mar 30 18, 20:24";
paths = (
{
closed = 1;
nodes = (
"2 704 LINE",
"103 700 LINE",
"220 704 LINE",
"220 671 LINE",
"175 666 LINE SMOOTH",
"151 663 OFFCURVE",
"137 644 OFFCURVE",
"137 620 CURVE SMOOTH",
"135 285 LINE SMOOTH",
"134 115 OFFCURVE",
"180 49 OFFCURVE",
"312 49 CURVE SMOOTH",
"416 49 OFFCURVE",
"489 108 OFFCURVE",
"489 254 CURVE SMOOTH",
"489 611 LINE SMOOTH",
"489 648 OFFCURVE",
"475 661 OFFCURVE",
"440 665 CURVE SMOOTH",
"393 671 LINE",
"393 704 LINE",
"512 700 LINE",
"619 704 LINE",
"619 671 LINE",
"585 667 LINE SMOOTH",
"552 663 OFFCURVE",
"542 649 OFFCURVE",
"542 612 CURVE SMOOTH",
"542 245 LINE SMOOTH",
"542 75 OFFCURVE",
"469 -15 OFFCURVE",
"292 -15 CURVE SMOOTH",
"139 -15 OFFCURVE",
"65 66 OFFCURVE",
"65 248 CURVE SMOOTH",
"66 622 LINE SMOOTH",
"66 647 OFFCURVE",
"58 664 OFFCURVE",
"34 667 CURVE SMOOTH",
"2 671 LINE"
);
}
);
width = 614;
}
);
unicode = 0055;
},
{
color = 1;
glyphname = V;
lastChange = "2018-04-01 20:43:36 +0000";
layers = (
{
anchors = (
{
name = bottom;
position = "{316, 0}";
},
{
name = top;
position = "{316, 670}";
}
);
background = {
components = (
{
name = H;
transform = "{1, 0, 0, 1, -59, 0}";
}
);
};
layerId = "1B5E7594-BD1E-41E1-80E1-0DE241437139";
paths = (
{
closed = 1;
nodes = (
"40 667 LINE SMOOTH",
"65 664 OFFCURVE",
"76 650 OFFCURVE",
"85 623 CURVE SMOOTH",
"288 -10 LINE",
"310 -2 OFFCURVE",
"333 7 OFFCURVE",
"355 15 CURVE",
"547 615 LINE SMOOTH",
"554 636 OFFCURVE",
"564 658 OFFCURVE",
"586 661 CURVE SMOOTH",
"636 668 LINE",
"636 704 LINE",
"514 700 LINE",
"383 704 LINE",
"383 668 LINE",
"440 661 LINE SMOOTH",
"478 656 OFFCURVE",
"486 628 OFFCURVE",
"478 602 CURVE SMOOTH",
"328 87 LINE",
"319 87 LINE",
"163 611 LINE SMOOTH",
"155 637 OFFCURVE",
"162 664 OFFCURVE",
"191 667 CURVE SMOOTH",
"237 672 LINE",
"237 704 LINE",
"115 700 LINE",
"-6 704 LINE",
"-6 672 LINE"
);
}
);
width = 632;
},
{
associatedMasterId = "5A1ECF60-5C3D-4C60-84B4-C69E600E0422";
background = {
components = (
{
name = H;
transform = "{1, 0, 0, 1, -34, 0}";
}
);
};
backgroundImage = {
crop = "{{0, 0}, {522, 160}}";
imagePath = ../../../../Desktop/4727e6a4b0acdab98c17b3db3e0cf7.gif;
transform = "{4.27, 0, 0, 4.56, -21, -20}";
};
layerId = "D11E9D99-8DDC-41A2-BA45-536D8CD21B53";
name = "Mar 25 18, 18:43";
paths = (
{
closed = 1;
nodes = (
"3 607 LINE SMOOTH",
"22 600 OFFCURVE",
"31 593 OFFCURVE",
"38 573 CURVE SMOOTH",
"256 -12 LINE",
"319 -4 OFFCURVE",
"361 4 OFFCURVE",
"401 7 CURVE",
"613 567 LINE SMOOTH",
"620 586 OFFCURVE",
"625 599 OFFCURVE",
"644 606 CURVE SMOOTH",
"667 614 LINE",
"668 709 LINE",
"545 704 LINE",
"397 708 LINE",
"397 614 LINE",
"448 607 LINE SMOOTH",
"470 604 OFFCURVE",
"480 581 OFFCURVE",
"473 560 CURVE SMOOTH",
"378 277 LINE",
"360 277 LINE",
"277 564 LINE SMOOTH",
"271 586 OFFCURVE",
"282 600 OFFCURVE",
"304 606 CURVE SMOOTH",
"332 614 LINE",
"332 708 LINE",
"132 704 LINE",
"-15 708 LINE",
"-15 614 LINE"
);
}
);
width = 658;
},
{
anchors = (
{
name = bottom;
position = "{314, 0}";
},
{
name = top;
position = "{314, 655}";
}
);
background = {
components = (
{
name = H;
transform = "{1, 0, 0, 1, -61, 0}";
}
);
};
layerId = "5A1ECF60-5C3D-4C60-84B4-C69E600E0422";
paths = (
{
closed = 1;
nodes = (
"6 607 LINE SMOOTH",
"25 600 OFFCURVE",
"37 593 OFFCURVE",
"41 573 CURVE SMOOTH",
"169 -12 LINE",
"262 -4 OFFCURVE",
"374 6 OFFCURVE",
"444 7 CURVE",
"586 567 LINE SMOOTH",
"591 586 OFFCURVE",
"598 599 OFFCURVE",
"617 606 CURVE SMOOTH",
"640 614 LINE",
"641 709 LINE",
"518 704 LINE",
"370 708 LINE",
"370 614 LINE",
"404 607 LINE SMOOTH",
"426 602 OFFCURVE",
"433 581 OFFCURVE",
"429 560 CURVE SMOOTH",
"352 180 LINE",
"331 180 LINE",
"272 564 LINE SMOOTH",
"268 587 OFFCURVE",
"277 600 OFFCURVE",
"299 606 CURVE SMOOTH",
"327 614 LINE",
"327 708 LINE",
"135 704 LINE",
"-12 708 LINE",
"-12 614 LINE"
);
}
);
width = 627;
},
{
associatedMasterId = "1B5E7594-BD1E-41E1-80E1-0DE241437139";
background = {
components = (
{
name = W;
transform = "{1, 0, 0, 1, -13, 0}";
}
);
};
layerId = "064BAA9B-EC15-4389-A818-99A668A1592B";
name = "Mar 30 18, 20:24";
paths = (
{
closed = 1;
nodes = (
"41 667 LINE SMOOTH",
"66 664 OFFCURVE",
"78 650 OFFCURVE",
"86 623 CURVE SMOOTH",
"274 -10 LINE",
"296 -2 OFFCURVE",
"319 7 OFFCURVE",
"341 15 CURVE",
"528 615 LINE SMOOTH",
"534 636 OFFCURVE",
"545 658 OFFCURVE",
"567 661 CURVE SMOOTH",
"617 668 LINE",
"617 704 LINE",
"495 700 LINE",
"364 704 LINE",
"364 668 LINE",
"421 661 LINE SMOOTH",
"459 656 OFFCURVE",
"466 628 OFFCURVE",
"459 602 CURVE SMOOTH",
"313 82 LINE",
"304 82 LINE",
"170 611 LINE SMOOTH",
"163 637 OFFCURVE",
"169 664 OFFCURVE",
"198 667 CURVE SMOOTH",
"244 672 LINE",
"244 704 LINE",
"120 700 LINE",
"-5 704 LINE",
"-5 672 LINE"
);
}
);
width = 613;
}
);
leftKerningGroup = V;
rightKerningGroup = V;
unicode = 0056;
},
{
color = 1;
glyphname = W;
lastChange = "2018-04-11 18:20:01 +0000";
layers = (
{
anchors = (
{
name = bottom;
position = "{483, 0}";
},
{
name = top;
position = "{483, 670}";
}
);
background = {
components = (
{
name = V;
transform = "{1, 0, 0, 1, -3, 0}";
},
{
name = V;
transform = "{1, 0, 0, 1, 340, 0}";
}
);
};
layerId = "1B5E7594-BD1E-41E1-80E1-0DE241437139";
paths = (
{
closed = 1;
nodes = (
"42 665 LINE SMOOTH",
"65 662 OFFCURVE",
"76 646 OFFCURVE",
"83 623 CURVE SMOOTH",
"282 -10 LINE",
"304 -2 OFFCURVE",
"327 7 OFFCURVE",
"349 15 CURVE",
"485 434 LINE",
"626 -10 LINE",
"648 -2 OFFCURVE",
"671 7 OFFCURVE",
"693 15 CURVE",
"883 615 LINE SMOOTH",
"891 639 OFFCURVE",
"900 657 OFFCURVE",
"927 663 CURVE SMOOTH",
"969 672 LINE",
"969 704 LINE",
"859 700 LINE",
"716 704 LINE",
"716 672 LINE",
"772 664 LINE SMOOTH",
"809 659 OFFCURVE",
"825 632 OFFCURVE",
"816 602 CURVE SMOOTH",
"669 93 LINE",
"661 93 LINE",
"475 706 LINE",
"416 689 LINE",
"410 678 LINE",
"458 524 LINE",
"324 93 LINE",
"317 93 LINE",
"159 611 LINE SMOOTH",
"151 637 OFFCURVE",
"167 660 OFFCURVE",
"193 664 CURVE SMOOTH",
"247 672 LINE",
"247 704 LINE",
"117 700 LINE",
"-5 704 LINE",
"-5 672 LINE"
);
}
);
width = 965;
},
{
anchors = (
{
name = bottom;
position = "{487, 0}";
},
{
name = top;
position = "{487, 655}";
}
);
background = {
components = (
{
name = V;
transform = "{1, 0, 0, 1, 322, 0}";
},
{
name = V;
transform = "{1, 0, 0, 1, -31, 0}";
}
);
};
guideLines = (
{
position = "{885, 195}";
}
);
layerId = "5A1ECF60-5C3D-4C60-84B4-C69E600E0422";
paths = (
{
closed = 1;
nodes = (
"8 606 LINE SMOOTH",
"27 598 OFFCURVE",
"36 593 OFFCURVE",
"40 573 CURVE SMOOTH",
"170 -10 LINE",
"240 -1 OFFCURVE",
"349 6 OFFCURVE",
"419 6 CURVE",
"480 242 LINE",
"539 -10 LINE",
"609 -3 OFFCURVE",
"719 4 OFFCURVE",
"789 6 CURVE",
"928 566 LINE SMOOTH",
"933 585 OFFCURVE",
"943 594 OFFCURVE",
"960 602 CURVE SMOOTH",
"988 615 LINE",
"988 709 LINE",
"863 706 LINE",
"702 709 LINE",
"702 615 LINE",
"756 602 LINE SMOOTH",
"778 597 OFFCURVE",
"787 581 OFFCURVE",
"782 559 CURVE SMOOTH",
"697 181 LINE",
"679 181 LINE",
"600 713 LINE",
"384 690 LINE",
"366 666 LINE",
"408 459 LINE",
"343 181 LINE",
"323 181 LINE",
"262 564 LINE SMOOTH",
"258 587 OFFCURVE",
"267 601 OFFCURVE",
"289 606 CURVE SMOOTH",
"321 614 LINE",
"321 708 LINE",
"125 706 LINE",
"-11 708 LINE",
"-11 614 LINE"
);
}
);
width = 973;
},
{
associatedMasterId = "1B5E7594-BD1E-41E1-80E1-0DE241437139";
background = {
components = (
{
name = I;
transform = "{1, 0, 0, 1, 624, 0}";
}
);
};
layerId = "1BA8BBAA-7E4E-4A81-86C2-6B597D792EE8";
name = "Mar 30 18, 20:24";
paths = (
{
closed = 1;
nodes = (
"42 665 LINE SMOOTH",
"65 662 OFFCURVE",
"77 646 OFFCURVE",
"83 623 CURVE SMOOTH",
"244 -10 LINE",
"266 -2 OFFCURVE",
"289 7 OFFCURVE",
"311 15 CURVE",
"460 446 LINE",
"594 -10 LINE",
"616 -2 OFFCURVE",
"639 7 OFFCURVE",
"661 15 CURVE",
"821 615 LINE SMOOTH",
"827 639 OFFCURVE",
"838 657 OFFCURVE",
"865 663 CURVE SMOOTH",
"907 672 LINE",
"907 704 LINE",
"797 700 LINE",
"654 704 LINE",
"654 672 LINE",
"710 664 LINE SMOOTH",
"747 659 OFFCURVE",
"761 632 OFFCURVE",
"754 602 CURVE SMOOTH",
"637 93 LINE",
"629 93 LINE",
"457 706 LINE",
"398 690 LINE",
"392 679 LINE",
"434 532 LINE",
"289 93 LINE",
"282 93 LINE",
"159 611 LINE SMOOTH",
"153 637 OFFCURVE",
"167 660 OFFCURVE",
"193 664 CURVE SMOOTH",
"247 672 LINE",
"247 704 LINE",
"117 700 LINE",
"-5 704 LINE",
"-5 672 LINE"
);
}
);
width = 902;
}
);
unicode = 0057;
},
{
color = 1;
glyphname = X;
lastChange = "2018-04-01 20:43:37 +0000";
layers = (
{
anchors = (
{
name = bottom;
position = "{340, 0}";
},
{
name = top;
position = "{340, 670}";
}
);
background = {
paths = (
{
closed = 1;
nodes = (
"122 118 OFFCURVE",
"78 67 OFFCURVE",
"18 49 CURVE",
"11 4 LINE",
"15 -4 LINE",
"26 -3 OFFCURVE",
"38 -3 OFFCURVE",
"50 -1 CURVE SMOOTH",
"71 2 OFFCURVE",
"95 1 OFFCURVE",
"116 1 CURVE SMOOTH",
"135 1 OFFCURVE",
"163 0 OFFCURVE",
"186 -4 CURVE",
"199 -5 OFFCURVE",
"214 -6 OFFCURVE",
"228 -7 CURVE",
"235 40 LINE",
"233 44 LINE",
"193 48 OFFCURVE",
"174 59 OFFCURVE",
"174 77 CURVE SMOOTH",
"174 87 OFFCURVE",
"178 99 OFFCURVE",
"185 112 CURVE SMOOTH",
"192 125 OFFCURVE",
"206 146 OFFCURVE",
"226 175 CURVE SMOOTH",
"320 308 LINE",
"431 129 LINE SMOOTH",
"444 108 OFFCURVE",
"451 94 OFFCURVE",
"451 81 CURVE SMOOTH",
"451 69 OFFCURVE",
"445 59 OFFCURVE",
"432 53 CURVE SMOOTH",
"419 47 OFFCURVE",
"399 43 OFFCURVE",
"372 42 CURVE",
"368 0 LINE",
"371 -8 LINE",
"390 -7 OFFCURVE",
"408 -5 OFFCURVE",
"428 -4 CURVE",
"460 0 OFFCURVE",
"500 1 OFFCURVE",
"529 1 CURVE SMOOTH",
"552 1 OFFCURVE",
"584 1 OFFCURVE",
"609 -1 CURVE SMOOTH",
"625 -2 OFFCURVE",
"640 -3 OFFCURVE",
"655 -3 CURVE",
"662 44 LINE",
"660 49 LINE",
"596 54 OFFCURVE",
"557 83 OFFCURVE",
"521 140 CURVE SMOOTH",
"372 373 LINE",
"495 540 LINE SMOOTH",
"523 578 OFFCURVE",
"542 602 OFFCURVE",
"562 620 CURVE SMOOTH",
"582 638 OFFCURVE",
"602 646 OFFCURVE",
"634 654 CURVE",
"640 694 LINE",
"636 702 LINE",
"625 701 OFFCURVE",
"612 701 OFFCURVE",
"601 700 CURVE",
"582 699 OFFCURVE",
"556 697 OFFCURVE",
"537 697 CURVE SMOOTH",
"518 697 OFFCURVE",
"490 697 OFFCURVE",
"467 701 CURVE",
"453 702 OFFCURVE",
"439 704 OFFCURVE",
"425 705 CURVE",
"419 662 LINE",
"421 658 LINE",
"442 656 OFFCURVE",
"457 653 OFFCURVE",
"467 648 CURVE",
"476 643 OFFCURVE",
"480 635 OFFCURVE",
"480 625 CURVE SMOOTH",
"480 618 OFFCURVE",
"475 606 OFFCURVE",
"466 589 CURVE SMOOTH",
"448 555 OFFCURVE",
"418 514 OFFCURVE",
"387 471 CURVE SMOOTH",
"371 449 OFFCURVE",
"357 429 OFFCURVE",
"346 413 CURVE",
"312 469 OFFCURVE",
"284 516 OFFCURVE",
"263 553 CURVE SMOOTH",
"242 590 OFFCURVE",
"231 612 OFFCURVE",
"231 621 CURVE SMOOTH",
"231 633 OFFCURVE",
"237 643 OFFCURVE",
"249 648 CURVE SMOOTH",
"262 654 OFFCURVE",
"282 658 OFFCURVE",
"310 660 CURVE",
"314 699 LINE",
"310 706 LINE",
"299 705 OFFCURVE",
"286 703 OFFCURVE",
"272 702 CURVE",
"247 699 OFFCURVE",
"213 697 OFFCURVE",
"173 697 CURVE SMOOTH",
"162 697 OFFCURVE",
"147 697 OFFCURVE",
"131 697 CURVE SMOOTH",
"114 697 OFFCURVE",
"97 697 OFFCURVE",
"82 699 CURVE SMOOTH",
"65 701 OFFCURVE",
"45 700 OFFCURVE",
"26 701 CURVE",
"20 658 LINE",
"22 654 LINE",
"84 645 OFFCURVE",
"129 616 OFFCURVE",
"162 563 CURVE SMOOTH",
"295 349 LINE",
"183 200 LINE SMOOTH"
);
}
);
};
guideLines = (
{
angle = 58;
position = "{362, 414}";
}
);
layerId = "1B5E7594-BD1E-41E1-80E1-0DE241437139";
paths = (
{
closed = 1;
nodes = (
"358 339 LINE",
"559 622 LINE SMOOTH",
"578 649 OFFCURVE",
"591 660 OFFCURVE",
"614 664 CURVE SMOOTH",
"653 671 LINE",
"653 704 LINE",
"539 700 LINE",
"418 704 LINE",
"418 674 LINE",
"463 668 LINE SMOOTH",
"498 663 OFFCURVE",
"514 648 OFFCURVE",
"484 604 CURVE SMOOTH",
"335 387 LINE"
);
},
{
closed = 1;
nodes = (
"66 662 LINE SMOOTH",
"94 660 OFFCURVE",
"109 651 OFFCURVE",
"123 629 CURVE SMOOTH",
"297 350 LINE",
"317 330 LINE",
"475 81 LINE SMOOTH",
"491 56 OFFCURVE",
"480 35 OFFCURVE",
"451 30 CURVE SMOOTH",
"427 26 LINE",
"427 -4 LINE",
"541 0 LINE",
"667 -4 LINE",
"667 30 LINE",
"607 35 LINE SMOOTH",
"587 37 OFFCURVE",
"575 48 OFFCURVE",
"563 66 CURVE SMOOTH",
"368 364 LINE",
"353 379 LINE",
"215 611 LINE SMOOTH",
"196 643 OFFCURVE",
"196 659 OFFCURVE",
"233 666 CURVE SMOOTH",
"272 673 LINE",
"272 704 LINE",
"144 700 LINE",
"29 704 LINE",
"29 665 LINE"
);
},
{
closed = 1;
nodes = (
"304 359 LINE",
"106 78 LINE SMOOTH",
"90 56 OFFCURVE",
"75 44 OFFCURVE",
"60 40 CURVE SMOOTH",
"13 27 LINE",
"13 -4 LINE",
"110 0 LINE",
"243 -4 LINE",
"243 28 LINE",
"194 38 LINE SMOOTH",
"166 44 OFFCURVE",
"161 67 OFFCURVE",
"177 90 CURVE SMOOTH",
"334 321 LINE"
);
}
);
width = 679;
},
{
anchors = (
{
name = bottom;
position = "{361, 0}";
},
{
name = top;
position = "{361, 655}";
}
);
background = {
components = (
{
name = H;
transform = "{1, 0, 0, 1, -13, 0}";
}
);
};
layerId = "5A1ECF60-5C3D-4C60-84B4-C69E600E0422";
paths = (
{
closed = 1;
nodes = (
"425 285 LINE",
"635 572 LINE SMOOTH",
"645 586 OFFCURVE",
"664 599 OFFCURVE",
"682 604 CURVE SMOOTH",
"713 613 LINE",
"713 710 LINE",
"572 706 LINE",
"430 710 LINE",
"430 615 LINE",
"456 610 LINE SMOOTH",
"480 605 OFFCURVE",
"490 582 OFFCURVE",
"477 561 CURVE SMOOTH",
"330 334 LINE"
);
},
{
closed = 1;
nodes = (
"32 611 LINE SMOOTH",
"62 607 OFFCURVE",
"84 587 OFFCURVE",
"98 565 CURVE SMOOTH",
"281 274 LINE",
"312 283 LINE",
"400 137 LINE SMOOTH",
"413 115 OFFCURVE",
"406 96 OFFCURVE",
"382 91 CURVE SMOOTH",
"354 85 LINE",
"354 -3 LINE",
"545 0 LINE",
"720 -3 LINE",
"720 85 LINE",
"693 90 LINE SMOOTH",
"663 96 OFFCURVE",
"643 114 OFFCURVE",
"629 137 CURVE SMOOTH",
"456 408 LINE",
"413 427 LINE",
"335 564 LINE SMOOTH",
"323 586 OFFCURVE",
"329 605 OFFCURVE",
"354 610 CURVE SMOOTH",
"386 616 LINE",
"386 710 LINE",
"190 706 LINE",
"10 710 LINE",
"10 614 LINE"
);
},
{
closed = 1;
nodes = (
"304 451 LINE",
"89 125 LINE SMOOTH",
"80 111 OFFCURVE",
"67 103 OFFCURVE",
"51 99 CURVE SMOOTH",
"0 85 LINE",
"0 -3 LINE",
"137 0 LINE",
"312 -3 LINE",
"312 85 LINE",
"273 94 LINE SMOOTH",
"249 100 OFFCURVE",
"242 117 OFFCURVE",
"256 140 CURVE SMOOTH",
"379 342 LINE"
);
}
);
width = 721;
},
{
associatedMasterId = "1B5E7594-BD1E-41E1-80E1-0DE241437139";
background = {
components = (
{
name = I;
transform = "{1, 0, 0, 1, -22, 0}";
}
);
};
layerId = "60EF86C4-48F6-4F44-A339-852B058069A3";
name = "Mar 30 18, 20:24";
paths = (
{
closed = 1;
nodes = (
"350 331 LINE",
"540 622 LINE SMOOTH",
"558 650 OFFCURVE",
"572 660 OFFCURVE",
"595 664 CURVE SMOOTH",
"634 671 LINE",
"634 704 LINE",
"520 700 LINE",
"401 704 LINE",
"401 674 LINE",
"446 668 LINE SMOOTH",
"481 663 OFFCURVE",
"495 650 OFFCURVE",
"467 604 CURVE SMOOTH",
"322 360 LINE"
);
},
{
closed = 1;
nodes = (
"57 662 LINE SMOOTH",
"85 660 OFFCURVE",
"101 651 OFFCURVE",
"114 629 CURVE SMOOTH",
"286 350 LINE",
"304 330 LINE",
"444 81 LINE SMOOTH",
"458 56 OFFCURVE",
"449 35 OFFCURVE",
"420 30 CURVE SMOOTH",
"396 26 LINE",
"396 -4 LINE",
"513 0 LINE",
"639 -4 LINE",
"639 30 LINE",
"579 35 LINE SMOOTH",
"559 37 OFFCURVE",
"546 48 OFFCURVE",
"535 66 CURVE SMOOTH",
"359 360 LINE",
"346 376 LINE",
"211 611 LINE SMOOTH",
"192 643 OFFCURVE",
"192 659 OFFCURVE",
"229 666 CURVE SMOOTH",
"268 673 LINE",
"268 704 LINE",
"135 700 LINE",
"20 704 LINE",
"20 665 LINE"
);
},
{
closed = 1;
nodes = (
"301 379 LINE",
"113 78 LINE SMOOTH",
"98 55 OFFCURVE",
"82 43 OFFCURVE",
"67 40 CURVE SMOOTH",
"0 27 LINE",
"0 -4 LINE",
"117 0 LINE",
"250 -4 LINE",
"250 28 LINE",
"201 38 LINE SMOOTH",
"173 44 OFFCURVE",
"170 65 OFFCURVE",
"184 90 CURVE SMOOTH",
"329 350 LINE"
);
}
);
width = 641;
}
);
unicode = 0058;
},
{
color = 1;
glyphname = Y;
lastChange = "2018-04-01 20:43:37 +0000";
layers = (
{
anchors = (
{
name = bottom;
position = "{282, 0}";
},
{
name = top;
position = "{282, 670}";
},
{
name = topleft;
position = "{20, 700}";
}
);
background = {
components = (
{
name = I;
transform = "{1, 0, 0, 1, 120, 0}";
}
);
};
layerId = "1B5E7594-BD1E-41E1-80E1-0DE241437139";
paths = (
{
closed = 1;
nodes = (
"26 664 LINE SMOOTH",
"47 663 OFFCURVE",
"59 650 OFFCURVE",
"68 631 CURVE SMOOTH",
"245 242 LINE",
"245 80 LINE SMOOTH",
"245 52 OFFCURVE",
"232 41 OFFCURVE",
"208 37 CURVE SMOOTH",
"147 27 LINE",
"147 -4 LINE",
"277 0 LINE",
"415 -4 LINE",
"415 27 LINE",
"349 37 LINE SMOOTH",
"325 41 OFFCURVE",
"312 51 OFFCURVE",
"312 79 CURVE SMOOTH",
"312 253 LINE",
"486 623 LINE SMOOTH",
"496 644 OFFCURVE",
"506 656 OFFCURVE",
"528 661 CURVE SMOOTH",
"570 670 LINE",
"570 704 LINE",
"462 700 LINE",
"335 703 LINE",
"335 669 LINE",
"399 662 LINE SMOOTH",
"431 659 OFFCURVE",
"436 641 OFFCURVE",
"425 616 CURVE SMOOTH",
"292 310 LINE",
"157 618 LINE SMOOTH",
"146 644 OFFCURVE",
"155 665 OFFCURVE",
"183 667 CURVE SMOOTH",
"234 670 LINE",
"234 703 LINE",
"93 700 LINE",
"-4 703 LINE",
"-4 666 LINE"
);
}
);
width = 564;
},
{
anchors = (
{
name = bottom;
position = "{291, 0}";
},
{
name = top;
position = "{291, 655}";
},
{
name = topleft;
position = "{20, 706}";
}
);
background = {
components = (
{
name = H;
transform = "{1, 0, 0, 1, -70, 0}";
}
);
};
layerId = "5A1ECF60-5C3D-4C60-84B4-C69E600E0422";
paths = (
{
closed = 1;
nodes = (
"1 610 LINE SMOOTH",
"19 606 OFFCURVE",
"27 595 OFFCURVE",
"34 579 CURVE SMOOTH",
"181 260 LINE",
"181 150 LINE SMOOTH",
"181 124 OFFCURVE",
"173 104 OFFCURVE",
"146 99 CURVE SMOOTH",
"94 90 LINE",
"94 -3 LINE",
"282 0 LINE",
"471 -3 LINE",
"471 90 LINE",
"426 96 LINE SMOOTH",
"400 99 OFFCURVE",
"392 122 OFFCURVE",
"392 148 CURVE SMOOTH",
"392 263 LINE",
"542 567 LINE SMOOTH",
"552 588 OFFCURVE",
"559 602 OFFCURVE",
"580 608 CURVE SMOOTH",
"602 614 LINE",
"602 710 LINE",
"478 706 LINE",
"345 710 LINE",
"345 616 LINE",
"383 607 LINE SMOOTH",
"406 602 OFFCURVE",
"410 583 OFFCURVE",
"400 561 CURVE SMOOTH",
"323 388 LINE",
"255 565 LINE SMOOTH",
"246 589 OFFCURVE",
"255 606 OFFCURVE",
"278 610 CURVE SMOOTH",
"309 616 LINE",
"309 710 LINE",
"130 706 LINE",
"-19 710 LINE",
"-19 614 LINE"
);
}
);
width = 582;
},
{
associatedMasterId = "1B5E7594-BD1E-41E1-80E1-0DE241437139";
background = {
components = (
{
name = I;
transform = "{1, 0, 0, 1, 158, 0}";
}
);
};
layerId = "D0DCB068-EADD-442C-A995-67A1BBE596E9";
name = "Mar 25 18, 19:22";
paths = (
{
closed = 1;
nodes = (
"64 664 LINE SMOOTH",
"85 663 OFFCURVE",
"97 650 OFFCURVE",
"106 631 CURVE SMOOTH",
"282 242 LINE",
"282 80 LINE SMOOTH",
"282 52 OFFCURVE",
"269 41 OFFCURVE",
"245 37 CURVE SMOOTH",
"184 27 LINE",
"184 -4 LINE",
"315 0 LINE",
"453 -4 LINE",
"453 27 LINE",
"387 37 LINE SMOOTH",
"363 41 OFFCURVE",
"350 51 OFFCURVE",
"350 79 CURVE SMOOTH",
"350 253 LINE",
"524 623 LINE SMOOTH",
"534 644 OFFCURVE",
"544 656 OFFCURVE",
"566 661 CURVE SMOOTH",
"608 670 LINE",
"608 704 LINE",
"500 700 LINE",
"373 703 LINE",
"373 669 LINE",
"437 662 LINE SMOOTH",
"469 659 OFFCURVE",
"474 641 OFFCURVE",
"463 616 CURVE SMOOTH",
"330 310 LINE",
"195 618 LINE SMOOTH",
"184 644 OFFCURVE",
"193 665 OFFCURVE",
"221 667 CURVE SMOOTH",
"272 670 LINE",
"272 703 LINE",
"131 700 LINE",
"34 703 LINE",
"34 666 LINE"
);
}
);
width = 641;
},
{
associatedMasterId = "1B5E7594-BD1E-41E1-80E1-0DE241437139";
background = {
components = (
{
name = I;
transform = "{1, 0, 0, 1, 120, 0}";
}
);
};
layerId = "3FC52F69-A015-42E6-A58C-8FEA9CA80B5F";
name = "Mar 30 18, 20:24";
paths = (
{
closed = 1;
nodes = (
"26 664 LINE SMOOTH",
"47 663 OFFCURVE",
"59 650 OFFCURVE",
"68 631 CURVE SMOOTH",
"245 242 LINE",
"245 80 LINE SMOOTH",
"245 52 OFFCURVE",
"232 41 OFFCURVE",
"208 37 CURVE SMOOTH",
"147 27 LINE",
"147 -4 LINE",
"277 0 LINE",
"415 -4 LINE",
"415 27 LINE",
"349 37 LINE SMOOTH",
"325 41 OFFCURVE",
"312 51 OFFCURVE",
"312 79 CURVE SMOOTH",
"312 253 LINE",
"486 623 LINE SMOOTH",
"496 644 OFFCURVE",
"506 656 OFFCURVE",
"528 661 CURVE SMOOTH",
"570 670 LINE",
"570 704 LINE",
"462 700 LINE",
"335 703 LINE",
"335 669 LINE",
"399 662 LINE SMOOTH",
"431 659 OFFCURVE",
"436 641 OFFCURVE",
"425 616 CURVE SMOOTH",
"292 310 LINE",
"157 618 LINE SMOOTH",
"146 644 OFFCURVE",
"155 665 OFFCURVE",
"183 667 CURVE SMOOTH",
"234 670 LINE",
"234 703 LINE",
"93 700 LINE",
"-4 703 LINE",
"-4 666 LINE"
);
}
);
width = 566;
}
);
unicode = 0059;
},
{
color = 1;
glyphname = Z;
lastChange = "2018-04-01 20:43:37 +0000";
layers = (
{
anchors = (
{
name = bottom;
position = "{289, 0}";
},
{
name = top;
position = "{289, 670}";
}
);
guideLines = (
{
position = "{-54, 545}";
}
);
layerId = "1B5E7594-BD1E-41E1-80E1-0DE241437139";
paths = (
{
closed = 1;
nodes = (
"516 -1 LINE",
"534 24 LINE",
"510 160 LINE",
"471 160 LINE",
"475 80 OFFCURVE",
"465 46 OFFCURVE",
"419 46 CURVE SMOOTH",
"128 44 LINE",
"191 140 LINE",
"532 671 LINE",
"518 696 LINE",
"75 701 LINE",
"58 683 LINE",
"73 546 LINE",
"113 546 LINE",
"109 621 OFFCURVE",
"122 649 OFFCURVE",
"165 649 CURVE SMOOTH",
"444 652 LINE",
"383 564 LINE",
"38 31 LINE",
"50 6 LINE"
);
}
);
width = 577;
},
{
anchors = (
{
name = bottom;
position = "{313, 0}";
},
{
name = top;
position = "{313, 655}";
}
);
layerId = "5A1ECF60-5C3D-4C60-84B4-C69E600E0422";
paths = (
{
closed = 1;
nodes = (
"578 -4 LINE",
"598 28 LINE",
"563 270 LINE",
"447 271 LINE",
"457 138 OFFCURVE",
"421 108 OFFCURVE",
"375 107 CURVE SMOOTH",
"254 104 LINE",
"311 170 LINE",
"608 628 LINE",
"573 706 LINE",
"58 708 LINE",
"41 689 LINE",
"65 428 LINE",
"182 428 LINE",
"182 566 OFFCURVE",
"210 589 OFFCURVE",
"269 590 CURVE SMOOTH",
"368 592 LINE",
"313 530 LINE",
"15 82 LINE",
"48 -3 LINE"
);
}
);
width = 626;
}
);
unicode = 005A;
},
{
color = 1;
glyphname = a;
lastChange = "2018-04-11 18:22:57 +0000";
layers = (
{
anchors = (
{
name = bottom;
position = "{275, 0}";
},
{
name = ogonek;
position = "{495, 10}";
},
{
name = top;
position = "{275, 506}";
}
);
background = {
components = (
{
name = R;
transform = "{1, 0, 0, 1, -154, 0}";
}
);
};
guideLines = (
{
position = "{603, 519}";
},
{
position = "{-568, 515}";
}
);
layerId = "5A1ECF60-5C3D-4C60-84B4-C69E600E0422";
paths = (
{
closed = 1;
nodes = (
"374 237 LINE",
"262 214 LINE SMOOTH",
"193 200 OFFCURVE",
"190 123 OFFCURVE",
"232 115 CURVE SMOOTH",
"280 106 OFFCURVE",
"318 145 OFFCURVE",
"352 185 CURVE",
"345 137 LINE",
"332 107 OFFCURVE",
"277 -16 OFFCURVE",
"170 -16 CURVE SMOOTH",
"81 -16 OFFCURVE",
"8 30 OFFCURVE",
"10 131 CURVE SMOOTH",
"12 233 OFFCURVE",
"60 270 OFFCURVE",
"201 288 CURVE SMOOTH",
"361 309 LINE"
);
},
{
closed = 1;
nodes = (
"58 487 LINE",
"145 505 OFFCURVE",
"203 519 OFFCURVE",
"301 519 CURVE SMOOTH",
"433 519 OFFCURVE",
"492 463 OFFCURVE",
"482 337 CURVE SMOOTH",
"468 156 LINE SMOOTH",
"466 132 OFFCURVE",
"480 121 OFFCURVE",
"504 126 CURVE SMOOTH",
"542 134 LINE",
"560 105 LINE",
"512 0 LINE",
"331 -46 OFFCURVE",
"276 39 OFFCURVE",
"277 111 CURVE SMOOTH",
"279 261 LINE SMOOTH",
"280 316 OFFCURVE",
"284 361 OFFCURVE",
"261 372 CURVE SMOOTH",
"238 383 OFFCURVE",
"199 380 OFFCURVE",
"113 335 CURVE",
"82 355 LINE"
);
}
);
width = 550;
},
{
anchors = (
{
name = bottom;
position = "{252, 0}";
},
{
name = ogonek;
position = "{452, 10}";
},
{
name = top;
position = "{252, 500}";
}
);
background = {
components = (
{
name = e;
transform = "{-1, 0, 0, -1, 531, 498}";
}
);
};
guideLines = (
{
position = "{999, 64}";
},
{
position = "{-362, 473}";
},
{
position = "{804, 507}";
}
);
layerId = "1B5E7594-BD1E-41E1-80E1-0DE241437139";
paths = (
{
closed = 1;
nodes = (
"358 276 LINE",
"214 234 LINE SMOOTH",
"84 197 OFFCURVE",
"93 44 OFFCURVE",
"181 44 CURVE SMOOTH",
"248 44 OFFCURVE",
"313 83 OFFCURVE",
"359 113 CURVE",
"356 81 LINE",
"338 64 OFFCURVE",
"268 -9 OFFCURVE",
"173 -9 CURVE SMOOTH",
"90 -9 OFFCURVE",
"44 33 OFFCURVE",
"44 122 CURVE SMOOTH",
"44 222 OFFCURVE",
"145 263 OFFCURVE",
"269 295 CURVE SMOOTH",
"366 320 LINE"
);
},
{
closed = 1;
nodes = (
"79 471 LINE",
"140 496 OFFCURVE",
"206 508 OFFCURVE",
"258 508 CURVE SMOOTH",
"328 508 OFFCURVE",
"405 467 OFFCURVE",
"401 342 CURVE SMOOTH",
"393 94 LINE SMOOTH",
"392 66 OFFCURVE",
"385 32 OFFCURVE",
"420 46 CURVE SMOOTH",
"476 68 LINE",
"486 47 LINE",
"461 3 LINE",
"350 -37 OFFCURVE",
"327 39 OFFCURVE",
"327 108 CURVE SMOOTH",
"328 365 LINE SMOOTH",
"328 398 OFFCURVE",
"319 444 OFFCURVE",
"276 456 CURVE SMOOTH",
"233 468 OFFCURVE",
"178 448 OFFCURVE",
"101 407 CURVE",
"89 412 LINE"
);
}
);
width = 505;
},
{
anchors = (
{
name = bottom;
position = "{251, 0}";
},
{
name = ogonek;
position = "{451, 10}";
},
{
name = top;
position = "{251, 500}";
}
);
associatedMasterId = "1B5E7594-BD1E-41E1-80E1-0DE241437139";
background = {
components = (
{
name = n;
transform = "{-1, 0, 0, -1, 506, 500}";
}
);
};
guideLines = (
{
position = "{998, 64}";
},
{
position = "{-363, 473}";
},
{
position = "{803, 507}";
}
);
layerId = "F53817B5-4088-4918-B9FE-7E9B6D1A83BA";
name = "Apr 11 18, 18:22";
paths = (
{
closed = 1;
nodes = (
"357 276 LINE",
"213 234 LINE SMOOTH",
"83 197 OFFCURVE",
"92 44 OFFCURVE",
"180 44 CURVE SMOOTH",
"247 44 OFFCURVE",
"312 83 OFFCURVE",
"358 113 CURVE",
"355 81 LINE",
"337 64 OFFCURVE",
"267 -9 OFFCURVE",
"172 -9 CURVE SMOOTH",
"89 -9 OFFCURVE",
"43 33 OFFCURVE",
"43 122 CURVE SMOOTH",
"43 222 OFFCURVE",
"144 263 OFFCURVE",
"268 295 CURVE SMOOTH",
"365 320 LINE"
);
},
{
closed = 1;
nodes = (
"76 482 LINE",
"137 496 OFFCURVE",
"194 505 OFFCURVE",
"246 505 CURVE SMOOTH",
"338 505 OFFCURVE",
"399 467 OFFCURVE",
"395 342 CURVE SMOOTH",
"387 94 LINE SMOOTH",
"386 66 OFFCURVE",
"384 32 OFFCURVE",
"419 46 CURVE SMOOTH",
"475 68 LINE",
"485 47 LINE",
"460 3 LINE",
"349 -37 OFFCURVE",
"326 39 OFFCURVE",
"326 108 CURVE SMOOTH",
"327 365 LINE SMOOTH",
"327 398 OFFCURVE",
"313 435 OFFCURVE",
"290 448 CURVE SMOOTH",
"253 469 OFFCURVE",
"192 458 OFFCURVE",
"99 417 CURVE",
"87 422 LINE"
);
}
);
width = 501;
}
);
unicode = 0061;
},
{
glyphname = ae;
lastChange = "2018-04-01 18:48:09 +0000";
layers = (
{
anchors = (
{
name = bottom;
position = "{251, 0}";
},
{
name = ogonek;
position = "{451, 10}";
},
{
name = top;
position = "{251, 500}";
}
);
components = (
{
name = e;
transform = "{1, 0, 0, 1, 265, 0}";
}
);
layerId = "1B5E7594-BD1E-41E1-80E1-0DE241437139";
paths = (
{
closed = 1;
nodes = (
"268 295 LINE SMOOTH",
"144 263 OFFCURVE",
"43 222 OFFCURVE",
"43 122 CURVE SMOOTH",
"43 33 OFFCURVE",
"89 -9 OFFCURVE",
"172 -9 CURVE SMOOTH",
"267 -9 OFFCURVE",
"374 68 OFFCURVE",
"392 85 CURVE",
"358 115 LINE",
"314 82 OFFCURVE",
"247 44 OFFCURVE",
"180 44 CURVE SMOOTH",
"92 44 OFFCURVE",
"83 197 OFFCURVE",
"213 234 CURVE SMOOTH",
"357 276 LINE",
"365 320 LINE"
);
},
{
closed = 1;
nodes = (
"99 417 LINE",
"192 458 OFFCURVE",
"253 469 OFFCURVE",
"290 448 CURVE SMOOTH",
"313 435 OFFCURVE",
"327 398 OFFCURVE",
"327 365 CURVE SMOOTH",
"328 198 LINE",
"387 94 LINE",
"395 342 LINE SMOOTH",
"399 467 OFFCURVE",
"338 505 OFFCURVE",
"246 505 CURVE SMOOTH",
"194 505 OFFCURVE",
"137 496 OFFCURVE",
"76 482 CURVE",
"87 422 LINE"
);
}
);
width = 501;
},
{
anchors = (
{
name = bottom;
position = "{275, 0}";
},
{
name = ogonek;
position = "{495, 10}";
},
{
name = top;
position = "{275, 506}";
}
);
components = (
{
alignment = -1;
name = e;
transform = "{1, 0, 0, 1, 271, 0}";
}
);
layerId = "5A1ECF60-5C3D-4C60-84B4-C69E600E0422";
paths = (
{
closed = 1;
nodes = (
"201 288 LINE SMOOTH",
"60 270 OFFCURVE",
"12 233 OFFCURVE",
"10 131 CURVE SMOOTH",
"8 30 OFFCURVE",
"81 -16 OFFCURVE",
"170 -16 CURVE SMOOTH",
"317 -16 OFFCURVE",
"414 82 OFFCURVE",
"427 112 CURVE",
"352 185 LINE",
"318 145 OFFCURVE",
"280 106 OFFCURVE",
"232 115 CURVE SMOOTH",
"190 123 OFFCURVE",
"193 200 OFFCURVE",
"262 214 CURVE SMOOTH",
"374 237 LINE",
"361 309 LINE"
);
},
{
closed = 1;
nodes = (
"113 335 LINE",
"199 380 OFFCURVE",
"238 383 OFFCURVE",
"261 372 CURVE SMOOTH",
"284 361 OFFCURVE",
"288 316 OFFCURVE",
"289 261 CURVE SMOOTH",
"291 111 LINE",
"468 156 LINE",
"478 288 LINE SMOOTH",
"482 344 OFFCURVE",
"433 519 OFFCURVE",
"301 519 CURVE SMOOTH",
"203 519 OFFCURVE",
"145 505 OFFCURVE",
"58 487 CURVE",
"82 355 LINE"
);
}
);
width = 1079;
}
);
unicode = 00E6;
},
{
color = 1;
glyphname = b;
lastChange = "2018-04-11 18:22:57 +0000";
layers = (
{
anchors = (
{
name = bottom;
position = "{296, 0}";
},
{
name = top;
position = "{296, 806}";
}
);
background = {
components = (
{
name = o;
transform = "{1, 0, 0, 1, 1, 0}";
}
);
};
components = (
{
name = _part_bowl;
transform = "{1, 0, 0, 1, 15, 0}";
}
);
guideLines = (
{
position = "{860, 512}";
},
{
position = "{594, 519}";
}
);
layerId = "5A1ECF60-5C3D-4C60-84B4-C69E600E0422";
paths = (
{
closed = 1;
nodes = (
"252 132 LINE SMOOTH",
"252 68 OFFCURVE",
"168 -11 OFFCURVE",
"106 -19 CURVE",
"26 23 LINE",
"26 49 LINE",
"58 101 OFFCURVE",
"61 125 OFFCURVE",
"61 209 CURVE SMOOTH",
"62 648 LINE SMOOTH",
"62 674 OFFCURVE",
"50 692 OFFCURVE",
"27 694 CURVE SMOOTH",
"0 696 LINE",
"0 785 LINE",
"76 789 OFFCURVE",
"159 798 OFFCURVE",
"239 813 CURVE",
"257 797 LINE"
);
}
);
width = 591;
},
{
associatedMasterId = "5A1ECF60-5C3D-4C60-84B4-C69E600E0422";
background = {
components = (
{
name = l;
transform = "{1, 0, 0, 1, -7, 0}";
}
);
};
components = (
{
name = _part_bowl;
piece = {
"d,q" = 1;
};
transform = "{1, 0, 0, 1, 19, 0}";
}
);
guideLines = (
{
position = "{868, 512}";
}
);
layerId = "5D8F6F35-3986-4236-B2A1-A726FE419699";
name = "Jan 1 18, 16:26";
paths = (
{
closed = 1;
nodes = (
"261 85 LINE",
"234 75 LINE",
"200 0 LINE",
"63 0 LINE",
"64 648 LINE SMOOTH",
"64 674 OFFCURVE",
"51 692 OFFCURVE",
"24 694 CURVE SMOOTH",
"2 696 LINE",
"2 785 LINE",
"78 789 OFFCURVE",
"163 798 OFFCURVE",
"243 813 CURVE",
"261 797 LINE"
);
}
);
width = 585;
},
{
anchors = (
{
name = bottom;
position = "{284, 0}";
},
{
name = top;
position = "{284, 800}";
}
);
background = {
components = (
{
name = p;
transform = "{1, 0, 0, 1, -26, 0}";
}
);
};
components = (
{
name = _part_bowl;
transform = "{1, 0, 0, 1, 86, 0}";
}
);
guideLines = (
{
position = "{30, 445}";
}
);
layerId = "1B5E7594-BD1E-41E1-80E1-0DE241437139";
paths = (
{
closed = 1;
nodes = (
"162 95 LINE SMOOTH",
"162 65 OFFCURVE",
"129 11 OFFCURVE",
"89 -7 CURVE",
"57 8 LINE",
"57 18 LINE",
"95 58 OFFCURVE",
"98 86 OFFCURVE",
"98 159 CURVE SMOOTH",
"101 697 LINE SMOOTH",
"101 716 OFFCURVE",
"88 735 OFFCURVE",
"66 737 CURVE SMOOTH",
"19 742 LINE",
"19 775 LINE",
"68 780 OFFCURVE",
"115 787 OFFCURVE",
"160 796 CURVE",
"169 790 LINE"
);
}
);
width = 569;
}
);
unicode = 0062;
},
{
color = 1;
glyphname = c;
lastChange = "2018-04-11 18:22:57 +0000";
layers = (
{
anchors = (
{
name = bottom;
position = "{238, 0}";
},
{
name = top;
position = "{238, 500}";
}
);
background = {
components = (
{
name = e;
transform = "{1, 0, 0, 1, 23, 0}";
}
);
};
guideLines = (
{
position = "{-400, -12}";
},
{
position = "{-61, 104}";
},
{
angle = 90;
position = "{428, 376}";
}
);
layerId = "1B5E7594-BD1E-41E1-80E1-0DE241437139";
paths = (
{
closed = 1;
nodes = (
"53 82 OFFCURVE",
"155 -12 OFFCURVE",
"278 -12 CURVE SMOOTH",
"328 -12 OFFCURVE",
"383 4 OFFCURVE",
"435 39 CURVE",
"428 71 LINE",
"414 76 LINE",
"249 3 OFFCURVE",
"124 65 OFFCURVE",
"124 250 CURVE SMOOTH",
"124 355 OFFCURVE",
"180 462 OFFCURVE",
"284 463 CURVE SMOOTH",
"354 464 OFFCURVE",
"378 453 OFFCURVE",
"369 362 CURVE",
"415 362 LINE",
"431 493 LINE",
"388 504 OFFCURVE",
"348 510 OFFCURVE",
"310 510 CURVE SMOOTH",
"157 510 OFFCURVE",
"53 417 OFFCURVE",
"53 230 CURVE SMOOTH"
);
}
);
width = 475;
},
{
associatedMasterId = "5A1ECF60-5C3D-4C60-84B4-C69E600E0422";
background = {
components = (
{
name = f;
transform = "{1, 0, 0, 1, 86, -292}";
}
);
};
guideLines = (
{
angle = 71;
position = "{489, 195}";
}
);
layerId = "D2923922-0CE0-4161-8498-9E8833351EE1";
name = "Mar 24 18, 09:10";
paths = (
{
closed = 1;
nodes = (
"16 72 OFFCURVE",
"126 -16 OFFCURVE",
"265 -16 CURVE SMOOTH",
"316 -16 OFFCURVE",
"371 -4 OFFCURVE",
"427 21 CURVE",
"470 146 LINE",
"450 171 LINE",
"302 117 OFFCURVE",
"215 150 OFFCURVE",
"215 274 CURVE SMOOTH",
"215 375 OFFCURVE",
"328 407 OFFCURVE",
"450 325 CURVE",
"470 358 LINE",
"429 498 LINE",
"398 512 OFFCURVE",
"365 514 OFFCURVE",
"307 514 CURVE SMOOTH",
"138 514 OFFCURVE",
"13 413 OFFCURVE",
"15 234 CURVE SMOOTH"
);
}
);
width = 497;
},
{
associatedMasterId = "5A1ECF60-5C3D-4C60-84B4-C69E600E0422";
background = {
components = (
{
name = a;
transform = "{1, 0, 0, 1, -71, 0}";
}
);
};
guideLines = (
{
angle = 90;
position = "{485, 233}";
},
{
angle = 104;
position = "{309, 737}";
}
);
layerId = "44D4AAF8-6F01-49FE-B371-198FF1005D8F";
name = "Mar 25 18, 15:57";
paths = (
{
closed = 1;
nodes = (
"30 80 OFFCURVE",
"111 -14 OFFCURVE",
"273 -14 CURVE SMOOTH",
"362 -14 OFFCURVE",
"388 -11 OFFCURVE",
"427 0 CURVE",
"476 114 LINE",
"455 125 LINE",
"319 71 OFFCURVE",
"234 118 OFFCURVE",
"238 264 CURVE SMOOTH",
"241 355 OFFCURVE",
"259 393 OFFCURVE",
"291 393 CURVE SMOOTH",
"324 393 OFFCURVE",
"345 380 OFFCURVE",
"328 279 CURVE",
"445 279 LINE",
"491 488 LINE",
"450 508 OFFCURVE",
"367 517 OFFCURVE",
"309 517 CURVE SMOOTH",
"143 517 OFFCURVE",
"30 429 OFFCURVE",
"30 250 CURVE SMOOTH"
);
}
);
width = 508;
},
{
anchors = (
{
name = bottom;
position = "{249, 0}";
},
{
name = top;
position = "{249, 506}";
}
);
background = {
components = (
{
name = s;
transform = "{1, 0, 0, 1, 9, 0}";
}
);
};
guideLines = (
{
angle = 90;
position = "{472, 233}";
},
{
angle = 104;
position = "{296, 737}";
},
{
position = "{684, -15}";
}
);
layerId = "5A1ECF60-5C3D-4C60-84B4-C69E600E0422";
paths = (
{
closed = 1;
nodes = (
"17 80 OFFCURVE",
"98 -15 OFFCURVE",
"260 -15 CURVE SMOOTH",
"349 -15 OFFCURVE",
"429 21 OFFCURVE",
"472 64 CURVE",
"450 144 LINE",
"429 155 LINE",
"293 101 OFFCURVE",
"221 108 OFFCURVE",
"225 264 CURVE SMOOTH",
"227 355 OFFCURVE",
"247 394 OFFCURVE",
"279 394 CURVE SMOOTH",
"321 394 OFFCURVE",
"336 380 OFFCURVE",
"319 279 CURVE",
"436 279 LINE",
"478 488 LINE",
"437 508 OFFCURVE",
"354 517 OFFCURVE",
"296 517 CURVE SMOOTH",
"130 517 OFFCURVE",
"17 429 OFFCURVE",
"17 250 CURVE SMOOTH"
);
}
);
width = 498;
},
{
associatedMasterId = "1B5E7594-BD1E-41E1-80E1-0DE241437139";
background = {
components = (
{
name = e;
transform = "{1, 0, 0, 1, -12, 0}";
}
);
};
guideLines = (
{
position = "{-435, -12}";
},
{
position = "{-96, 104}";
},
{
angle = 90;
position = "{393, 376}";
}
);
layerId = "732E030C-7C47-4A96-BECC-1C98936547C9";
name = "Mar 30 18, 20:24";
paths = (
{
closed = 1;
nodes = (
"18 82 OFFCURVE",
"120 -12 OFFCURVE",
"243 -12 CURVE SMOOTH",
"293 -12 OFFCURVE",
"348 4 OFFCURVE",
"400 39 CURVE",
"393 71 LINE",
"379 76 LINE",
"214 3 OFFCURVE",
"89 65 OFFCURVE",
"89 250 CURVE SMOOTH",
"89 355 OFFCURVE",
"145 462 OFFCURVE",
"249 463 CURVE SMOOTH",
"319 464 OFFCURVE",
"343 453 OFFCURVE",
"334 362 CURVE",
"380 362 LINE",
"396 493 LINE",
"353 504 OFFCURVE",
"313 510 OFFCURVE",
"275 510 CURVE SMOOTH",
"122 510 OFFCURVE",
"18 417 OFFCURVE",
"18 230 CURVE SMOOTH"
);
}
);
width = 410;
}
);
unicode = 0063;
},
{
color = 1;
glyphname = d;
lastChange = "2018-04-11 18:22:58 +0000";
layers = (
{
anchors = (
{
name = bottom;
position = "{306, 0}";
},
{
name = center;
position = "{306, 253}";
},
{
name = top;
position = "{306, 806}";
},
{
name = topright;
position = "{591, 506}";
}
);
components = (
{
name = _part.stem_asc;
piece = {
"foot?" = 2;
};
transform = "{1, 0, 0, 1, 290, 0}";
},
{
name = _part_bowl;
piece = {
"d,q" = 1;
};
transform = "{-1, 0, 0, -1, 575, 504}";
}
);
guideLines = (
{
position = "{1616, 513}";
},
{
position = "{593, 519}";
}
);
layerId = "5A1ECF60-5C3D-4C60-84B4-C69E600E0422";
width = 611;
},
{
associatedMasterId = "5A1ECF60-5C3D-4C60-84B4-C69E600E0422";
background = {
components = (
{
name = a;
transform = "{1, 0, 0, 1, 11, 0}";
}
);
};
components = (
{
name = _part_bowl;
piece = {
"d,q" = 1;
};
transform = "{-1, 0, 0, -1, 564, 503}";
}
);
guideLines = (
{
position = "{1596, 513}";
}
);
layerId = "CFCDB457-61D1-46E7-AB5D-2509F62BF86E";
name = "Sep 24 17, 15:06";
paths = (
{
closed = 1;
nodes = (
"260 783 LINE",
"496 811 LINE",
"521 789 LINE",
"522 136 LINE",
"317 116 LINE",
"318 687 LINE",
"260 700 LINE"
);
},
{
closed = 1;
nodes = (
"579 17 LINE",
"363 -11 LINE",
"338 11 LINE",
"322 164 LINE",
"521 203 LINE",
"521 113 LINE",
"579 100 LINE"
);
}
);
width = 594;
},
{
anchors = (
{
name = bottom;
position = "{295, 0}";
},
{
name = center;
position = "{295, 250}";
},
{
name = top;
position = "{295, 800}";
},
{
name = topright;
position = "{569, 500}";
}
);
background = {
components = (
{
name = p;
transform = "{1, 0, 0, 1, -67, 0}";
}
);
};
components = (
{
name = _part.stem_asc;
piece = {
"foot?" = 2;
};
transform = "{1, 0, 0, 1, 302, 0}";
},
{
name = _part_bowl;
transform = "{-1, 0, 0, -1, 483, 499}";
}
);
layerId = "1B5E7594-BD1E-41E1-80E1-0DE241437139";
width = 589;
}
);
unicode = 0064;
},
{
glyphname = eth;
lastChange = "2018-04-01 18:40:28 +0000";
layers = (
{
anchors = (
{
name = bottom;
position = "{295, 500}";
},
{
name = center;
position = "{295, 250}";
},
{
name = top;
position = "{295, -300}";
},
{
name = topright;
position = "{569, 0}";
}
);
background = {
components = (
{
name = o;
transform = "{1, 0, 0, 1, 1, 0}";
}
);
};
layerId = "1B5E7594-BD1E-41E1-80E1-0DE241437139";
paths = (
{
closed = 1;
nodes = (
"392 444 OFFCURVE",
"342 458 OFFCURVE",
"280 458 CURVE SMOOTH",
"197 458 OFFCURVE",
"131 388 OFFCURVE",
"131 262 CURVE SMOOTH",
"131 253 LINE SMOOTH",
"131 110 OFFCURVE",
"190 33 OFFCURVE",
"287 33 CURVE SMOOTH",
"383 33 OFFCURVE",
"438 105 OFFCURVE",
"444 273 CURVE SMOOTH",
"453 534 OFFCURVE",
"254 698 OFFCURVE",
"85 744 CURVE",
"106 790 LINE",
"280 755 OFFCURVE",
"517 565 OFFCURVE",
"517 293 CURVE SMOOTH",
"517 81 OFFCURVE",
"427 -14 OFFCURVE",
"286 -14 CURVE SMOOTH",
"150 -14 OFFCURVE",
"55 95 OFFCURVE",
"55 257 CURVE SMOOTH",
"55 410 OFFCURVE",
"157 508 OFFCURVE",
"268 508 CURVE SMOOTH",
"324 508 OFFCURVE",
"391 494 OFFCURVE",
"431 429 CURVE",
"439 383 LINE"
);
},
{
closed = 1;
nodes = (
"476 747 LINE",
"492 743 LINE",
"504 716 LINE",
"158 542 LINE",
"140 545 LINE",
"126 573 LINE"
);
}
);
width = 589;
},
{
anchors = (
{
name = bottom;
position = "{306, 506}";
},
{
name = center;
position = "{306, 253}";
},
{
name = top;
position = "{306, -300}";
},
{
name = topright;
position = "{591, 0}";
}
);
layerId = "5A1ECF60-5C3D-4C60-84B4-C69E600E0422";
paths = (
{
closed = 1;
nodes = (
"332 380 OFFCURVE",
"315 390 OFFCURVE",
"290 390 CURVE SMOOTH",
"262 390 OFFCURVE",
"250 371 OFFCURVE",
"250 333 CURVE SMOOTH",
"250 177 LINE SMOOTH",
"250 136 OFFCURVE",
"257 103 OFFCURVE",
"296 103 CURVE SMOOTH",
"336 103 OFFCURVE",
"349 127 OFFCURVE",
"349 303 CURVE SMOOTH",
"349 562 OFFCURVE",
"262 662 OFFCURVE",
"80 709 CURVE",
"67 733 LINE",
"104 804 LINE",
"333 800 OFFCURVE",
"571 594 OFFCURVE",
"571 325 CURVE SMOOTH",
"571 170 OFFCURVE",
"528 -13 OFFCURVE",
"298 -13 CURVE SMOOTH",
"133 -13 OFFCURVE",
"27 51 OFFCURVE",
"27 264 CURVE SMOOTH",
"27 412 OFFCURVE",
"90 518 OFFCURVE",
"226 518 CURVE SMOOTH",
"301 518 OFFCURVE",
"361 436 OFFCURVE",
"401 364 CURVE",
"350 359 LINE"
);
},
{
closed = 1;
nodes = (
"458 803 LINE",
"488 802 LINE",
"522 714 LINE",
"140 527 LINE",
"104 529 LINE",
"73 610 LINE"
);
}
);
width = 611;
}
);
unicode = 00F0;
},
{
color = 1;
glyphname = e;
lastChange = "2018-04-11 18:26:20 +0000";
layers = (
{
anchors = (
{
name = bottom;
position = "{257, 0}";
},
{
name = ogonek;
position = "{462, 10}";
},
{
name = top;
position = "{277, 500}";
}
);
background = {
components = (
{
name = o;
transform = "{1, 0, 0, 1, -1, 0}";
}
);
};
guideLines = (
{
angle = 71;
position = "{502, 186}";
},
{
angle = 90;
position = "{455, 428}";
}
);
layerId = "1B5E7594-BD1E-41E1-80E1-0DE241437139";
paths = (
{
closed = 1;
nodes = (
"172 464 OFFCURVE",
"128 353 OFFCURVE",
"128 231 CURVE SMOOTH",
"128 56 OFFCURVE",
"287 5 OFFCURVE",
"429 82 CURVE",
"444 76 LINE",
"451 45 LINE",
"396 5 OFFCURVE",
"331 -14 OFFCURVE",
"269 -12 CURVE SMOOTH",
"156 -6 OFFCURVE",
"55 73 OFFCURVE",
"55 240 CURVE SMOOTH",
"55 408 OFFCURVE",
"150 510 OFFCURVE",
"284 510 CURVE SMOOTH",
"412 510 OFFCURVE",
"476 454 OFFCURVE",
"448 284 CURVE",
"100 282 LINE",
"107 324 LINE",
"384 325 LINE",
"392 421 OFFCURVE",
"365 464 OFFCURVE",
"280 464 CURVE SMOOTH"
);
}
);
width = 513;
},
{
anchors = (
{
name = bottom;
position = "{265, 0}";
},
{
name = ogonek;
position = "{476, 10}";
},
{
name = top;
position = "{265, 506}";
}
);
background = {
components = (
{
name = o;
transform = "{1, 0, 0, 1, -14, 0}";
}
);
};
guideLines = (
{
position = "{688, -15}";
}
);
layerId = "5A1ECF60-5C3D-4C60-84B4-C69E600E0422";
paths = (
{
closed = 1;
nodes = (
"239 424 OFFCURVE",
"223 374 OFFCURVE",
"221 268 CURVE SMOOTH",
"218 108 OFFCURVE",
"284 94 OFFCURVE",
"454 155 CURVE",
"474 144 LINE",
"496 65 LINE",
"434 2 OFFCURVE",
"348 -16 OFFCURVE",
"273 -16 CURVE SMOOTH",
"104 -16 OFFCURVE",
"16 87 OFFCURVE",
"16 249 CURVE SMOOTH",
"16 399 OFFCURVE",
"87 517 OFFCURVE",
"281 522 CURVE SMOOTH",
"465 527 OFFCURVE",
"527 446 OFFCURVE",
"488 250 CURVE",
"115 249 LINE",
"121 330 LINE",
"318 331 LINE",
"325 386 OFFCURVE",
"315 424 OFFCURVE",
"277 424 CURVE SMOOTH"
);
}
);
width = 529;
}
);
unicode = 0065;
},
{
glyphname = eogonek;
lastChange = "2018-04-01 19:22:23 +0000";
layers = (
{
components = (
{
name = e;
}
);
layerId = "1B5E7594-BD1E-41E1-80E1-0DE241437139";
paths = (
{
closed = 1;
nodes = (
"445 39 LINE",
"268 -43 OFFCURVE",
"256 -211 OFFCURVE",
"435 -147 CURVE",
"445 -179 LINE",
"212 -282 OFFCURVE",
"195 -49 OFFCURVE",
"361 6 CURVE"
);
}
);
width = 513;
},
{
components = (
{
name = e;
}
);
layerId = "5A1ECF60-5C3D-4C60-84B4-C69E600E0422";
paths = (
{
closed = 1;
nodes = (
"466 39 LINE",
"311 -58 OFFCURVE",
"319 -167 OFFCURVE",
"483 -120 CURVE",
"500 -179 LINE",
"226 -288 OFFCURVE",
"151 -65 OFFCURVE",
"352 -5 CURVE"
);
}
);
width = 529;
}
);
unicode = 0119;
},
{
color = 1;
glyphname = f;
lastChange = "2018-04-11 18:26:05 +0000";
layers = (
{
anchors = (
{
name = bottom;
position = "{195, 0}";
},
{
name = top;
position = "{195, 806}";
}
);
background = {
components = (
{
name = t;
transform = "{1, 0, 0, 1, 24, 0}";
}
);
};
layerId = "5A1ECF60-5C3D-4C60-84B4-C69E600E0422";
paths = (
{
closed = 1;
nodes = (
"390 689 LINE",
"370 653 LINE",
"328 682 OFFCURVE",
"277 665 OFFCURVE",
"254 632 CURVE SMOOTH",
"229 596 OFFCURVE",
"228 540 OFFCURVE",
"255 499 CURVE",
"361 503 LINE",
"378 484 LINE",
"377 402 LINE",
"281 405 LINE",
"279 139 LINE SMOOTH",
"279 113 OFFCURVE",
"293 94 OFFCURVE",
"319 92 CURVE SMOOTH",
"371 88 LINE",
"371 -4 LINE",
"200 0 LINE",
"29 -4 LINE",
"29 88 LINE",
"51 91 LINE SMOOTH",
"73 94 OFFCURVE",
"85 108 OFFCURVE",
"85 134 CURVE SMOOTH",
"81 362 LINE SMOOTH",
"81 387 OFFCURVE",
"74 402 OFFCURVE",
"50 404 CURVE SMOOTH",
"28 406 LINE",
"28 504 LINE",
"85 508 LINE",
"73 635 OFFCURVE",
"89 730 OFFCURVE",
"153 776 CURVE SMOOTH",
"206 815 OFFCURVE",
"286 813 OFFCURVE",
"359 800 CURVE"
);
}
);
width = 389;
},
{
anchors = (
{
name = bottom;
position = "{164, 0}";
},
{
name = top;
position = "{164, 800}";
}
);
background = {
components = (
{
name = n;
transform = "{1, 0, 0, 1, -6, 0}";
}
);
};
guideLines = (
{
position = "{-571, 482}";
}
);
layerId = "1B5E7594-BD1E-41E1-80E1-0DE241437139";
paths = (
{
closed = 1;
nodes = (
"316 728 LINE",
"306 719 LINE",
"268 742 OFFCURVE",
"221 747 OFFCURVE",
"196 722 CURVE SMOOTH",
"169 695 OFFCURVE",
"174 624 OFFCURVE",
"182 479 CURVE",
"299 483 LINE",
"306 477 LINE",
"305 439 LINE",
"185 440 LINE",
"184 76 LINE SMOOTH",
"184 50 OFFCURVE",
"197 36 OFFCURVE",
"222 34 CURVE SMOOTH",
"292 28 LINE",
"292 -4 LINE",
"147 0 LINE",
"45 -4 LINE",
"45 29 LINE",
"79 33 LINE SMOOTH",
"103 36 OFFCURVE",
"116 51 OFFCURVE",
"116 75 CURVE SMOOTH",
"116 403 LINE SMOOTH",
"116 429 OFFCURVE",
"109 440 OFFCURVE",
"79 441 CURVE SMOOTH",
"46 442 LINE",
"46 475 LINE",
"117 482 LINE",
"117 603 OFFCURVE",
"113 706 OFFCURVE",
"156 757 CURVE SMOOTH",
"196 804 OFFCURVE",
"241 807 OFFCURVE",
"300 793 CURVE"
);
}
);
width = 327;
}
);
unicode = 0066;
},
{
color = 1;
glyphname = g;
lastChange = "2018-04-11 18:22:58 +0000";
layers = (
{
anchors = (
{
name = bottom;
position = "{279, -200}";
},
{
name = top;
position = "{279, 506}";
}
);
background = {
components = (
{
name = n;
transform = "{1, 0, 0, 1, 296, 0}";
},
{
name = o;
transform = "{1, 0, 0, 1, -40, 0}";
}
);
};
guideLines = (
{
position = "{762, 396}";
},
{
angle = 90;
position = "{16, 193}";
},
{
angle = 90;
position = "{550, 545}";
},
{
angle = 103;
position = "{-153, 626}";
}
);
layerId = "5A1ECF60-5C3D-4C60-84B4-C69E600E0422";
paths = (
{
closed = 1;
nodes = (
"413 144 OFFCURVE",
"504 222 OFFCURVE",
"504 329 CURVE SMOOTH",
"504 359 OFFCURVE",
"478 396 OFFCURVE",
"457 429 CURVE",
"439 471 LINE",
"404 498 OFFCURVE",
"350 523 OFFCURVE",
"270 523 CURVE SMOOTH",
"106 523 OFFCURVE",
"20 450 OFFCURVE",
"18 326 CURVE SMOOTH",
"16 211 OFFCURVE",
"112 144 OFFCURVE",
"258 144 CURVE SMOOTH"
);
},
{
closed = 1;
nodes = (
"236 233 OFFCURVE",
"224 246 OFFCURVE",
"224 328 CURVE SMOOTH",
"224 408 OFFCURVE",
"236 422 OFFCURVE",
"266 422 CURVE SMOOTH",
"289 422 OFFCURVE",
"303 409 OFFCURVE",
"303 328 CURVE SMOOTH",
"303 245 OFFCURVE",
"289 233 OFFCURVE",
"262 233 CURVE SMOOTH"
);
},
{
closed = 1;
nodes = (
"-3 -48 LINE",
"29 -177 LINE",
"73 -190 OFFCURVE",
"144 -205 OFFCURVE",
"249 -205 CURVE SMOOTH",
"391 -205 OFFCURVE",
"549 -150 OFFCURVE",
"549 -29 CURVE SMOOTH",
"549 54 OFFCURVE",
"506 88 OFFCURVE",
"416 94 CURVE SMOOTH",
"232 106 LINE SMOOTH",
"210 107 OFFCURVE",
"204 116 OFFCURVE",
"216 136 CURVE SMOOTH",
"237 172 LINE",
"161 188 LINE",
"50 95 LINE",
"50 26 LINE",
"278 -14 LINE SMOOTH",
"320 -21 OFFCURVE",
"335 -30 OFFCURVE",
"335 -51 CURVE SMOOTH",
"335 -73 OFFCURVE",
"304 -82 OFFCURVE",
"256 -82 CURVE SMOOTH",
"173 -82 OFFCURVE",
"68 -40 OFFCURVE",
"34 -11 CURVE"
);
},
{
closed = 1;
nodes = (
"395 406 LINE",
"547 406 LINE",
"547 506 LINE",
"530 523 LINE",
"484 512 OFFCURVE",
"406 497 OFFCURVE",
"335 496 CURVE"
);
}
);
width = 558;
},
{
anchors = (
{
name = bottom;
position = "{257, -200}";
},
{
name = top;
position = "{257, 500}";
}
);
background = {
paths = (
{
closed = 1;
nodes = (
"294 159 OFFCURVE",
"345 178 OFFCURVE",
"382 212 CURVE SMOOTH",
"418 245 OFFCURVE",
"441 291 OFFCURVE",
"441 344 CURVE SMOOTH",
"441 383 OFFCURVE",
"428 418 OFFCURVE",
"400 449 CURVE",
"404 455 LINE",
"426 456 OFFCURVE",
"449 458 OFFCURVE",
"465 461 CURVE",
"475 462 OFFCURVE",
"484 463 OFFCURVE",
"493 464 CURVE",
"505 522 LINE",
"502 526 LINE",
"484 521 OFFCURVE",
"467 517 OFFCURVE",
"450 513 CURVE SMOOTH",
"420 506 OFFCURVE",
"384 498 OFFCURVE",
"358 495 CURVE",
"345 495 OFFCURVE",
"329 497 OFFCURVE",
"312 501 CURVE",
"295 504 OFFCURVE",
"276 507 OFFCURVE",
"256 507 CURVE SMOOTH",
"205 507 OFFCURVE",
"156 485 OFFCURVE",
"121 451 CURVE SMOOTH",
"85 416 OFFCURVE",
"63 371 OFFCURVE",
"63 321 CURVE SMOOTH",
"63 259 OFFCURVE",
"91 209 OFFCURVE",
"140 183 CURVE",
"140 179 LINE",
"129 173 OFFCURVE",
"119 165 OFFCURVE",
"108 158 CURVE SMOOTH",
"90 147 OFFCURVE",
"68 129 OFFCURVE",
"52 112 CURVE",
"52 87 OFFCURVE",
"65 64 OFFCURVE",
"86 46 CURVE SMOOTH",
"106 29 OFFCURVE",
"133 14 OFFCURVE",
"166 10 CURVE",
"166 4 LINE",
"152 -5 OFFCURVE",
"140 -16 OFFCURVE",
"127 -26 CURVE SMOOTH",
"105 -43 OFFCURVE",
"79 -66 OFFCURVE",
"63 -90 CURVE",
"63 -177 OFFCURVE",
"120 -228 OFFCURVE",
"220 -228 CURVE SMOOTH",
"286 -228 OFFCURVE",
"351 -205 OFFCURVE",
"399 -170 CURVE SMOOTH",
"447 -135 OFFCURVE",
"478 -90 OFFCURVE",
"478 -41 CURVE SMOOTH",
"478 -4 OFFCURVE",
"461 22 OFFCURVE",
"428 39 CURVE",
"393 56 OFFCURVE",
"336 67 OFFCURVE",
"256 71 CURVE SMOOTH",
"213 73 OFFCURVE",
"181 77 OFFCURVE",
"161 85 CURVE SMOOTH",
"142 93 OFFCURVE",
"131 106 OFFCURVE",
"131 122 CURVE SMOOTH",
"131 136 OFFCURVE",
"146 152 OFFCURVE",
"175 167 CURVE",
"197 162 OFFCURVE",
"216 159 OFFCURVE",
"235 159 CURVE SMOOTH"
);
},
{
closed = 1;
nodes = (
"189 205 OFFCURVE",
"141 259 OFFCURVE",
"141 339 CURVE SMOOTH",
"141 410 OFFCURVE",
"180 453 OFFCURVE",
"244 453 CURVE SMOOTH",
"314 453 OFFCURVE",
"363 398 OFFCURVE",
"363 318 CURVE SMOOTH",
"363 247 OFFCURVE",
"324 205 OFFCURVE",
"260 205 CURVE SMOOTH"
);
},
{
closed = 1;
nodes = (
"186 -177 OFFCURVE",
"144 -145 OFFCURVE",
"144 -92 CURVE SMOOTH",
"144 -80 OFFCURVE",
"147 -69 OFFCURVE",
"154 -57 CURVE",
"167 -36 OFFCURVE",
"183 -17 OFFCURVE",
"208 3 CURVE",
"292 -8 OFFCURVE",
"342 -17 OFFCURVE",
"373 -28 CURVE",
"402 -41 OFFCURVE",
"411 -53 OFFCURVE",
"411 -74 CURVE SMOOTH",
"411 -102 OFFCURVE",
"394 -127 OFFCURVE",
"365 -146 CURVE SMOOTH",
"336 -165 OFFCURVE",
"299 -177 OFFCURVE",
"258 -177 CURVE SMOOTH"
);
}
);
};
guideLines = (
{
position = "{151, 507}";
},
{
angle = 90;
position = "{62, 545}";
},
{
angle = 90;
position = "{484, 313}";
},
{
angle = 103;
position = "{-132, 620}";
}
);
layerId = "1B5E7594-BD1E-41E1-80E1-0DE241437139";
paths = (
{
closed = 1;
nodes = (
"354 158 OFFCURVE",
"437 227 OFFCURVE",
"437 331 CURVE SMOOTH",
"437 386 OFFCURVE",
"411 448 OFFCURVE",
"376 461 CURVE",
"364 477 LINE",
"334 496 OFFCURVE",
"295 506 OFFCURVE",
"251 506 CURVE SMOOTH",
"144 506 OFFCURVE",
"62 436 OFFCURVE",
"62 331 CURVE SMOOTH",
"62 220 OFFCURVE",
"137 158 OFFCURVE",
"251 158 CURVE SMOOTH"
);
},
{
closed = 1;
nodes = (
"184 200 OFFCURVE",
"134 248 OFFCURVE",
"134 334 CURVE SMOOTH",
"134 412 OFFCURVE",
"190 464 OFFCURVE",
"251 464 CURVE SMOOTH",
"322 464 OFFCURVE",
"367 417 OFFCURVE",
"367 334 CURVE SMOOTH",
"367 255 OFFCURVE",
"316 202 OFFCURVE",
"251 201 CURVE SMOOTH"
);
},
{
closed = 1;
nodes = (
"39 -103 LINE",
"56 -170 LINE",
"102 -192 OFFCURVE",
"161 -204 OFFCURVE",
"222 -204 CURVE SMOOTH",
"346 -204 OFFCURVE",
"476 -154 OFFCURVE",
"476 -46 CURVE SMOOTH",
"476 5 OFFCURVE",
"433 46 OFFCURVE",
"346 56 CURVE SMOOTH",
"171 76 LINE SMOOTH",
"144 79 OFFCURVE",
"142 92 OFFCURVE",
"160 119 CURVE SMOOTH",
"205 189 LINE",
"162 199 LINE",
"74 79 LINE",
"75 41 LINE",
"311 2 LINE SMOOTH",
"394 -12 OFFCURVE",
"413 -33 OFFCURVE",
"408 -67 CURVE SMOOTH",
"402 -110 OFFCURVE",
"339 -148 OFFCURVE",
"253 -148 CURVE SMOOTH",
"166 -148 OFFCURVE",
"109 -125 OFFCURVE",
"58 -88 CURVE"
);
},
{
closed = 1;
nodes = (
"352 447 LINE",
"485 443 LINE",
"485 497 LINE",
"476 504 LINE",
"421 493 OFFCURVE",
"375 484 OFFCURVE",
"311 482 CURVE"
);
}
);
width = 514;
},
{
associatedMasterId = "1B5E7594-BD1E-41E1-80E1-0DE241437139";
background = {
paths = (
{
closed = 1;
nodes = (
"252 159 OFFCURVE",
"303 178 OFFCURVE",
"340 212 CURVE SMOOTH",
"376 245 OFFCURVE",
"399 291 OFFCURVE",
"399 344 CURVE SMOOTH",
"399 383 OFFCURVE",
"386 418 OFFCURVE",
"358 449 CURVE",
"362 455 LINE",
"384 456 OFFCURVE",
"407 458 OFFCURVE",
"423 461 CURVE",
"433 462 OFFCURVE",
"442 463 OFFCURVE",
"451 464 CURVE",
"463 522 LINE",
"460 526 LINE",
"442 521 OFFCURVE",
"425 517 OFFCURVE",
"408 513 CURVE SMOOTH",
"378 506 OFFCURVE",
"342 498 OFFCURVE",
"316 495 CURVE",
"303 495 OFFCURVE",
"287 497 OFFCURVE",
"270 501 CURVE",
"253 504 OFFCURVE",
"234 507 OFFCURVE",
"214 507 CURVE SMOOTH",
"163 507 OFFCURVE",
"114 485 OFFCURVE",
"79 451 CURVE SMOOTH",
"43 416 OFFCURVE",
"21 371 OFFCURVE",
"21 321 CURVE SMOOTH",
"21 259 OFFCURVE",
"49 209 OFFCURVE",
"98 183 CURVE",
"98 179 LINE",
"87 173 OFFCURVE",
"77 165 OFFCURVE",
"66 158 CURVE SMOOTH",
"48 147 OFFCURVE",
"26 129 OFFCURVE",
"10 112 CURVE",
"10 87 OFFCURVE",
"23 64 OFFCURVE",
"44 46 CURVE SMOOTH",
"64 29 OFFCURVE",
"91 14 OFFCURVE",
"124 10 CURVE",
"124 4 LINE",
"110 -5 OFFCURVE",
"98 -16 OFFCURVE",
"85 -26 CURVE SMOOTH",
"63 -43 OFFCURVE",
"37 -66 OFFCURVE",
"21 -90 CURVE",
"21 -177 OFFCURVE",
"78 -228 OFFCURVE",
"178 -228 CURVE SMOOTH",
"244 -228 OFFCURVE",
"309 -205 OFFCURVE",
"357 -170 CURVE SMOOTH",
"405 -135 OFFCURVE",
"436 -90 OFFCURVE",
"436 -41 CURVE SMOOTH",
"436 -4 OFFCURVE",
"419 22 OFFCURVE",
"386 39 CURVE",
"351 56 OFFCURVE",
"294 67 OFFCURVE",
"214 71 CURVE SMOOTH",
"171 73 OFFCURVE",
"139 77 OFFCURVE",
"119 85 CURVE SMOOTH",
"100 93 OFFCURVE",
"89 106 OFFCURVE",
"89 122 CURVE SMOOTH",
"89 136 OFFCURVE",
"104 152 OFFCURVE",
"133 167 CURVE",
"155 162 OFFCURVE",
"174 159 OFFCURVE",
"193 159 CURVE SMOOTH"
);
},
{
closed = 1;
nodes = (
"147 205 OFFCURVE",
"99 259 OFFCURVE",
"99 339 CURVE SMOOTH",
"99 410 OFFCURVE",
"138 453 OFFCURVE",
"202 453 CURVE SMOOTH",
"272 453 OFFCURVE",
"321 398 OFFCURVE",
"321 318 CURVE SMOOTH",
"321 247 OFFCURVE",
"282 205 OFFCURVE",
"218 205 CURVE SMOOTH"
);
},
{
closed = 1;
nodes = (
"144 -177 OFFCURVE",
"102 -145 OFFCURVE",
"102 -92 CURVE SMOOTH",
"102 -80 OFFCURVE",
"105 -69 OFFCURVE",
"112 -57 CURVE",
"125 -36 OFFCURVE",
"141 -17 OFFCURVE",
"166 3 CURVE",
"250 -8 OFFCURVE",
"300 -17 OFFCURVE",
"331 -28 CURVE",
"360 -41 OFFCURVE",
"369 -53 OFFCURVE",
"369 -74 CURVE SMOOTH",
"369 -102 OFFCURVE",
"352 -127 OFFCURVE",
"323 -146 CURVE SMOOTH",
"294 -165 OFFCURVE",
"257 -177 OFFCURVE",
"216 -177 CURVE SMOOTH"
);
}
);
};
guideLines = (
{
position = "{109, 507}";
},
{
angle = 90;
position = "{20, 545}";
},
{
angle = 90;
position = "{442, 313}";
},
{
angle = 103;
position = "{-174, 620}";
}
);
layerId = "887BDA3F-4092-40F9-BD07-9F9CE5E0A9C6";
name = "Mar 30 18, 20:24";
paths = (
{
closed = 1;
nodes = (
"312 158 OFFCURVE",
"395 227 OFFCURVE",
"395 331 CURVE SMOOTH",
"395 386 OFFCURVE",
"369 448 OFFCURVE",
"334 461 CURVE",
"322 477 LINE",
"292 496 OFFCURVE",
"253 506 OFFCURVE",
"209 506 CURVE SMOOTH",
"102 506 OFFCURVE",
"20 436 OFFCURVE",
"20 331 CURVE SMOOTH",
"20 220 OFFCURVE",
"95 158 OFFCURVE",
"209 158 CURVE SMOOTH"
);
},
{
closed = 1;
nodes = (
"142 200 OFFCURVE",
"92 248 OFFCURVE",
"92 334 CURVE SMOOTH",
"92 412 OFFCURVE",
"148 464 OFFCURVE",
"209 464 CURVE SMOOTH",
"280 464 OFFCURVE",
"325 417 OFFCURVE",
"325 334 CURVE SMOOTH",
"325 255 OFFCURVE",
"274 202 OFFCURVE",
"209 201 CURVE SMOOTH"
);
},
{
closed = 1;
nodes = (
"-3 -103 LINE",
"14 -170 LINE",
"60 -192 OFFCURVE",
"119 -204 OFFCURVE",
"180 -204 CURVE SMOOTH",
"304 -204 OFFCURVE",
"434 -154 OFFCURVE",
"434 -46 CURVE SMOOTH",
"434 5 OFFCURVE",
"391 46 OFFCURVE",
"304 56 CURVE SMOOTH",
"129 76 LINE SMOOTH",
"102 79 OFFCURVE",
"100 92 OFFCURVE",
"118 119 CURVE SMOOTH",
"163 189 LINE",
"120 199 LINE",
"32 79 LINE",
"33 41 LINE",
"269 2 LINE SMOOTH",
"352 -12 OFFCURVE",
"371 -33 OFFCURVE",
"366 -67 CURVE SMOOTH",
"360 -110 OFFCURVE",
"297 -148 OFFCURVE",
"211 -148 CURVE SMOOTH",
"124 -148 OFFCURVE",
"67 -125 OFFCURVE",
"16 -88 CURVE"
);
},
{
closed = 1;
nodes = (
"310 447 LINE",
"443 443 LINE",
"443 497 LINE",
"434 504 LINE",
"379 493 OFFCURVE",
"333 484 OFFCURVE",
"269 482 CURVE"
);
}
);
width = 441;
}
);
unicode = 0067;
},
{
color = 1;
glyphname = h;
lastChange = "2018-04-11 18:22:57 +0000";
layers = (
{
anchors = (
{
name = bottom;
position = "{300, 0}";
},
{
name = center;
position = "{300, 400}";
},
{
name = top;
position = "{300, 800}";
}
);
background = {
components = (
{
name = n;
transform = "{1, 0, 0, 1, 24, 0}";
}
);
};
components = (
{
name = n_bow;
transform = "{1, 0, 0, 1, 157, 0}";
}
);
guideLines = (
{
position = "{202, 435}";
}
);
layerId = "1B5E7594-BD1E-41E1-80E1-0DE241437139";
paths = (
{
closed = 1;
nodes = (
"73 780 OFFCURVE",
"120 787 OFFCURVE",
"167 796 CURVE",
"176 790 LINE",
"172 81 LINE SMOOTH",
"172 55 OFFCURVE",
"182 36 OFFCURVE",
"216 34 CURVE SMOOTH",
"262 31 LINE",
"262 -4 LINE",
"143 0 LINE",
"26 -4 LINE",
"26 31 LINE",
"69 33 LINE SMOOTH",
"93 34 OFFCURVE",
"108 45 OFFCURVE",
"108 75 CURVE SMOOTH",
"108 692 LINE SMOOTH",
"108 714 OFFCURVE",
"100 736 OFFCURVE",
"67 739 CURVE SMOOTH",
"26 743 LINE",
"26 775 LINE"
);
}
);
width = 599;
},
{
anchors = (
{
name = bottom;
position = "{310, 0}";
},
{
name = center;
position = "{310, 403}";
},
{
name = top;
position = "{310, 806}";
}
);
background = {
components = (
{
name = n;
transform = "{1, 0, 0, 1, -9, 0}";
}
);
};
components = (
{
name = n_bow;
transform = "{1, 0, 0, 1, -7, 0}";
}
);
layerId = "5A1ECF60-5C3D-4C60-84B4-C69E600E0422";
paths = (
{
closed = 1;
nodes = (
"85 789 OFFCURVE",
"171 798 OFFCURVE",
"251 813 CURVE",
"269 796 LINE",
"264 135 LINE SMOOTH",
"264 112 OFFCURVE",
"265 99 OFFCURVE",
"287 94 CURVE SMOOTH",
"304 90 LINE",
"302 -3 LINE",
"159 0 LINE",
"9 -3 LINE",
"10 89 LINE",
"38 94 LINE SMOOTH",
"60 98 OFFCURVE",
"71 110 OFFCURVE",
"71 131 CURVE SMOOTH",
"67 651 LINE SMOOTH",
"67 674 OFFCURVE",
"52 691 OFFCURVE",
"32 693 CURVE SMOOTH",
"5 696 LINE",
"5 785 LINE"
);
}
);
width = 619;
}
);
unicode = 0068;
},
{
color = 1;
glyphname = i;
lastChange = "2018-04-01 13:23:24 +0000";
layers = (
{
anchors = (
{
name = bottom;
position = "{149, 0}";
}
);
background = {
components = (
{
name = n;
transform = "{1, 0, 0, 1, 55, 0}";
}
);
};
components = (
{
name = idotless;
},
{
name = dotaccentcomb;
transform = "{1, 0, 0, 1, 19, 0}";
}
);
guideLines = (
{
position = "{-300, 31}";
}
);
layerId = "1B5E7594-BD1E-41E1-80E1-0DE241437139";
width = 289;
},
{
anchors = (
{
name = bottom;
position = "{177, 0}";
}
);
background = {
components = (
{
name = n;
transform = "{1, 0, 0, 1, 7, 0}";
}
);
paths = (
{
closed = 1;
nodes = (
"254 599 OFFCURVE",
"292 638 OFFCURVE",
"292 712 CURVE SMOOTH",
"292 786 OFFCURVE",
"254 824 OFFCURVE",
"180 824 CURVE SMOOTH",
"106 824 OFFCURVE",
"67 786 OFFCURVE",
"67 712 CURVE SMOOTH",
"67 638 OFFCURVE",
"106 599 OFFCURVE",
"180 599 CURVE SMOOTH"
);
}
);
};
components = (
{
name = idotless;
},
{
name = dotaccentcomb;
transform = "{1, 0, 0, 1, 67, 0}";
}
);
layerId = "5A1ECF60-5C3D-4C60-84B4-C69E600E0422";
width = 353;
},
{
associatedMasterId = "1B5E7594-BD1E-41E1-80E1-0DE241437139";
background = {
components = (
{
name = n;
transform = "{1, 0, 0, 1, -34, 0}";
}
);
};
guideLines = (
{
position = "{-389, 31}";
}
);
layerId = "B694085D-22B3-4DBD-BA43-CA60526A5349";
name = "Mar 30 18, 20:24";
paths = (
{
closed = 1;
nodes = (
"136 676 OFFCURVE",
"157 697 OFFCURVE",
"157 733 CURVE SMOOTH",
"157 768 OFFCURVE",
"136 789 OFFCURVE",
"101 789 CURVE SMOOTH",
"65 789 OFFCURVE",
"44 768 OFFCURVE",
"44 733 CURVE SMOOTH",
"44 697 OFFCURVE",
"65 676 OFFCURVE",
"101 676 CURVE SMOOTH"
);
},
{
closed = 1;
nodes = (
"-5 471 LINE",
"44 480 OFFCURVE",
"88 495 OFFCURVE",
"133 506 CURVE",
"142 500 LINE",
"135 76 LINE SMOOTH",
"135 46 OFFCURVE",
"150 35 OFFCURVE",
"174 34 CURVE SMOOTH",
"224 32 LINE",
"224 -4 LINE",
"107 0 LINE",
"-6 -4 LINE",
"-6 32 LINE",
"33 34 LINE SMOOTH",
"57 35 OFFCURVE",
"72 46 OFFCURVE",
"72 76 CURVE SMOOTH",
"72 403 LINE SMOOTH",
"72 425 OFFCURVE",
"68 438 OFFCURVE",
"35 440 CURVE SMOOTH",
"-5 443 LINE"
);
}
);
width = 211;
}
);
unicode = 0069;
},
{
color = 1;
glyphname = idotless;
lastChange = "2018-04-01 13:23:24 +0000";
layers = (
{
anchors = (
{
name = bottom;
position = "{156, 0}";
},
{
name = ogonek;
position = "{280, 10}";
},
{
name = top;
position = "{151, 500}";
}
);
layerId = "1B5E7594-BD1E-41E1-80E1-0DE241437139";
paths = (
{
closed = 1;
nodes = (
"42 471 LINE",
"91 480 OFFCURVE",
"135 495 OFFCURVE",
"180 506 CURVE",
"189 500 LINE",
"182 76 LINE SMOOTH",
"182 46 OFFCURVE",
"197 35 OFFCURVE",
"221 34 CURVE SMOOTH",
"271 32 LINE",
"271 -4 LINE",
"154 0 LINE",
"41 -4 LINE",
"41 32 LINE",
"80 34 LINE SMOOTH",
"104 35 OFFCURVE",
"119 46 OFFCURVE",
"119 76 CURVE SMOOTH",
"119 403 LINE SMOOTH",
"119 425 OFFCURVE",
"115 438 OFFCURVE",
"82 440 CURVE SMOOTH",
"42 443 LINE"
);
}
);
width = 289;
},
{
anchors = (
{
name = bottom;
position = "{180, 0}";
},
{
name = ogonek;
position = "{318, 10}";
},
{
name = top;
position = "{180, 506}";
}
);
layerId = "5A1ECF60-5C3D-4C60-84B4-C69E600E0422";
paths = (
{
closed = 1;
nodes = (
"27 495 LINE",
"107 500 OFFCURVE",
"191 509 OFFCURVE",
"267 523 CURVE",
"286 504 LINE",
"279 128 LINE SMOOTH",
"279 107 OFFCURVE",
"295 93 OFFCURVE",
"316 91 CURVE SMOOTH",
"343 89 LINE",
"343 -3 LINE",
"179 0 LINE",
"27 -3 LINE",
"27 89 LINE",
"55 93 LINE SMOOTH",
"75 96 OFFCURVE",
"85 108 OFFCURVE",
"85 128 CURVE SMOOTH",
"85 363 LINE SMOOTH",
"85 384 OFFCURVE",
"73 402 OFFCURVE",
"54 404 CURVE SMOOTH",
"27 407 LINE"
);
}
);
width = 353;
}
);
unicode = 0131;
},
{
color = 1;
glyphname = j;
lastChange = "2018-04-11 18:22:57 +0000";
layers = (
{
background = {
components = (
{
name = n;
}
);
};
guideLines = (
{
position = "{-441, -195}";
}
);
layerId = "1B5E7594-BD1E-41E1-80E1-0DE241437139";
paths = (
{
closed = 1;
nodes = (
"175 105 LINE",
"165 -30 OFFCURVE",
"153 -82 OFFCURVE",
"81 -208 CURVE",
"50 -190 LINE",
"95 -67 OFFCURVE",
"110 -1 OFFCURVE",
"110 133 CURVE SMOOTH",
"111 402 LINE SMOOTH",
"111 425 OFFCURVE",
"99 437 OFFCURVE",
"76 439 CURVE SMOOTH",
"29 443 LINE",
"29 472 LINE",
"75 478 OFFCURVE",
"126 495 OFFCURVE",
"172 505 CURVE",
"181 499 LINE"
);
},
{
closed = 1;
nodes = (
"162 680 OFFCURVE",
"189 707 OFFCURVE",
"189 738 CURVE SMOOTH",
"189 768 OFFCURVE",
"162 795 OFFCURVE",
"132 795 CURVE SMOOTH",
"101 795 OFFCURVE",
"74 768 OFFCURVE",
"74 738 CURVE SMOOTH",
"74 707 OFFCURVE",
"101 680 OFFCURVE",
"132 680 CURVE SMOOTH"
);
}
);
width = 271;
},
{
background = {
components = (
{
name = i;
transform = "{1, 0, 0, 1, -8, 0}";
}
);
};
guideLines = (
{
position = "{595, 519}";
}
);
layerId = "5A1ECF60-5C3D-4C60-84B4-C69E600E0422";
paths = (
{
closed = 1;
nodes = (
"263 15 LINE",
"231 -65 OFFCURVE",
"176 -161 OFFCURVE",
"107 -215 CURVE",
"17 -170 LINE",
"54 -104 OFFCURVE",
"72 -17 OFFCURVE",
"72 72 CURVE SMOOTH",
"72 354 LINE SMOOTH",
"72 381 OFFCURVE",
"64 400 OFFCURVE",
"36 402 CURVE SMOOTH",
"12 404 LINE",
"12 491 LINE",
"85 495 OFFCURVE",
"169 505 OFFCURVE",
"244 519 CURVE",
"270 496 LINE"
);
},
{
closed = 1;
nodes = (
"223 599 OFFCURVE",
"274 650 OFFCURVE",
"274 712 CURVE SMOOTH",
"274 773 OFFCURVE",
"223 824 OFFCURVE",
"162 824 CURVE SMOOTH",
"100 824 OFFCURVE",
"49 773 OFFCURVE",
"49 712 CURVE SMOOTH",
"49 650 OFFCURVE",
"100 599 OFFCURVE",
"162 599 CURVE SMOOTH"
);
}
);
width = 322;
},
{
associatedMasterId = "1B5E7594-BD1E-41E1-80E1-0DE241437139";
background = {
components = (
{
name = n;
transform = "{1, 0, 0, 1, -40, 0}";
}
);
};
layerId = "C3D92DA9-7F99-4CA1-B04F-6DEC7586144A";
name = "Mar 30 18, 20:24";
paths = (
{
closed = 1;
nodes = (
"135 135 LINE",
"125 0 OFFCURVE",
"113 -52 OFFCURVE",
"41 -178 CURVE",
"10 -160 LINE",
"55 -37 OFFCURVE",
"69 29 OFFCURVE",
"70 163 CURVE SMOOTH",
"71 402 LINE SMOOTH",
"71 425 OFFCURVE",
"59 437 OFFCURVE",
"36 439 CURVE SMOOTH",
"-11 443 LINE",
"-11 472 LINE",
"35 478 OFFCURVE",
"86 495 OFFCURVE",
"132 505 CURVE",
"141 499 LINE"
);
},
{
closed = 1;
nodes = (
"122 680 OFFCURVE",
"149 707 OFFCURVE",
"149 738 CURVE SMOOTH",
"149 768 OFFCURVE",
"122 795 OFFCURVE",
"92 795 CURVE SMOOTH",
"61 795 OFFCURVE",
"34 768 OFFCURVE",
"34 738 CURVE SMOOTH",
"34 707 OFFCURVE",
"61 680 OFFCURVE",
"92 680 CURVE SMOOTH"
);
}
);
width = 186;
}
);
unicode = 006A;
},
{
color = 1;
glyphname = k;
lastChange = "2018-04-11 18:22:57 +0000";
layers = (
{
anchors = (
{
name = bottom;
position = "{276, 0}";
},
{
name = top;
position = "{276, 800}";
}
);
background = {
components = (
{
name = x;
transform = "{1, 0, 0, 1, 21, 0}";
}
);
};
layerId = "1B5E7594-BD1E-41E1-80E1-0DE241437139";
paths = (
{
closed = 1;
nodes = (
"299 303 LINE",
"443 62 LINE SMOOTH",
"453 45 OFFCURVE",
"462 41 OFFCURVE",
"478 47 CURVE SMOOTH",
"531 68 LINE",
"541 47 LINE",
"517 4 LINE",
"443 -29 OFFCURVE",
"393 4 OFFCURVE",
"361 62 CURVE SMOOTH",
"255 257 LINE"
);
},
{
closed = 1;
nodes = (
"415 493 LINE",
"516 497 LINE",
"516 460 LINE",
"475 454 OFFCURVE",
"461 441 OFFCURVE",
"427 408 CURVE SMOOTH",
"155 138 LINE",
"140 183 LINE",
"368 414 LINE SMOOTH",
"388 434 OFFCURVE",
"381 455 OFFCURVE",
"350 456 CURVE SMOOTH",
"300 458 LINE",
"300 497 LINE"
);
},
{
closed = 1;
nodes = (
"26 775 LINE",
"73 780 OFFCURVE",
"122 787 OFFCURVE",
"169 796 CURVE",
"178 790 LINE",
"170 71 LINE SMOOTH",
"170 47 OFFCURVE",
"186 34 OFFCURVE",
"213 33 CURVE SMOOTH",
"260 31 LINE",
"260 -4 LINE",
"141 0 LINE",
"26 -4 LINE",
"26 31 LINE",
"69 33 LINE SMOOTH",
"93 34 OFFCURVE",
"108 45 OFFCURVE",
"108 75 CURVE SMOOTH",
"108 694 LINE SMOOTH",
"108 716 OFFCURVE",
"100 736 OFFCURVE",
"67 739 CURVE SMOOTH",
"26 743 LINE"
);
}
);
width = 552;
},
{
anchors = (
{
name = bottom;
position = "{312, 0}";
},
{
name = top;
position = "{312, 806}";
}
);
background = {
components = (
{
name = n;
transform = "{1, 0, 0, 1, -20, 0}";
}
);
};
guideLines = (
{
angle = 90;
position = "{594, 339}";
}
);
layerId = "5A1ECF60-5C3D-4C60-84B4-C69E600E0422";
paths = (
{
closed = 1;
nodes = (
"427 325 LINE",
"526 153 LINE SMOOTH",
"537 134 OFFCURVE",
"548 123 OFFCURVE",
"569 127 CURVE SMOOTH",
"608 135 LINE",
"626 107 LINE",
"577 1 LINE",
"399 -40 OFFCURVE",
"357 25 OFFCURVE",
"327 113 CURVE SMOOTH",
"292 216 LINE"
);
},
{
closed = 1;
nodes = (
"449 503 LINE",
"589 506 LINE",
"589 409 LINE",
"546 402 OFFCURVE",
"514 387 OFFCURVE",
"483 360 CURVE SMOOTH",
"234 137 LINE",
"219 231 LINE",
"339 341 LINE SMOOTH",
"376 374 OFFCURVE",
"363 402 OFFCURVE",
"334 406 CURVE SMOOTH",
"308 410 LINE",
"308 506 LINE"
);
},
{
closed = 1;
nodes = (
"5 785 LINE",
"85 789 OFFCURVE",
"171 798 OFFCURVE",
"251 813 CURVE",
"269 796 LINE",
"264 135 LINE SMOOTH",
"264 112 OFFCURVE",
"265 100 OFFCURVE",
"287 94 CURVE SMOOTH",
"308 88 LINE",
"306 -3 LINE",
"159 0 LINE",
"9 -3 LINE",
"10 89 LINE",
"38 94 LINE SMOOTH",
"60 98 OFFCURVE",
"71 110 OFFCURVE",
"71 131 CURVE SMOOTH",
"67 651 LINE SMOOTH",
"67 674 OFFCURVE",
"52 691 OFFCURVE",
"32 693 CURVE SMOOTH",
"5 696 LINE"
);
}
);
width = 623;
}
);
unicode = 006B;
},
{
color = 1;
glyphname = l;
lastChange = "2018-04-11 18:22:57 +0000";
layers = (
{
anchors = (
{
name = bottom;
position = "{141, 0}";
},
{
name = center;
position = "{141, 400}";
},
{
name = top;
position = "{141, 800}";
},
{
name = topright;
position = "{262, 800}";
}
);
background = {
components = (
{
name = n;
transform = "{1, 0, 0, 1, 21, 292}";
}
);
};
layerId = "1B5E7594-BD1E-41E1-80E1-0DE241437139";
paths = (
{
closed = 1;
nodes = (
"26 775 LINE",
"73 780 OFFCURVE",
"122 787 OFFCURVE",
"169 796 CURVE",
"178 790 LINE",
"170 71 LINE SMOOTH",
"170 47 OFFCURVE",
"186 34 OFFCURVE",
"213 33 CURVE SMOOTH",
"260 31 LINE",
"260 -4 LINE",
"141 0 LINE",
"26 -4 LINE",
"26 31 LINE",
"69 33 LINE SMOOTH",
"93 34 OFFCURVE",
"108 45 OFFCURVE",
"108 75 CURVE SMOOTH",
"108 694 LINE SMOOTH",
"108 716 OFFCURVE",
"100 736 OFFCURVE",
"67 739 CURVE SMOOTH",
"26 743 LINE"
);
}
);
width = 282;
},
{
anchors = (
{
name = bottom;
position = "{168, 0}";
},
{
name = center;
position = "{168, 403}";
},
{
name = top;
position = "{168, 806}";
},
{
name = topright;
position = "{316, 806}";
}
);
background = {
components = (
{
name = i;
transform = "{1, 0, 0, 1, -13, 0}";
}
);
};
guideLines = (
{
angle = 105;
position = "{-535, 559}";
}
);
layerId = "5A1ECF60-5C3D-4C60-84B4-C69E600E0422";
paths = (
{
closed = 1;
nodes = (
"6 785 LINE",
"86 789 OFFCURVE",
"172 798 OFFCURVE",
"252 813 CURVE",
"270 796 LINE",
"265 135 LINE SMOOTH",
"265 112 OFFCURVE",
"277 98 OFFCURVE",
"299 94 CURVE SMOOTH",
"323 90 LINE",
"321 -3 LINE",
"160 0 LINE",
"10 -3 LINE",
"11 89 LINE",
"39 94 LINE SMOOTH",
"61 98 OFFCURVE",
"72 110 OFFCURVE",
"72 131 CURVE SMOOTH",
"68 651 LINE SMOOTH",
"68 674 OFFCURVE",
"53 691 OFFCURVE",
"33 693 CURVE SMOOTH",
"6 696 LINE"
);
}
);
width = 336;
},
{
associatedMasterId = "1B5E7594-BD1E-41E1-80E1-0DE241437139";
background = {
components = (
{
name = n;
transform = "{1, 0, 0, 1, -18, 292}";
}
);
};
layerId = "C4FD5C51-5F13-4287-B422-EBE9D398E7B3";
name = "Mar 30 18, 20:24";
paths = (
{
closed = 1;
nodes = (
"-13 775 LINE",
"34 780 OFFCURVE",
"83 787 OFFCURVE",
"130 796 CURVE",
"139 790 LINE",
"131 71 LINE SMOOTH",
"131 47 OFFCURVE",
"147 34 OFFCURVE",
"174 33 CURVE SMOOTH",
"221 31 LINE",
"221 -4 LINE",
"102 0 LINE",
"-13 -4 LINE",
"-13 31 LINE",
"30 33 LINE SMOOTH",
"54 34 OFFCURVE",
"69 45 OFFCURVE",
"69 75 CURVE SMOOTH",
"69 694 LINE SMOOTH",
"69 716 OFFCURVE",
"61 736 OFFCURVE",
"28 739 CURVE SMOOTH",
"-13 743 LINE"
);
}
);
width = 208;
}
);
unicode = 006C;
},
{
color = 1;
glyphname = m;
lastChange = "2018-04-11 18:22:57 +0000";
layers = (
{
anchors = (
{
name = bottom;
position = "{448, 0}";
},
{
name = top;
position = "{448, 500}";
}
);
background = {
components = (
{
name = n;
transform = "{1, 0, 0, 1, 341, 0}";
}
);
};
components = (
{
name = n_bow;
transform = "{1, 0, 0, 1, 454, 0}";
},
{
name = n_stem;
transform = "{1, 0, 0, 1, 41, 0}";
}
);
guideLines = (
{
position = "{666, 453}";
}
);
layerId = "1B5E7594-BD1E-41E1-80E1-0DE241437139";
paths = (
{
closed = 1;
nodes = (
"216 466 OFFCURVE",
"271 508 OFFCURVE",
"352 508 CURVE SMOOTH",
"435 508 OFFCURVE",
"491 453 OFFCURVE",
"490 360 CURVE SMOOTH",
"488 69 LINE SMOOTH",
"488 46 OFFCURVE",
"504 34 OFFCURVE",
"526 33 CURVE SMOOTH",
"574 31 LINE",
"574 -4 LINE",
"461 0 LINE",
"338 -4 LINE",
"338 31 LINE",
"382 35 LINE SMOOTH",
"417 38 OFFCURVE",
"424 54 OFFCURVE",
"424 82 CURVE SMOOTH",
"424 363 LINE SMOOTH",
"424 440 OFFCURVE",
"350 505 OFFCURVE",
"160 388 CURVE",
"164 420 LINE"
);
}
);
width = 896;
},
{
anchors = (
{
name = bottom;
position = "{453, 0}";
},
{
name = top;
position = "{453, 506}";
}
);
background = {
components = (
{
name = n;
}
);
};
components = (
{
name = n_bow;
transform = "{1, 0, 0, 1, 280, 0}";
},
{
name = n_stem;
}
);
layerId = "5A1ECF60-5C3D-4C60-84B4-C69E600E0422";
paths = (
{
closed = 1;
nodes = (
"283 486 OFFCURVE",
"351 524 OFFCURVE",
"414 524 CURVE SMOOTH",
"517 524 OFFCURVE",
"559 457 OFFCURVE",
"559 374 CURVE SMOOTH",
"558 127 LINE SMOOTH",
"558 100 OFFCURVE",
"561 93 OFFCURVE",
"579 90 CURVE SMOOTH",
"590 88 LINE",
"590 -4 LINE",
"466 0 LINE",
"334 -4 LINE",
"336 90 LINE",
"347 93 LINE SMOOTH",
"357 96 OFFCURVE",
"362 104 OFFCURVE",
"362 130 CURVE SMOOTH",
"360 313 LINE SMOOTH",
"359 376 OFFCURVE",
"324 417 OFFCURVE",
"225 334 CURVE",
"240 400 LINE"
);
}
);
width = 906;
},
{
associatedMasterId = "1B5E7594-BD1E-41E1-80E1-0DE241437139";
background = {
components = (
{
name = n;
transform = "{1, 0, 0, 1, 300, 0}";
}
);
};
components = (
{
name = n_bow;
transform = "{1, 0, 0, 1, 413, 0}";
},
{
name = n_stem;
}
);
guideLines = (
{
position = "{625, 453}";
}
);
layerId = "EB443756-9981-4201-8DF9-A7AC68688DE9";
name = "Mar 30 18, 20:24";
paths = (
{
closed = 1;
nodes = (
"175 466 OFFCURVE",
"230 508 OFFCURVE",
"311 508 CURVE SMOOTH",
"394 508 OFFCURVE",
"450 453 OFFCURVE",
"449 360 CURVE SMOOTH",
"447 69 LINE SMOOTH",
"447 46 OFFCURVE",
"463 34 OFFCURVE",
"485 33 CURVE SMOOTH",
"533 31 LINE",
"533 -4 LINE",
"420 0 LINE",
"297 -4 LINE",
"297 31 LINE",
"341 35 LINE SMOOTH",
"376 38 OFFCURVE",
"383 54 OFFCURVE",
"383 82 CURVE SMOOTH",
"383 363 LINE SMOOTH",
"383 440 OFFCURVE",
"309 505 OFFCURVE",
"119 388 CURVE",
"123 420 LINE"
);
}
);
width = 854;
}
);
unicode = 006D;
},
{
color = 1;
glyphname = n_bow;
lastChange = "2018-03-31 11:05:47 +0000";
layers = (
{
background = {
components = (
{
name = n_stem;
transform = "{1, 0, 0, 1, 189, 0}";
}
);
};
layerId = "1B5E7594-BD1E-41E1-80E1-0DE241437139";
paths = (
{
closed = 1;
nodes = (
"56 472 OFFCURVE",
"121 508 OFFCURVE",
"202 508 CURVE SMOOTH",
"285 508 OFFCURVE",
"341 453 OFFCURVE",
"340 360 CURVE SMOOTH",
"338 69 LINE SMOOTH",
"338 46 OFFCURVE",
"354 34 OFFCURVE",
"376 33 CURVE SMOOTH",
"424 31 LINE",
"424 -4 LINE",
"311 0 LINE",
"186 -4 LINE",
"186 31 LINE",
"260 34 OFFCURVE",
"272 45 OFFCURVE",
"272 82 CURVE SMOOTH",
"272 363 LINE SMOOTH",
"272 440 OFFCURVE",
"193 505 OFFCURVE",
"0 394 CURVE",
"4 426 LINE"
);
}
);
width = 424;
},
{
layerId = "5A1ECF60-5C3D-4C60-84B4-C69E600E0422";
paths = (
{
closed = 1;
nodes = (
"287 488 OFFCURVE",
"359 524 OFFCURVE",
"422 524 CURVE SMOOTH",
"525 524 OFFCURVE",
"570 457 OFFCURVE",
"567 374 CURVE SMOOTH",
"559 127 LINE SMOOTH",
"558 100 OFFCURVE",
"574 92 OFFCURVE",
"591 90 CURVE SMOOTH",
"613 88 LINE",
"613 -4 LINE",
"474 0 LINE",
"336 -4 LINE",
"338 90 LINE",
"355 92 OFFCURVE",
"368 94 OFFCURVE",
"368 130 CURVE SMOOTH",
"367 313 LINE SMOOTH",
"367 376 OFFCURVE",
"332 419 OFFCURVE",
"233 336 CURVE",
"244 402 LINE"
);
}
);
width = 622;
},
{
associatedMasterId = "1B5E7594-BD1E-41E1-80E1-0DE241437139";
layerId = "19B4AB72-2810-48F9-8ABA-2E63CDD6DB48";
name = "Mar 30 18, 20:24";
paths = (
{
closed = 1;
nodes = (
"47 472 OFFCURVE",
"112 508 OFFCURVE",
"193 508 CURVE SMOOTH",
"276 508 OFFCURVE",
"332 453 OFFCURVE",
"331 360 CURVE SMOOTH",
"329 69 LINE SMOOTH",
"329 46 OFFCURVE",
"345 34 OFFCURVE",
"367 33 CURVE SMOOTH",
"415 31 LINE",
"415 -4 LINE",
"302 0 LINE",
"179 -4 LINE",
"179 31 LINE",
"253 34 OFFCURVE",
"265 45 OFFCURVE",
"265 82 CURVE SMOOTH",
"265 363 LINE SMOOTH",
"265 440 OFFCURVE",
"184 505 OFFCURVE",
"-9 394 CURVE",
"-5 426 LINE"
);
}
);
width = 402;
}
);
},
{
color = 1;
glyphname = n_stem;
lastChange = "2018-04-11 18:12:45 +0000";
layers = (
{
layerId = "1B5E7594-BD1E-41E1-80E1-0DE241437139";
paths = (
{
closed = 1;
nodes = (
"58 483 OFFCURVE",
"92 494 OFFCURVE",
"138 506 CURVE",
"147 500 LINE",
"147 428 LINE",
"150 410 LINE",
"149 80 LINE SMOOTH",
"149 43 OFFCURVE",
"160 34 OFFCURVE",
"236 31 CURVE",
"236 -4 LINE",
"118 0 LINE",
"0 -4 LINE",
"0 31 LINE",
"39 33 LINE SMOOTH",
"68 34 OFFCURVE",
"82 45 OFFCURVE",
"82 75 CURVE SMOOTH",
"82 384 LINE SMOOTH",
"82 406 OFFCURVE",
"81 437 OFFCURVE",
"48 440 CURVE SMOOTH",
"0 444 LINE",
"0 471 LINE"
);
}
);
width = 236;
},
{
layerId = "5A1ECF60-5C3D-4C60-84B4-C69E600E0422";
paths = (
{
closed = 1;
nodes = (
"107 499 OFFCURVE",
"183 509 OFFCURVE",
"257 523 CURVE",
"275 506 LINE",
"274 435 LINE",
"281 404 LINE",
"280 127 LINE SMOOTH",
"280 98 OFFCURVE",
"292 93 OFFCURVE",
"316 90 CURVE",
"314 -3 LINE",
"174 0 LINE",
"26 -3 LINE",
"27 89 LINE",
"53 94 LINE SMOOTH",
"75 98 OFFCURVE",
"84 110 OFFCURVE",
"84 131 CURVE SMOOTH",
"84 362 LINE SMOOTH",
"84 385 OFFCURVE",
"73 402 OFFCURVE",
"53 404 CURVE SMOOTH",
"26 407 LINE",
"27 495 LINE"
);
}
);
width = 343;
},
{
associatedMasterId = "1B5E7594-BD1E-41E1-80E1-0DE241437139";
layerId = "28B82E86-0A02-4803-AB3B-3DE0D3122E6B";
name = "Mar 30 18, 20:24";
paths = (
{
closed = 1;
nodes = (
"57 483 OFFCURVE",
"91 494 OFFCURVE",
"137 506 CURVE",
"146 500 LINE",
"146 428 LINE",
"149 410 LINE",
"149 80 LINE SMOOTH",
"149 43 OFFCURVE",
"159 34 OFFCURVE",
"235 31 CURVE",
"235 -4 LINE",
"117 0 LINE",
"-1 -4 LINE",
"-1 31 LINE",
"38 33 LINE SMOOTH",
"67 34 OFFCURVE",
"79 47 OFFCURVE",
"79 74 CURVE SMOOTH",
"81 384 LINE SMOOTH",
"81 406 OFFCURVE",
"80 436 OFFCURVE",
"47 439 CURVE SMOOTH",
"-1 443 LINE",
"-1 471 LINE"
);
}
);
width = 222;
}
);
},
{
color = 1;
glyphname = o;
lastChange = "2018-04-11 18:22:57 +0000";
layers = (
{
anchors = (
{
name = bottom;
position = "{284, 0}";
},
{
name = center;
position = "{284, 250}";
},
{
name = ogonek;
position = "{511, 10}";
},
{
name = top;
position = "{284, 500}";
},
{
name = topright;
position = "{548, 500}";
}
);
guideLines = (
{
position = "{892, 509}";
}
);
layerId = "1B5E7594-BD1E-41E1-80E1-0DE241437139";
paths = (
{
closed = 1;
nodes = (
"415 -14 OFFCURVE",
"513 76 OFFCURVE",
"514 257 CURVE SMOOTH",
"515 402 OFFCURVE",
"416 511 OFFCURVE",
"284 511 CURVE SMOOTH",
"153 511 OFFCURVE",
"55 402 OFFCURVE",
"54 257 CURVE SMOOTH",
"53 76 OFFCURVE",
"148 -14 OFFCURVE",
"284 -14 CURVE SMOOTH"
);
},
{
closed = 1;
nodes = (
"175 31 OFFCURVE",
"132 128 OFFCURVE",
"132 240 CURVE SMOOTH",
"132 244 OFFCURVE",
"132 257 OFFCURVE",
"132 261 CURVE SMOOTH",
"132 363 OFFCURVE",
"184 466 OFFCURVE",
"284 466 CURVE SMOOTH",
"389 466 OFFCURVE",
"439 371 OFFCURVE",
"439 262 CURVE SMOOTH",
"439 258 OFFCURVE",
"439 244 OFFCURVE",
"439 240 CURVE SMOOTH",
"439 128 OFFCURVE",
"392 31 OFFCURVE",
"284 31 CURVE SMOOTH"
);
}
);
width = 568;
},
{
anchors = (
{
name = bottom;
position = "{289, 0}";
},
{
name = center;
position = "{289, 253}";
},
{
name = ogonek;
position = "{519, 10}";
},
{
name = top;
position = "{289, 506}";
},
{
name = topright;
position = "{557, 506}";
}
);
background = {
paths = (
{
closed = 1;
nodes = (
"460 -13 OFFCURVE",
"557 79 OFFCURVE",
"559 259 CURVE SMOOTH",
"561 431 OFFCURVE",
"469 519 OFFCURVE",
"289 518 CURVE SMOOTH",
"110 517 OFFCURVE",
"18 428 OFFCURVE",
"18 259 CURVE SMOOTH",
"18 79 OFFCURVE",
"106 -13 OFFCURVE",
"285 -13 CURVE SMOOTH"
);
},
{
closed = 1;
nodes = (
"328 419 OFFCURVE",
"335 395 OFFCURVE",
"335 369 CURVE SMOOTH",
"335 345 OFFCURVE",
"335 162 OFFCURVE",
"335 149 CURVE SMOOTH",
"335 115 OFFCURVE",
"327 80 OFFCURVE",
"288 80 CURVE SMOOTH",
"248 80 OFFCURVE",
"242 115 OFFCURVE",
"242 149 CURVE SMOOTH",
"242 163 OFFCURVE",
"242 346 OFFCURVE",
"242 369 CURVE SMOOTH",
"242 395 OFFCURVE",
"247 419 OFFCURVE",
"288 419 CURVE SMOOTH"
);
}
);
};
guideLines = (
{
position = "{993, 517}";
},
{
position = "{998, 421}";
},
{
angle = -0.1936;
position = "{-303, 525}";
},
{
position = "{-605, -16}";
}
);
layerId = "5A1ECF60-5C3D-4C60-84B4-C69E600E0422";
paths = (
{
closed = 1;
nodes = (
"460 -16 OFFCURVE",
"557 73 OFFCURVE",
"559 257 CURVE SMOOTH",
"561 434 OFFCURVE",
"469 524 OFFCURVE",
"289 523 CURVE SMOOTH",
"110 522 OFFCURVE",
"18 431 OFFCURVE",
"18 257 CURVE SMOOTH",
"18 73 OFFCURVE",
"106 -16 OFFCURVE",
"285 -16 CURVE SMOOTH"
);
},
{
closed = 1;
nodes = (
"249 95 OFFCURVE",
"242 135 OFFCURVE",
"242 161 CURVE SMOOTH",
"242 235 OFFCURVE",
"242 279 OFFCURVE",
"242 342 CURVE SMOOTH",
"242 376 OFFCURVE",
"250 411 OFFCURVE",
"289 411 CURVE SMOOTH",
"329 411 OFFCURVE",
"335 376 OFFCURVE",
"335 342 CURVE SMOOTH",
"335 278 OFFCURVE",
"335 234 OFFCURVE",
"335 161 CURVE SMOOTH",
"335 135 OFFCURVE",
"330 95 OFFCURVE",
"289 95 CURVE SMOOTH"
);
}
);
width = 577;
},
{
associatedMasterId = "1B5E7594-BD1E-41E1-80E1-0DE241437139";
background = {
components = (
{
name = n;
transform = "{1, 0, 0, 1, -59, 0}";
}
);
};
guideLines = (
{
position = "{854, 505}";
}
);
layerId = "976344E7-440A-453F-B045-D700F7E77F33";
name = "Mar 30 18, 20:24";
paths = (
{
closed = 1;
nodes = (
"377 -14 OFFCURVE",
"473 95 OFFCURVE",
"474 257 CURVE SMOOTH",
"475 402 OFFCURVE",
"378 511 OFFCURVE",
"247 511 CURVE SMOOTH",
"115 511 OFFCURVE",
"19 402 OFFCURVE",
"18 257 CURVE SMOOTH",
"17 95 OFFCURVE",
"110 -14 OFFCURVE",
"245 -14 CURVE SMOOTH"
);
},
{
closed = 1;
nodes = (
"137 31 OFFCURVE",
"96 138 OFFCURVE",
"96 257 CURVE SMOOTH",
"96 261 OFFCURVE",
"96 264 OFFCURVE",
"96 268 CURVE SMOOTH",
"96 363 OFFCURVE",
"146 466 OFFCURVE",
"247 466 CURVE SMOOTH",
"351 466 OFFCURVE",
"399 371 OFFCURVE",
"399 269 CURVE SMOOTH",
"399 265 OFFCURVE",
"399 261 OFFCURVE",
"399 257 CURVE SMOOTH",
"399 138 OFFCURVE",
"354 31 OFFCURVE",
"245 31 CURVE SMOOTH"
);
}
);
width = 492;
}
);
unicode = 006F;
},
{
glyphname = oslash;
lastChange = "2018-04-01 18:23:14 +0000";
layers = (
{
components = (
{
name = o;
}
);
guideLines = (
{
angle = 55;
position = "{253, 352}";
}
);
layerId = "1B5E7594-BD1E-41E1-80E1-0DE241437139";
paths = (
{
closed = 1;
nodes = (
"63 -84 LINE",
"81 -79 LINE",
"529 570 LINE",
"502 593 LINE",
"486 587 LINE",
"37 -59 LINE"
);
}
);
width = 568;
},
{
components = (
{
name = o;
}
);
layerId = "5A1ECF60-5C3D-4C60-84B4-C69E600E0422";
paths = (
{
closed = 1;
nodes = (
"93 -119 LINE",
"124 -118 LINE",
"590 550 LINE",
"497 625 LINE",
"451 623 LINE",
"-16 -42 LINE"
);
}
);
width = 577;
},
{
associatedMasterId = "1B5E7594-BD1E-41E1-80E1-0DE241437139";
components = (
{
name = o;
}
);
layerId = "4FB7395A-7902-4D71-97CE-BD0B2180ADCE";
name = "Light [110]";
paths = (
{
closed = 1;
nodes = (
"424 405 LINE",
"538 563 LINE",
"506 587 LINE",
"490 582 LINE",
"388 443 LINE"
);
},
{
closed = 1;
nodes = (
"129 90 LINE",
"27 -50 LINE",
"58 -76 LINE",
"76 -72 LINE",
"169 55 LINE"
);
}
);
width = 568;
},
{
associatedMasterId = "5A1ECF60-5C3D-4C60-84B4-C69E600E0422";
components = (
{
name = o;
}
);
layerId = "41C99D80-B7B3-45D7-BD78-5DD4BCF9E5BB";
name = "Black [110]";
paths = (
{
closed = 1;
nodes = (
"447 356 LINE",
"585 547 LINE",
"494 622 LINE",
"448 621 LINE",
"326 453 LINE"
);
},
{
closed = 1;
nodes = (
"136 162 LINE",
"-10 -37 LINE",
"97 -116 LINE",
"128 -116 LINE",
"261 67 LINE"
);
}
);
width = 577;
}
);
unicode = 00F8;
},
{
glyphname = oe;
lastChange = "2018-04-01 18:47:24 +0000";
layers = (
{
layerId = "1B5E7594-BD1E-41E1-80E1-0DE241437139";
paths = (
{
closed = 1;
nodes = (
"750 464 OFFCURVE",
"777 421 OFFCURVE",
"769 325 CURVE",
"492 324 LINE",
"485 282 LINE",
"833 284 LINE",
"861 454 OFFCURVE",
"797 510 OFFCURVE",
"669 510 CURVE SMOOTH",
"535 510 OFFCURVE",
"440 408 OFFCURVE",
"440 240 CURVE SMOOTH",
"440 73 OFFCURVE",
"541 -6 OFFCURVE",
"654 -12 CURVE SMOOTH",
"716 -14 OFFCURVE",
"781 5 OFFCURVE",
"836 45 CURVE",
"829 76 LINE",
"814 82 LINE",
"672 5 OFFCURVE",
"513 56 OFFCURVE",
"513 231 CURVE SMOOTH",
"513 353 OFFCURVE",
"557 464 OFFCURVE",
"665 464 CURVE SMOOTH"
);
},
{
closed = 1;
nodes = (
"415 -14 OFFCURVE",
"513 76 OFFCURVE",
"514 257 CURVE SMOOTH",
"515 402 OFFCURVE",
"416 511 OFFCURVE",
"284 511 CURVE SMOOTH",
"153 511 OFFCURVE",
"55 402 OFFCURVE",
"54 257 CURVE SMOOTH",
"53 76 OFFCURVE",
"148 -14 OFFCURVE",
"284 -14 CURVE SMOOTH"
);
},
{
closed = 1;
nodes = (
"175 31 OFFCURVE",
"132 128 OFFCURVE",
"132 240 CURVE SMOOTH",
"132 244 OFFCURVE",
"132 257 OFFCURVE",
"132 261 CURVE SMOOTH",
"132 363 OFFCURVE",
"184 466 OFFCURVE",
"284 466 CURVE SMOOTH",
"389 466 OFFCURVE",
"439 371 OFFCURVE",
"439 262 CURVE SMOOTH",
"439 258 OFFCURVE",
"439 244 OFFCURVE",
"439 240 CURVE SMOOTH",
"439 128 OFFCURVE",
"392 31 OFFCURVE",
"284 31 CURVE SMOOTH"
);
}
);
width = 898;
},
{
layerId = "5A1ECF60-5C3D-4C60-84B4-C69E600E0422";
paths = (
{
closed = 1;
nodes = (
"650 424 OFFCURVE",
"660 386 OFFCURVE",
"653 331 CURVE",
"456 330 LINE",
"450 249 LINE",
"823 250 LINE",
"862 446 OFFCURVE",
"800 527 OFFCURVE",
"616 522 CURVE SMOOTH",
"442 517 OFFCURVE",
"371 384 OFFCURVE",
"371 229 CURVE SMOOTH",
"371 123 OFFCURVE",
"409 -16 OFFCURVE",
"608 -16 CURVE SMOOTH",
"683 -16 OFFCURVE",
"769 2 OFFCURVE",
"831 65 CURVE",
"809 144 LINE",
"789 155 LINE",
"619 94 OFFCURVE",
"535 108 OFFCURVE",
"538 268 CURVE SMOOTH",
"540 374 OFFCURVE",
"574 424 OFFCURVE",
"612 424 CURVE SMOOTH"
);
},
{
closed = 1;
nodes = (
"460 -16 OFFCURVE",
"537 73 OFFCURVE",
"539 257 CURVE SMOOTH",
"541 434 OFFCURVE",
"469 524 OFFCURVE",
"289 523 CURVE SMOOTH",
"110 522 OFFCURVE",
"18 431 OFFCURVE",
"18 257 CURVE SMOOTH",
"18 73 OFFCURVE",
"106 -16 OFFCURVE",
"285 -16 CURVE SMOOTH"
);
},
{
closed = 1;
nodes = (
"249 95 OFFCURVE",
"242 135 OFFCURVE",
"242 161 CURVE SMOOTH",
"242 235 OFFCURVE",
"242 279 OFFCURVE",
"242 342 CURVE SMOOTH",
"242 376 OFFCURVE",
"250 411 OFFCURVE",
"289 411 CURVE SMOOTH",
"329 411 OFFCURVE",
"335 376 OFFCURVE",
"335 342 CURVE SMOOTH",
"335 278 OFFCURVE",
"335 234 OFFCURVE",
"335 161 CURVE SMOOTH",
"335 135 OFFCURVE",
"330 95 OFFCURVE",
"289 95 CURVE SMOOTH"
);
}
);
width = 864;
}
);
leftMetricsKey = o;
rightMetricsKey = e;
unicode = 0153;
},
{
color = 1;
glyphname = p;
lastChange = "2018-04-11 18:34:33 +0000";
layers = (
{
anchors = (
{
name = bottom;
position = "{287, 0}";
},
{
name = top;
position = "{287, 500}";
}
);
background = {
components = (
{
name = b;
transform = "{1, 0, 0, 1, 4, 0}";
}
);
};
components = (
{
name = _part_bowl;
transform = "{1, 0, 0, 1, 95, 0}";
}
);
guideLines = (
{
position = "{848, -183}";
},
{
position = "{-437, -11}";
},
{
position = "{176, 511}";
}
);
layerId = "1B5E7594-BD1E-41E1-80E1-0DE241437139";
paths = (
{
closed = 1;
nodes = (
"28 471 LINE",
"86 483 OFFCURVE",
"120 494 OFFCURVE",
"161 506 CURVE",
"170 500 LINE",
"170 428 LINE",
"173 411 LINE",
"173 -116 LINE SMOOTH",
"173 -144 OFFCURVE",
"182 -160 OFFCURVE",
"215 -162 CURVE SMOOTH",
"259 -165 LINE",
"259 -200 LINE",
"141 -197 LINE",
"28 -201 LINE",
"28 -166 LINE",
"67 -164 LINE SMOOTH",
"96 -163 OFFCURVE",
"108 -150 OFFCURVE",
"108 -123 CURVE SMOOTH",
"110 384 LINE SMOOTH",
"110 406 OFFCURVE",
"109 436 OFFCURVE",
"76 439 CURVE SMOOTH",
"28 443 LINE"
);
}
);
width = 578;
},
{
anchors = (
{
name = bottom;
position = "{303, 0}";
},
{
name = top;
position = "{303, 506}";
}
);
background = {
components = (
{
name = q;
transform = "{1, 0, 0, 1, 26, 0}";
}
);
};
components = (
{
name = _part_bowl;
piece = {
"d,q" = 1;
};
transform = "{1, 0, 0, 1, 24, 7}";
}
);
layerId = "5A1ECF60-5C3D-4C60-84B4-C69E600E0422";
paths = (
{
closed = 1;
nodes = (
"13 495 LINE",
"92 497 OFFCURVE",
"170 509 OFFCURVE",
"243 524 CURVE",
"260 507 LINE",
"259 439 LINE",
"268 399 LINE",
"267 -80 LINE SMOOTH",
"267 -98 OFFCURVE",
"280 -110 OFFCURVE",
"310 -112 CURVE SMOOTH",
"341 -114 LINE",
"341 -204 LINE",
"175 -200 LINE",
"15 -204 LINE",
"15 -114 LINE",
"43 -110 LINE SMOOTH",
"61 -107 OFFCURVE",
"71 -94 OFFCURVE",
"71 -72 CURVE SMOOTH",
"71 361 LINE SMOOTH",
"71 382 OFFCURVE",
"63 401 OFFCURVE",
"43 403 CURVE SMOOTH",
"13 406 LINE"
);
}
);
width = 606;
}
);
unicode = 0070;
},
{
glyphname = thorn;
lastChange = "2018-04-01 13:50:49 +0000";
layers = (
{
anchors = (
{
name = bottom;
position = "{292, 0}";
},
{
name = top;
position = "{292, 500}";
}
);
background = {
components = (
{
name = h;
transform = "{1, 0, 0, 1, 2, 0}";
}
);
};
components = (
{
name = _part_bowl;
transform = "{1, 0, 0, 1, 100, 0}";
}
);
layerId = "1B5E7594-BD1E-41E1-80E1-0DE241437139";
paths = (
{
closed = 1;
nodes = (
"28 774 LINE",
"86 781 OFFCURVE",
"127 790 OFFCURVE",
"169 796 CURVE",
"178 790 LINE",
"178 -117 LINE",
"178 -145 OFFCURVE",
"187 -161 OFFCURVE",
"220 -163 CURVE SMOOTH",
"264 -166 LINE",
"264 -201 LINE",
"146 -197 LINE",
"28 -201 LINE",
"28 -166 LINE",
"67 -164 LINE SMOOTH",
"96 -163 OFFCURVE",
"108 -150 OFFCURVE",
"108 -123 CURVE SMOOTH",
"110 687 LINE SMOOTH",
"110 709 OFFCURVE",
"106 735 OFFCURVE",
"76 738 CURVE SMOOTH",
"28 743 LINE"
);
}
);
width = 583;
},
{
anchors = (
{
name = bottom;
position = "{303, 0}";
},
{
name = top;
position = "{303, 506}";
}
);
background = {
components = (
{
name = h;
}
);
};
components = (
{
name = _part_bowl;
piece = {
"d,q" = 1;
};
transform = "{1, 0, 0, 1, 31, 7}";
}
);
layerId = "5A1ECF60-5C3D-4C60-84B4-C69E600E0422";
paths = (
{
closed = 1;
nodes = (
"13 784 LINE",
"92 786 OFFCURVE",
"185 798 OFFCURVE",
"258 813 CURVE",
"275 796 LINE",
"272 -80 LINE SMOOTH",
"272 -98 OFFCURVE",
"287 -110 OFFCURVE",
"317 -112 CURVE SMOOTH",
"348 -114 LINE",
"348 -204 LINE",
"175 -200 LINE",
"15 -204 LINE",
"15 -114 LINE",
"43 -110 LINE SMOOTH",
"61 -107 OFFCURVE",
"71 -94 OFFCURVE",
"71 -72 CURVE SMOOTH",
"71 650 LINE SMOOTH",
"71 671 OFFCURVE",
"63 690 OFFCURVE",
"43 692 CURVE SMOOTH",
"13 695 LINE"
);
}
);
width = 606;
}
);
unicode = 00FE;
},
{
color = 1;
glyphname = q;
lastChange = "2018-04-11 18:34:39 +0000";
layers = (
{
anchors = (
{
name = bottom;
position = "{285, 0}";
},
{
name = top;
position = "{285, 500}";
}
);
background = {
components = (
{
name = l;
transform = "{1, 0, 0, 1, 301, 0}";
}
);
};
components = (
{
name = _part_bowl;
transform = "{-1, 0, 0, -1, 483, 494}";
}
);
guideLines = (
{
position = "{616, -167}";
},
{
position = "{615, -202}";
}
);
layerId = "1B5E7594-BD1E-41E1-80E1-0DE241437139";
paths = (
{
closed = 1;
nodes = (
"321 -166 LINE",
"375 -162 LINE SMOOTH",
"398 -160 OFFCURVE",
"409 -145 OFFCURVE",
"409 -121 CURVE SMOOTH",
"409 402 LINE SMOOTH",
"409 434 OFFCURVE",
"435 480 OFFCURVE",
"463 506 CURVE",
"495 491 LINE",
"495 480 LINE",
"478 440 OFFCURVE",
"474 409 OFFCURVE",
"474 365 CURVE SMOOTH",
"474 -123 LINE SMOOTH",
"474 -148 OFFCURVE",
"485 -162 OFFCURVE",
"506 -164 CURVE SMOOTH",
"545 -167 LINE",
"545 -202 LINE",
"437 -198 LINE",
"321 -202 LINE"
);
}
);
width = 571;
},
{
associatedMasterId = "5A1ECF60-5C3D-4C60-84B4-C69E600E0422";
guideLines = (
{
position = "{-219, 516}";
}
);
layerId = "8D1CA527-C9E7-4B61-BD44-A1816776B035";
name = "Jan 1 18, 16:39";
paths = (
{
closed = 1;
nodes = (
"245 -112 LINE",
"293 -107 LINE SMOOTH",
"321 -104 OFFCURVE",
"332 -80 OFFCURVE",
"332 -49 CURVE SMOOTH",
"330 421 LINE",
"363 396 LINE",
"448 516 LINE",
"526 516 LINE",
"525 -65 LINE SMOOTH",
"525 -88 OFFCURVE",
"537 -102 OFFCURVE",
"559 -106 CURVE SMOOTH",
"583 -110 LINE",
"581 -203 LINE",
"420 -200 LINE",
"244 -204 LINE"
);
},
{
closed = 1;
nodes = (
"389 146 LINE",
"349 64 OFFCURVE",
"285 -8 OFFCURVE",
"191 -8 CURVE SMOOTH",
"78 -8 OFFCURVE",
"15 91 OFFCURVE",
"15 236 CURVE SMOOTH",
"15 410 OFFCURVE",
"104 520 OFFCURVE",
"235 520 CURVE SMOOTH",
"355 520 OFFCURVE",
"401 481 OFFCURVE",
"433 391 CURVE",
"347 378 LINE",
"332 394 OFFCURVE",
"313 403 OFFCURVE",
"292 402 CURVE SMOOTH",
"259 400 OFFCURVE",
"240 366 OFFCURVE",
"238 279 CURVE SMOOTH",
"235 169 OFFCURVE",
"252 125 OFFCURVE",
"290 125 CURVE SMOOTH",
"311 125 OFFCURVE",
"330 132 OFFCURVE",
"347 145 CURVE"
);
}
);
width = 583;
},
{
anchors = (
{
name = bottom;
position = "{296, 0}";
},
{
name = top;
position = "{296, 506}";
}
);
components = (
{
name = _part_bowl;
piece = {
"d,q" = 1;
};
transform = "{-1, 0, 0, -1, 582, 505}";
}
);
guideLines = (
{
position = "{-215, 516}";
}
);
layerId = "5A1ECF60-5C3D-4C60-84B4-C69E600E0422";
paths = (
{
closed = 1;
nodes = (
"249 -112 LINE",
"297 -107 LINE SMOOTH",
"325 -104 OFFCURVE",
"336 -80 OFFCURVE",
"336 -49 CURVE SMOOTH",
"338 384 LINE SMOOTH",
"338 418 OFFCURVE",
"405 514 OFFCURVE",
"482 523 CURVE",
"567 481 LINE",
"567 454 LINE",
"535 406 OFFCURVE",
"531 358 OFFCURVE",
"531 286 CURVE SMOOTH",
"529 -65 LINE SMOOTH",
"529 -88 OFFCURVE",
"541 -102 OFFCURVE",
"563 -106 CURVE SMOOTH",
"587 -110 LINE",
"585 -203 LINE",
"424 -200 LINE",
"248 -204 LINE"
);
}
);
width = 592;
},
{
associatedMasterId = "1B5E7594-BD1E-41E1-80E1-0DE241437139";
background = {
components = (
{
name = p;
transform = "{1, 0, 0, 1, -52, 0}";
}
);
};
components = (
{
name = _part_bowl;
transform = "{-1, 0, 0, -1, 534, 499}";
}
);
layerId = "9A02D587-E3D9-4210-883C-CB67A1F7F378";
name = "Mar 30 18, 20:24";
paths = (
{
closed = 1;
nodes = (
"281 -161 LINE",
"335 -157 LINE SMOOTH",
"358 -155 OFFCURVE",
"369 -140 OFFCURVE",
"369 -116 CURVE SMOOTH",
"369 402 LINE SMOOTH",
"369 434 OFFCURVE",
"395 480 OFFCURVE",
"423 506 CURVE",
"455 491 LINE",
"455 480 LINE",
"438 440 OFFCURVE",
"432 409 OFFCURVE",
"432 365 CURVE SMOOTH",
"434 -118 LINE SMOOTH",
"434 -143 OFFCURVE",
"445 -157 OFFCURVE",
"466 -159 CURVE SMOOTH",
"505 -162 LINE",
"505 -204 LINE",
"397 -200 LINE",
"281 -204 LINE"
);
}
);
width = 489;
}
);
unicode = 0071;
},
{
color = 1;
glyphname = r;
lastChange = "2018-04-11 18:22:57 +0000";
layers = (
{
anchors = (
{
name = bottom;
position = "{183, 0}";
},
{
name = top;
position = "{183, 500}";
}
);
background = {
components = (
{
name = n;
transform = "{1, 0, 0, 1, 41, 0}";
}
);
};
components = (
{
name = n_stem;
transform = "{1, 0, 0, 1, 41, 0}";
}
);
guideLines = (
{
position = "{8, 471}";
}
);
layerId = "1B5E7594-BD1E-41E1-80E1-0DE241437139";
paths = (
{
closed = 1;
nodes = (
"193 442 OFFCURVE",
"282 506 OFFCURVE",
"354 506 CURVE",
"366 493 LINE",
"352 426 LINE",
"339 419 LINE",
"274 435 OFFCURVE",
"240 430 OFFCURVE",
"165 383 CURVE",
"165 408 LINE"
);
},
{
closed = 1;
nodes = (
"272 31 LINE",
"300 31 LINE",
"300 -4 LINE",
"272 -4 LINE"
);
}
);
width = 365;
},
{
anchors = (
{
name = bottom;
position = "{231, 0}";
},
{
name = top;
position = "{231, 506}";
}
);
background = {
components = (
{
name = n;
}
);
};
components = (
{
name = n_stem;
}
);
layerId = "5A1ECF60-5C3D-4C60-84B4-C69E600E0422";
paths = (
{
closed = 1;
nodes = (
"270 449 OFFCURVE",
"348 537 OFFCURVE",
"458 522 CURVE",
"480 494 LINE",
"455 345 LINE",
"407 328 LINE",
"364 376 OFFCURVE",
"307 381 OFFCURVE",
"257 339 CURVE",
"242 361 LINE"
);
},
{
closed = 1;
nodes = (
"309 90 LINE",
"351 89 LINE",
"351 -4 LINE",
"308 -3 LINE"
);
}
);
width = 462;
},
{
associatedMasterId = "1B5E7594-BD1E-41E1-80E1-0DE241437139";
background = {
components = (
{
name = n;
transform = "{1, 0, 0, 1, -1, 0}";
}
);
};
components = (
{
name = n_stem;
}
);
guideLines = (
{
position = "{-34, 471}";
}
);
layerId = "5FC17309-ADF4-4F2E-BCB1-B65E374BA09D";
name = "Mar 30 18, 20:24";
paths = (
{
closed = 1;
nodes = (
"151 442 OFFCURVE",
"240 506 OFFCURVE",
"312 506 CURVE",
"324 493 LINE",
"310 426 LINE",
"297 419 LINE",
"232 435 OFFCURVE",
"198 430 OFFCURVE",
"123 383 CURVE",
"123 408 LINE"
);
},
{
closed = 1;
nodes = (
"230 31 LINE",
"258 31 LINE",
"258 -4 LINE",
"230 -4 LINE"
);
}
);
width = 314;
}
);
unicode = 0072;
},
{
color = 1;
glyphname = s;
lastChange = "2018-04-11 18:35:39 +0000";
layers = (
{
anchors = (
{
name = bottom;
position = "{256, 0}";
},
{
name = top;
position = "{256, 506}";
}
);
guideLines = (
{
position = "{-1134, -13}";
}
);
layerId = "5A1ECF60-5C3D-4C60-84B4-C69E600E0422";
paths = (
{
closed = 1;
nodes = (
"44 482 OFFCURVE",
"153 524 OFFCURVE",
"267 524 CURVE SMOOTH",
"352 524 OFFCURVE",
"389 517 OFFCURVE",
"446 504 CURVE",
"466 476 LINE",
"438 341 LINE",
"307 341 LINE",
"315 405 OFFCURVE",
"319 428 OFFCURVE",
"271 428 CURVE SMOOTH",
"242 428 OFFCURVE",
"222 413 OFFCURVE",
"222 385 CURVE SMOOTH",
"222 354 OFFCURVE",
"244 339 OFFCURVE",
"303 324 CURVE SMOOTH",
"437 290 OFFCURVE",
"491 268 OFFCURVE",
"488 160 CURVE SMOOTH",
"485 51 OFFCURVE",
"409 -14 OFFCURVE",
"229 -14 CURVE SMOOTH",
"159 -14 OFFCURVE",
"97 -9 OFFCURVE",
"40 12 CURVE",
"23 43 LINE",
"50 172 LINE",
"183 169 LINE",
"175 94 OFFCURVE",
"186 72 OFFCURVE",
"241 72 CURVE SMOOTH",
"271 72 OFFCURVE",
"293 89 OFFCURVE",
"293 115 CURVE SMOOTH",
"293 148 OFFCURVE",
"257 158 OFFCURVE",
"213 171 CURVE SMOOTH",
"104 203 OFFCURVE",
"33 251 OFFCURVE",
"38 357 CURVE SMOOTH"
);
}
);
width = 511;
},
{
associatedMasterId = "1B5E7594-BD1E-41E1-80E1-0DE241437139";
background = {
components = (
{
name = f;
transform = "{1, 0, 0, 1, 97, -304}";
}
);
};
layerId = "FA567820-42F0-42A7-9552-D4E6B2874EB4";
name = "Mar 30 18, 17:33";
paths = (
{
closed = 1;
nodes = (
"55 462 OFFCURVE",
"151 511 OFFCURVE",
"265 507 CURVE SMOOTH",
"322 505 OFFCURVE",
"354 497 OFFCURVE",
"379 488 CURVE",
"397 423 LINE",
"388 414 LINE",
"388 414 OFFCURVE",
"324 444 OFFCURVE",
"243 444 CURVE SMOOTH",
"169 444 OFFCURVE",
"118 426 OFFCURVE",
"117 368 CURVE SMOOTH",
"116 326 OFFCURVE",
"138 303 OFFCURVE",
"240 277 CURVE SMOOTH",
"329 254 OFFCURVE",
"408 224 OFFCURVE",
"403 138 CURVE SMOOTH",
"397 29 OFFCURVE",
"302 -13 OFFCURVE",
"209 -13 CURVE SMOOTH",
"144 -13 OFFCURVE",
"97 -4 OFFCURVE",
"49 25 CURVE",
"46 37 LINE",
"62 140 LINE",
"110 140 LINE",
"99 41 OFFCURVE",
"127 34 OFFCURVE",
"212 32 CURVE SMOOTH",
"283 30 OFFCURVE",
"337 68 OFFCURVE",
"338 121 CURVE SMOOTH",
"339 180 OFFCURVE",
"278 193 OFFCURVE",
"200 212 CURVE SMOOTH",
"122 232 OFFCURVE",
"55 268 OFFCURVE",
"55 360 CURVE SMOOTH"
);
}
);
width = 478;
},
{
anchors = (
{
name = bottom;
position = "{237, 0}";
},
{
name = top;
position = "{237, 500}";
}
);
background = {
paths = (
{
closed = 1;
nodes = (
"339 -13 OFFCURVE",
"417 54 OFFCURVE",
"417 139 CURVE SMOOTH",
"417 224 OFFCURVE",
"335 265 OFFCURVE",
"263 301 CURVE SMOOTH",
"207 329 OFFCURVE",
"159 354 OFFCURVE",
"159 392 CURVE SMOOTH",
"159 411 OFFCURVE",
"166 428 OFFCURVE",
"176 437 CURVE",
"183 443 OFFCURVE",
"214 453 OFFCURVE",
"250 453 CURVE SMOOTH",
"273 453 OFFCURVE",
"298 447 OFFCURVE",
"313 442 CURVE",
"322 413 OFFCURVE",
"326 388 OFFCURVE",
"330 360 CURVE",
"346 353 OFFCURVE",
"361 352 OFFCURVE",
"378 357 CURVE",
"389 392 OFFCURVE",
"392 435 OFFCURVE",
"392 481 CURVE",
"356 495 OFFCURVE",
"315 506 OFFCURVE",
"233 506 CURVE SMOOTH",
"171 506 OFFCURVE",
"68 474 OFFCURVE",
"68 372 CURVE SMOOTH",
"68 299 OFFCURVE",
"144 260 OFFCURVE",
"213 224 CURVE SMOOTH",
"270 194 OFFCURVE",
"321 168 OFFCURVE",
"321 124 CURVE SMOOTH",
"321 100 OFFCURVE",
"316 79 OFFCURVE",
"305 70 CURVE",
"291 59 OFFCURVE",
"263 48 OFFCURVE",
"232 48 CURVE SMOOTH",
"198 48 OFFCURVE",
"163 58 OFFCURVE",
"144 70 CURVE",
"130 106 OFFCURVE",
"124 139 OFFCURVE",
"121 171 CURVE",
"102 176 OFFCURVE",
"87 176 OFFCURVE",
"69 169 CURVE",
"60 123 OFFCURVE",
"59 73 OFFCURVE",
"69 22 CURVE",
"88 14 OFFCURVE",
"153 -13 OFFCURVE",
"233 -13 CURVE SMOOTH"
);
}
);
};
layerId = "1B5E7594-BD1E-41E1-80E1-0DE241437139";
paths = (
{
closed = 1;
nodes = (
"70 462 OFFCURVE",
"166 511 OFFCURVE",
"280 507 CURVE SMOOTH",
"337 505 OFFCURVE",
"369 497 OFFCURVE",
"394 488 CURVE",
"399 474 LINE",
"383 364 LINE",
"340 364 LINE",
"346 445 OFFCURVE",
"323 460 OFFCURVE",
"268 461 CURVE SMOOTH",
"194 462 OFFCURVE",
"133 426 OFFCURVE",
"132 368 CURVE SMOOTH",
"131 326 OFFCURVE",
"153 303 OFFCURVE",
"255 277 CURVE SMOOTH",
"344 254 OFFCURVE",
"423 224 OFFCURVE",
"418 138 CURVE SMOOTH",
"412 29 OFFCURVE",
"317 -13 OFFCURVE",
"224 -13 CURVE SMOOTH",
"159 -13 OFFCURVE",
"112 -4 OFFCURVE",
"64 25 CURVE",
"61 37 LINE",
"77 140 LINE",
"125 140 LINE",
"114 41 OFFCURVE",
"142 34 OFFCURVE",
"227 32 CURVE SMOOTH",
"298 30 OFFCURVE",
"352 68 OFFCURVE",
"353 121 CURVE SMOOTH",
"354 180 OFFCURVE",
"293 193 OFFCURVE",
"215 212 CURVE SMOOTH",
"137 232 OFFCURVE",
"70 268 OFFCURVE",
"70 360 CURVE SMOOTH"
);
}
);
width = 474;
},
{
associatedMasterId = "1B5E7594-BD1E-41E1-80E1-0DE241437139";
background = {
paths = (
{
closed = 1;
nodes = (
"298 -13 OFFCURVE",
"376 54 OFFCURVE",
"376 139 CURVE SMOOTH",
"376 224 OFFCURVE",
"294 265 OFFCURVE",
"222 301 CURVE SMOOTH",
"166 329 OFFCURVE",
"118 354 OFFCURVE",
"118 392 CURVE SMOOTH",
"118 411 OFFCURVE",
"125 428 OFFCURVE",
"135 437 CURVE",
"142 443 OFFCURVE",
"173 453 OFFCURVE",
"209 453 CURVE SMOOTH",
"232 453 OFFCURVE",
"257 447 OFFCURVE",
"272 442 CURVE",
"281 413 OFFCURVE",
"285 388 OFFCURVE",
"289 360 CURVE",
"305 353 OFFCURVE",
"320 352 OFFCURVE",
"337 357 CURVE",
"348 392 OFFCURVE",
"351 435 OFFCURVE",
"351 481 CURVE",
"315 495 OFFCURVE",
"274 506 OFFCURVE",
"192 506 CURVE SMOOTH",
"130 506 OFFCURVE",
"27 474 OFFCURVE",
"27 372 CURVE SMOOTH",
"27 299 OFFCURVE",
"103 260 OFFCURVE",
"172 224 CURVE SMOOTH",
"229 194 OFFCURVE",
"280 168 OFFCURVE",
"280 124 CURVE SMOOTH",
"280 100 OFFCURVE",
"275 79 OFFCURVE",
"264 70 CURVE",
"250 59 OFFCURVE",
"222 48 OFFCURVE",
"191 48 CURVE SMOOTH",
"157 48 OFFCURVE",
"122 58 OFFCURVE",
"103 70 CURVE",
"89 106 OFFCURVE",
"83 139 OFFCURVE",
"80 171 CURVE",
"61 176 OFFCURVE",
"46 176 OFFCURVE",
"28 169 CURVE",
"19 123 OFFCURVE",
"18 73 OFFCURVE",
"28 22 CURVE",
"47 14 OFFCURVE",
"112 -13 OFFCURVE",
"192 -13 CURVE SMOOTH"
);
}
);
};
layerId = "20E923AD-50F9-45EF-9D5F-CAFDCAC33B22";
name = "Mar 30 18, 20:24";
paths = (
{
closed = 1;
nodes = (
"29 462 OFFCURVE",
"125 511 OFFCURVE",
"239 507 CURVE SMOOTH",
"296 505 OFFCURVE",
"328 497 OFFCURVE",
"353 488 CURVE",
"358 474 LINE",
"342 364 LINE",
"299 364 LINE",
"305 445 OFFCURVE",
"282 460 OFFCURVE",
"227 461 CURVE SMOOTH",
"153 462 OFFCURVE",
"92 426 OFFCURVE",
"91 368 CURVE SMOOTH",
"90 326 OFFCURVE",
"112 303 OFFCURVE",
"214 277 CURVE SMOOTH",
"303 254 OFFCURVE",
"382 224 OFFCURVE",
"377 138 CURVE SMOOTH",
"371 29 OFFCURVE",
"276 -13 OFFCURVE",
"183 -13 CURVE SMOOTH",
"118 -13 OFFCURVE",
"71 -4 OFFCURVE",
"23 25 CURVE",
"20 37 LINE",
"36 140 LINE",
"84 140 LINE",
"73 41 OFFCURVE",
"101 34 OFFCURVE",
"186 32 CURVE SMOOTH",
"257 30 OFFCURVE",
"311 68 OFFCURVE",
"312 121 CURVE SMOOTH",
"313 180 OFFCURVE",
"252 193 OFFCURVE",
"174 212 CURVE SMOOTH",
"96 232 OFFCURVE",
"29 268 OFFCURVE",
"29 360 CURVE SMOOTH"
);
}
);
width = 393;
}
);
unicode = 0073;
},
{
color = 1;
glyphname = germandbls;
lastChange = "2018-04-01 12:12:53 +0000";
layers = (
{
background = {
components = (
{
name = s;
transform = "{1, 0, 0, 1, 214, 0}";
},
{
name = f;
transform = "{1, 0, 0, 1, 12, 0}";
},
{
name = o;
transform = "{1, 0, 0, 0.9, 86, 341}";
}
);
};
layerId = "1B5E7594-BD1E-41E1-80E1-0DE241437139";
paths = (
{
closed = 1;
nodes = (
"180 76 LINE SMOOTH",
"180 50 OFFCURVE",
"179 39 OFFCURVE",
"204 34 CURVE SMOOTH",
"234 28 LINE",
"234 -4 LINE",
"148 0 LINE",
"41 -4 LINE",
"41 25 LINE",
"80 32 LINE SMOOTH",
"104 36 OFFCURVE",
"117 50 OFFCURVE",
"117 74 CURVE SMOOTH",
"117 395 LINE SMOOTH",
"117 421 OFFCURVE",
"115 438 OFFCURVE",
"85 440 CURVE SMOOTH",
"47 442 LINE",
"47 475 LINE",
"120 482 LINE",
"120 523 OFFCURVE",
"121 555 OFFCURVE",
"121 591 CURVE SMOOTH",
"121 675 OFFCURVE",
"181 801 OFFCURVE",
"335 801 CURVE SMOOTH",
"468 801 OFFCURVE",
"518 721 OFFCURVE",
"518 648 CURVE SMOOTH",
"518 490 OFFCURVE",
"338 465 OFFCURVE",
"338 368 CURVE SMOOTH",
"338 322 OFFCURVE",
"355 300 OFFCURVE",
"445 275 CURVE SMOOTH",
"535 250 OFFCURVE",
"619 229 OFFCURVE",
"618 137 CURVE SMOOTH",
"617 29 OFFCURVE",
"511 -13 OFFCURVE",
"422 -13 CURVE SMOOTH",
"357 -13 OFFCURVE",
"315 -3 OFFCURVE",
"267 26 CURVE",
"264 38 LINE",
"279 141 LINE",
"327 141 LINE",
"316 42 OFFCURVE",
"340 34 OFFCURVE",
"423 33 CURVE SMOOTH",
"498 32 OFFCURVE",
"552 70 OFFCURVE",
"553 117 CURVE SMOOTH",
"554 177 OFFCURVE",
"505 190 OFFCURVE",
"427 211 CURVE SMOOTH",
"349 232 OFFCURVE",
"276 265 OFFCURVE",
"276 357 CURVE SMOOTH",
"276 504 OFFCURVE",
"452 496 OFFCURVE",
"452 646 CURVE SMOOTH",
"452 729 OFFCURVE",
"394 759 OFFCURVE",
"328 759 CURVE SMOOTH",
"264 759 OFFCURVE",
"181 721 OFFCURVE",
"181 563 CURVE SMOOTH"
);
}
);
width = 631;
},
{
associatedMasterId = "5A1ECF60-5C3D-4C60-84B4-C69E600E0422";
background = {
components = (
{
name = s;
transform = "{1, 0, 0, 1, 277, 0}";
}
);
};
layerId = "BFE8D0AD-B6F4-4ADA-A49F-D548B81B16FE";
name = "Jan 1 18, 16:24";
paths = (
{
closed = 1;
nodes = (
"275 -2 LINE",
"187 0 LINE",
"16 -2 LINE",
"16 90 LINE",
"38 93 LINE SMOOTH",
"64 97 OFFCURVE",
"76 110 OFFCURVE",
"76 136 CURVE SMOOTH",
"73 351 LINE SMOOTH",
"73 376 OFFCURVE",
"62 391 OFFCURVE",
"38 393 CURVE SMOOTH",
"15 395 LINE",
"15 493 LINE",
"75 498 LINE",
"75 700 OFFCURVE",
"204 803 OFFCURVE",
"405 803 CURVE SMOOTH",
"531 803 OFFCURVE",
"646 762 OFFCURVE",
"646 640 CURVE SMOOTH",
"646 490 OFFCURVE",
"470 480 OFFCURVE",
"453 418 CURVE SMOOTH",
"441 376 OFFCURVE",
"504 364 OFFCURVE",
"575 351 CURVE SMOOTH",
"714 326 OFFCURVE",
"771 264 OFFCURVE",
"762 160 CURVE SMOOTH",
"752 47 OFFCURVE",
"672 -18 OFFCURVE",
"506 -18 CURVE SMOOTH",
"405 -18 OFFCURVE",
"313 6 OFFCURVE",
"293 13 CURVE",
"317 172 LINE",
"451 169 LINE",
"443 93 OFFCURVE",
"454 79 OFFCURVE",
"514 79 CURVE SMOOTH",
"554 79 OFFCURVE",
"577 92 OFFCURVE",
"577 121 CURVE SMOOTH",
"577 167 OFFCURVE",
"517 177 OFFCURVE",
"477 186 CURVE SMOOTH",
"367 212 OFFCURVE",
"298 242 OFFCURVE",
"298 358 CURVE SMOOTH",
"298 518 OFFCURVE",
"430 487 OFFCURVE",
"430 613 CURVE SMOOTH",
"430 661 OFFCURVE",
"411 701 OFFCURVE",
"362 701 CURVE SMOOTH",
"304 701 OFFCURVE",
"270 643 OFFCURVE",
"270 520 CURVE SMOOTH",
"270 139 LINE"
);
}
);
width = 782;
},
{
associatedMasterId = "5A1ECF60-5C3D-4C60-84B4-C69E600E0422";
background = {
components = (
{
name = s;
transform = "{1, 0, 0, 1, 266, 0}";
}
);
};
layerId = "CD3B0CC0-BCE6-45B7-AEE4-647DFA9CE993";
name = "Mar 25 18, 11:37";
paths = (
{
closed = 1;
nodes = (
"270 139 LINE SMOOTH",
"271 117 OFFCURVE",
"272 96 OFFCURVE",
"273 74 CURVE SMOOTH",
"274 37 LINE",
"275 -2 LINE",
"187 0 LINE",
"16 -2 LINE",
"16 90 LINE",
"38 93 LINE SMOOTH",
"64 97 OFFCURVE",
"76 110 OFFCURVE",
"76 136 CURVE SMOOTH",
"73 351 LINE SMOOTH",
"73 376 OFFCURVE",
"62 391 OFFCURVE",
"38 393 CURVE SMOOTH",
"15 395 LINE",
"15 493 LINE",
"75 498 LINE",
"75 511 OFFCURVE",
"75 519 OFFCURVE",
"75 538 CURVE SMOOTH",
"75 706 OFFCURVE",
"224 803 OFFCURVE",
"405 803 CURVE SMOOTH",
"531 803 OFFCURVE",
"646 762 OFFCURVE",
"646 640 CURVE SMOOTH",
"646 448 OFFCURVE",
"481 488 OFFCURVE",
"481 377 CURVE SMOOTH",
"481 355 OFFCURVE",
"505 336 OFFCURVE",
"583 315 CURVE SMOOTH",
"689 287 OFFCURVE",
"753 266 OFFCURVE",
"753 162 CURVE SMOOTH",
"753 49 OFFCURVE",
"652 -18 OFFCURVE",
"506 -18 CURVE SMOOTH",
"425 -18 OFFCURVE",
"349 -2 OFFCURVE",
"312 7 CURVE",
"296 24 LINE",
"317 172 LINE",
"451 169 LINE",
"443 93 OFFCURVE",
"463 70 OFFCURVE",
"503 70 CURVE SMOOTH",
"543 70 OFFCURVE",
"557 92 OFFCURVE",
"557 114 CURVE SMOOTH",
"557 152 OFFCURVE",
"491 166 OFFCURVE",
"451 180 CURVE SMOOTH",
"362 212 OFFCURVE",
"294 242 OFFCURVE",
"298 358 CURVE SMOOTH",
"302 474 OFFCURVE",
"428 457 OFFCURVE",
"430 613 CURVE SMOOTH",
"431 661 OFFCURVE",
"411 701 OFFCURVE",
"362 701 CURVE SMOOTH",
"304 701 OFFCURVE",
"270 643 OFFCURVE",
"270 520 CURVE SMOOTH"
);
}
);
width = 743;
},
{
background = {
components = (
{
name = s;
transform = "{1, 0, 0, 1, 274, 0}";
},
{
name = f;
}
);
};
layerId = "5A1ECF60-5C3D-4C60-84B4-C69E600E0422";
paths = (
{
closed = 1;
nodes = (
"278 139 LINE SMOOTH",
"279 117 OFFCURVE",
"280 96 OFFCURVE",
"281 74 CURVE SMOOTH",
"282 37 LINE",
"285 -2 LINE",
"195 0 LINE",
"28 -2 LINE",
"28 87 LINE",
"49 90 LINE SMOOTH",
"75 94 OFFCURVE",
"84 110 OFFCURVE",
"84 136 CURVE SMOOTH",
"81 361 LINE SMOOTH",
"81 386 OFFCURVE",
"73 403 OFFCURVE",
"49 404 CURVE SMOOTH",
"28 405 LINE",
"28 503 LINE",
"84 508 LINE",
"84 517 OFFCURVE",
"83 526 OFFCURVE",
"83 538 CURVE SMOOTH",
"83 706 OFFCURVE",
"195 801 OFFCURVE",
"378 803 CURVE SMOOTH",
"548 805 OFFCURVE",
"650 754 OFFCURVE",
"648 642 CURVE SMOOTH",
"646 506 OFFCURVE",
"490 463 OFFCURVE",
"490 380 CURVE SMOOTH",
"490 350 OFFCURVE",
"523 329 OFFCURVE",
"591 314 CURVE SMOOTH",
"730 281 OFFCURVE",
"760 249 OFFCURVE",
"760 161 CURVE SMOOTH",
"760 48 OFFCURVE",
"660 -18 OFFCURVE",
"514 -18 CURVE SMOOTH",
"433 -18 OFFCURVE",
"357 -2 OFFCURVE",
"320 7 CURVE",
"304 24 LINE",
"325 172 LINE",
"459 169 LINE",
"451 93 OFFCURVE",
"471 70 OFFCURVE",
"511 70 CURVE SMOOTH",
"551 70 OFFCURVE",
"565 90 OFFCURVE",
"565 119 CURVE SMOOTH",
"565 145 OFFCURVE",
"525 159 OFFCURVE",
"485 172 CURVE SMOOTH",
"378 207 OFFCURVE",
"305 234 OFFCURVE",
"309 350 CURVE SMOOTH",
"314 479 OFFCURVE",
"429 477 OFFCURVE",
"429 608 CURVE SMOOTH",
"429 672 OFFCURVE",
"413 697 OFFCURVE",
"363 697 CURVE SMOOTH",
"310 697 OFFCURVE",
"278 643 OFFCURVE",
"278 520 CURVE SMOOTH"
);
}
);
width = 752;
},
{
associatedMasterId = "5A1ECF60-5C3D-4C60-84B4-C69E600E0422";
background = {
components = (
{
name = s;
transform = "{1, 0, 0, 1, 266, 0}";
},
{
name = o;
transform = "{1, 0, 0, 1, 59, 286}";
}
);
};
layerId = "CAFA1AC4-23F6-4040-B28B-C922DCA5C4FC";
name = "Mar 25 18, 11:45";
paths = (
{
closed = 1;
nodes = (
"270 139 LINE SMOOTH",
"271 117 OFFCURVE",
"272 96 OFFCURVE",
"273 74 CURVE SMOOTH",
"274 37 LINE",
"275 -2 LINE",
"187 0 LINE",
"16 -2 LINE",
"16 90 LINE",
"38 93 LINE SMOOTH",
"64 97 OFFCURVE",
"76 110 OFFCURVE",
"76 136 CURVE SMOOTH",
"73 351 LINE SMOOTH",
"73 376 OFFCURVE",
"62 391 OFFCURVE",
"38 393 CURVE SMOOTH",
"15 395 LINE",
"15 493 LINE",
"75 498 LINE",
"75 511 OFFCURVE",
"75 519 OFFCURVE",
"75 538 CURVE SMOOTH",
"75 706 OFFCURVE",
"224 803 OFFCURVE",
"405 803 CURVE SMOOTH",
"531 803 OFFCURVE",
"646 754 OFFCURVE",
"646 642 CURVE SMOOTH",
"646 493 OFFCURVE",
"474 452 OFFCURVE",
"474 380 CURVE SMOOTH",
"474 348 OFFCURVE",
"504 332 OFFCURVE",
"583 314 CURVE SMOOTH",
"722 281 OFFCURVE",
"752 249 OFFCURVE",
"752 161 CURVE SMOOTH",
"752 48 OFFCURVE",
"652 -18 OFFCURVE",
"506 -18 CURVE SMOOTH",
"425 -18 OFFCURVE",
"349 -2 OFFCURVE",
"312 7 CURVE",
"296 24 LINE",
"317 172 LINE",
"451 169 LINE",
"443 93 OFFCURVE",
"463 70 OFFCURVE",
"503 70 CURVE SMOOTH",
"543 70 OFFCURVE",
"557 90 OFFCURVE",
"557 119 CURVE SMOOTH",
"557 145 OFFCURVE",
"517 159 OFFCURVE",
"477 172 CURVE SMOOTH",
"370 207 OFFCURVE",
"300 234 OFFCURVE",
"300 350 CURVE SMOOTH",
"300 483 OFFCURVE",
"426 465 OFFCURVE",
"426 621 CURVE SMOOTH",
"426 672 OFFCURVE",
"411 701 OFFCURVE",
"356 701 CURVE SMOOTH",
"304 701 OFFCURVE",
"270 643 OFFCURVE",
"270 520 CURVE SMOOTH"
);
}
);
width = 743;
},
{
associatedMasterId = "1B5E7594-BD1E-41E1-80E1-0DE241437139";
background = {
components = (
{
name = s;
transform = "{1, 0, 0, 1, 167, 0}";
},
{
name = f;
transform = "{1, 0, 0, 1, -35, 0}";
},
{
name = o;
transform = "{1, 0, 0, 0.9, 39, 341}";
}
);
};
layerId = "8BBCE59A-93C3-4EE5-B621-C9C76657827D";
name = "Mar 30 18, 20:24";
paths = (
{
closed = 1;
nodes = (
"133 76 LINE SMOOTH",
"133 50 OFFCURVE",
"132 39 OFFCURVE",
"157 34 CURVE SMOOTH",
"187 28 LINE",
"187 -4 LINE",
"101 0 LINE",
"-6 -4 LINE",
"-6 25 LINE",
"33 32 LINE SMOOTH",
"57 36 OFFCURVE",
"70 50 OFFCURVE",
"70 74 CURVE SMOOTH",
"70 395 LINE SMOOTH",
"70 421 OFFCURVE",
"68 438 OFFCURVE",
"38 440 CURVE SMOOTH",
"0 442 LINE",
"0 475 LINE",
"73 482 LINE",
"73 523 OFFCURVE",
"74 555 OFFCURVE",
"74 591 CURVE SMOOTH",
"74 675 OFFCURVE",
"134 801 OFFCURVE",
"288 801 CURVE SMOOTH",
"421 801 OFFCURVE",
"471 721 OFFCURVE",
"471 648 CURVE SMOOTH",
"471 490 OFFCURVE",
"291 465 OFFCURVE",
"291 368 CURVE SMOOTH",
"291 322 OFFCURVE",
"308 300 OFFCURVE",
"398 275 CURVE SMOOTH",
"488 250 OFFCURVE",
"572 229 OFFCURVE",
"571 137 CURVE SMOOTH",
"570 29 OFFCURVE",
"464 -13 OFFCURVE",
"375 -13 CURVE SMOOTH",
"310 -13 OFFCURVE",
"268 -3 OFFCURVE",
"220 26 CURVE",
"217 38 LINE",
"232 141 LINE",
"280 141 LINE",
"269 42 OFFCURVE",
"293 34 OFFCURVE",
"376 33 CURVE SMOOTH",
"451 32 OFFCURVE",
"505 70 OFFCURVE",
"506 117 CURVE SMOOTH",
"507 177 OFFCURVE",
"458 190 OFFCURVE",
"380 211 CURVE SMOOTH",
"302 232 OFFCURVE",
"229 265 OFFCURVE",
"229 357 CURVE SMOOTH",
"229 504 OFFCURVE",
"405 496 OFFCURVE",
"405 646 CURVE SMOOTH",
"405 729 OFFCURVE",
"347 759 OFFCURVE",
"281 759 CURVE SMOOTH",
"217 759 OFFCURVE",
"134 721 OFFCURVE",
"134 563 CURVE SMOOTH"
);
}
);
width = 572;
}
);
unicode = 00DF;
},
{
color = 1;
glyphname = t;
lastChange = "2018-04-11 18:25:31 +0000";
layers = (
{
anchors = (
{
name = bottom;
position = "{163, 0}";
},
{
name = center;
position = "{163, 250}";
},
{
name = top;
position = "{163, 500}";
},
{
name = topright;
position = "{306, 500}";
}
);
background = {
components = (
{
name = f;
transform = "{1, 0, 0, 1, -11, 0}";
}
);
};
guideLines = (
{
position = "{752, -5}";
}
);
layerId = "1B5E7594-BD1E-41E1-80E1-0DE241437139";
paths = (
{
closed = 1;
nodes = (
"35 477 LINE",
"76 479 LINE SMOOTH",
"97 480 OFFCURVE",
"108 489 OFFCURVE",
"111 509 CURVE SMOOTH",
"128 640 LINE",
"161 640 LINE",
"169 630 LINE",
"169 478 LINE",
"292 484 LINE",
"300 478 LINE",
"300 438 LINE",
"174 441 LINE",
"168 109 LINE SMOOTH",
"167 44 OFFCURVE",
"195 31 OFFCURVE",
"243 50 CURVE SMOOTH",
"286 68 LINE",
"295 47 LINE",
"271 3 LINE",
"170 -28 OFFCURVE",
"100 7 OFFCURVE",
"101 105 CURVE SMOOTH",
"105 403 LINE SMOOTH",
"105 424 OFFCURVE",
"96 440 OFFCURVE",
"75 441 CURVE SMOOTH",
"35 442 LINE"
);
}
);
width = 326;
},
{
anchors = (
{
name = bottom;
position = "{184, 0}";
},
{
name = center;
position = "{184, 253}";
},
{
name = top;
position = "{184, 506}";
},
{
name = topright;
position = "{348, 506}";
}
);
background = {
components = (
{
name = n;
transform = "{1, 0, 0, 1, 162, 0}";
}
);
};
guideLines = (
{
position = "{458, 495}";
}
);
layerId = "5A1ECF60-5C3D-4C60-84B4-C69E600E0422";
paths = (
{
closed = 1;
nodes = (
"15 506 LINE",
"60 510 LINE SMOOTH",
"82 512 OFFCURVE",
"101 529 OFFCURVE",
"111 559 CURVE SMOOTH",
"147 670 LINE",
"239 670 LINE",
"258 648 LINE",
"258 501 LINE",
"335 503 LINE",
"355 482 LINE",
"354 401 LINE",
"259 404 LINE",
"255 178 LINE SMOOTH",
"254 139 OFFCURVE",
"266 115 OFFCURVE",
"316 130 CURVE SMOOTH",
"336 136 LINE",
"354 106 LINE",
"307 2 LINE",
"110 -51 OFFCURVE",
"55 52 OFFCURVE",
"58 139 CURVE SMOOTH",
"65 372 LINE SMOOTH",
"66 393 OFFCURVE",
"50 405 OFFCURVE",
"30 406 CURVE SMOOTH",
"15 407 LINE"
);
}
);
width = 368;
}
);
unicode = 0074;
},
{
color = 1;
glyphname = u;
lastChange = "2018-04-11 18:32:48 +0000";
layers = (
{
anchors = (
{
name = bottom;
position = "{282, 0}";
},
{
name = ogonek;
position = "{561, 10}";
},
{
name = top;
position = "{292, 506}";
},
{
name = topright;
position = "{603, 506}";
}
);
background = {
components = (
{
name = n;
transform = "{-1, 0, 0, -1, 629, 507}";
}
);
};
guideLines = (
{
position = "{-5, 125}";
},
{
position = "{-49, -13}";
}
);
layerId = "5A1ECF60-5C3D-4C60-84B4-C69E600E0422";
paths = (
{
closed = 1;
nodes = (
"12 495 LINE",
"97 499 OFFCURVE",
"172 508 OFFCURVE",
"244 523 CURVE",
"263 502 LINE",
"262 185 LINE SMOOTH",
"262 131 OFFCURVE",
"298 89 OFFCURVE",
"397 169 CURVE",
"386 101 LINE",
"332 10 OFFCURVE",
"273 -13 OFFCURVE",
"201 -13 CURVE SMOOTH",
"109 -13 OFFCURVE",
"59 43 OFFCURVE",
"62 145 CURVE SMOOTH",
"69 368 LINE SMOOTH",
"70 391 OFFCURVE",
"57 403 OFFCURVE",
"36 405 CURVE SMOOTH",
"12 407 LINE"
);
},
{
closed = 1;
nodes = (
"292 495 LINE",
"370 500 OFFCURVE",
"453 510 OFFCURVE",
"531 523 CURVE",
"551 502 LINE",
"546 157 LINE SMOOTH",
"546 131 OFFCURVE",
"563 122 OFFCURVE",
"586 129 CURVE SMOOTH",
"609 136 LINE",
"626 108 LINE",
"577 0 LINE",
"430 -38 OFFCURVE",
"348 10 OFFCURVE",
"348 118 CURVE SMOOTH",
"348 363 LINE SMOOTH",
"348 386 OFFCURVE",
"340 401 OFFCURVE",
"318 404 CURVE SMOOTH",
"292 407 LINE"
);
}
);
width = 623;
},
{
anchors = (
{
name = bottom;
position = "{303, 0}";
},
{
name = ogonek;
position = "{543, 10}";
},
{
name = top;
position = "{303, 500}";
},
{
name = topright;
position = "{583, 500}";
}
);
layerId = "1B5E7594-BD1E-41E1-80E1-0DE241437139";
paths = (
{
closed = 1;
nodes = (
"25 471 LINE",
"70 479 OFFCURVE",
"121 495 OFFCURVE",
"164 506 CURVE",
"173 500 LINE",
"170 147 LINE SMOOTH",
"169 44 OFFCURVE",
"258 3 OFFCURVE",
"441 107 CURVE",
"445 77 LINE",
"380 18 OFFCURVE",
"308 -11 OFFCURVE",
"246 -11 CURVE SMOOTH",
"162 -11 OFFCURVE",
"102 39 OFFCURVE",
"103 131 CURVE SMOOTH",
"107 389 LINE SMOOTH",
"108 430 OFFCURVE",
"93 439 OFFCURVE",
"57 441 CURVE SMOOTH",
"25 443 LINE"
);
},
{
closed = 1;
nodes = (
"344 471 LINE",
"393 480 OFFCURVE",
"437 494 OFFCURVE",
"482 506 CURVE",
"491 500 LINE",
"485 76 LINE SMOOTH",
"484 38 OFFCURVE",
"499 41 OFFCURVE",
"525 51 CURVE SMOOTH",
"572 69 LINE",
"582 48 LINE",
"557 4 LINE",
"442 -40 OFFCURVE",
"418 52 OFFCURVE",
"419 106 CURVE SMOOTH",
"424 397 LINE SMOOTH",
"424 423 OFFCURVE",
"413 438 OFFCURVE",
"387 440 CURVE SMOOTH",
"344 443 LINE"
);
}
);
width = 603;
},
{
associatedMasterId = "1B5E7594-BD1E-41E1-80E1-0DE241437139";
background = {
components = (
{
name = t;
transform = "{1, 0, 0, 1, 305, 0}";
}
);
};
layerId = "61492818-0997-4729-BF61-F9DE1467FD80";
name = "Mar 22 18, 19:09";
paths = (
{
closed = 1;
nodes = (
"29 484 LINE",
"74 488 OFFCURVE",
"117 494 OFFCURVE",
"160 502 CURVE",
"169 498 LINE",
"165 163 LINE SMOOTH",
"164 82 OFFCURVE",
"167 -9 OFFCURVE",
"418 116 CURVE",
"409 73 LINE",
"212 -60 OFFCURVE",
"93 -22 OFFCURVE",
"97 132 CURVE SMOOTH",
"103 394 LINE SMOOTH",
"104 435 OFFCURVE",
"97 447 OFFCURVE",
"53 449 CURVE SMOOTH",
"29 450 LINE"
);
},
{
closed = 1;
nodes = (
"311 483 LINE",
"360 487 OFFCURVE",
"406 494 OFFCURVE",
"451 502 CURVE",
"460 498 LINE",
"454 98 LINE SMOOTH",
"453 56 OFFCURVE",
"466 49 OFFCURVE",
"494 54 CURVE SMOOTH",
"542 63 LINE",
"546 53 LINE",
"527 0 LINE",
"412 -28 OFFCURVE",
"389 52 OFFCURVE",
"390 106 CURVE SMOOTH",
"393 392 LINE SMOOTH",
"393 430 OFFCURVE",
"381 445 OFFCURVE",
"338 448 CURVE SMOOTH",
"311 450 LINE"
);
}
);
width = 565;
},
{
associatedMasterId = "1B5E7594-BD1E-41E1-80E1-0DE241437139";
background = {
components = (
{
name = n;
transform = "{1, 0, 0, 1, -40, 0}";
}
);
};
layerId = "CB260135-EE11-4079-B6E4-69C8AF431661";
name = "Mar 30 18, 20:24";
paths = (
{
closed = 1;
nodes = (
"-11 471 LINE",
"34 479 OFFCURVE",
"85 495 OFFCURVE",
"128 506 CURVE",
"137 500 LINE",
"134 147 LINE SMOOTH",
"133 45 OFFCURVE",
"233 -1 OFFCURVE",
"407 111 CURVE",
"409 77 LINE",
"344 18 OFFCURVE",
"272 -10 OFFCURVE",
"210 -10 CURVE SMOOTH",
"126 -10 OFFCURVE",
"63 40 OFFCURVE",
"65 131 CURVE SMOOTH",
"71 389 LINE SMOOTH",
"72 430 OFFCURVE",
"57 439 OFFCURVE",
"21 441 CURVE SMOOTH",
"-11 443 LINE"
);
},
{
closed = 1;
nodes = (
"307 471 LINE",
"356 480 OFFCURVE",
"400 494 OFFCURVE",
"445 506 CURVE",
"454 500 LINE",
"448 75 LINE SMOOTH",
"447 37 OFFCURVE",
"462 40 OFFCURVE",
"488 50 CURVE SMOOTH",
"535 68 LINE",
"545 47 LINE",
"520 3 LINE",
"405 -41 OFFCURVE",
"381 52 OFFCURVE",
"382 106 CURVE SMOOTH",
"387 397 LINE SMOOTH",
"387 423 OFFCURVE",
"376 438 OFFCURVE",
"350 440 CURVE SMOOTH",
"307 443 LINE"
);
}
);
width = 534;
}
);
unicode = 0075;
},
{
color = 1;
glyphname = v;
lastChange = "2018-04-11 18:22:57 +0000";
layers = (
{
anchors = (
{
name = bottom;
position = "{240, 0}";
},
{
name = top;
position = "{240, 500}";
}
);
background = {
paths = (
{
closed = 1;
nodes = (
"340 141 OFFCURVE",
"404 319 OFFCURVE",
"449 433 CURVE",
"475 436 OFFCURVE",
"503 444 OFFCURVE",
"520 450 CURVE",
"520 467 OFFCURVE",
"518 487 OFFCURVE",
"514 499 CURVE",
"480 498 OFFCURVE",
"426 497 OFFCURVE",
"405 497 CURVE SMOOTH",
"374 497 OFFCURVE",
"334 499 OFFCURVE",
"301 499 CURVE",
"296 488 OFFCURVE",
"295 468 OFFCURVE",
"295 450 CURVE",
"318 448 OFFCURVE",
"350 443 OFFCURVE",
"375 436 CURVE",
"340 335 OFFCURVE",
"286 177 OFFCURVE",
"249 63 CURVE",
"236 141 LINE",
"200 251 OFFCURVE",
"162 354 OFFCURVE",
"129 436 CURVE",
"161 438 OFFCURVE",
"194 444 OFFCURVE",
"213 450 CURVE",
"213 467 OFFCURVE",
"211 489 OFFCURVE",
"206 499 CURVE",
"178 498 OFFCURVE",
"117 497 OFFCURVE",
"92 497 CURVE SMOOTH",
"52 497 OFFCURVE",
"14 499 OFFCURVE",
"-23 499 CURVE",
"-28 486 OFFCURVE",
"-30 468 OFFCURVE",
"-30 450 CURVE",
"-7 446 OFFCURVE",
"10 443 OFFCURVE",
"32 436 CURVE",
"87 299 OFFCURVE",
"142 147 OFFCURVE",
"196 -6 CURVE",
"229 -5 OFFCURVE",
"265 -1 OFFCURVE",
"295 9 CURVE"
);
}
);
};
layerId = "1B5E7594-BD1E-41E1-80E1-0DE241437139";
paths = (
{
closed = 1;
nodes = (
"-11 500 LINE",
"80 496 LINE",
"187 500 LINE",
"188 461 LINE",
"157 459 LINE SMOOTH",
"132 457 OFFCURVE",
"120 443 OFFCURVE",
"127 422 CURVE SMOOTH",
"246 77 LINE",
"253 77 LINE",
"376 415 LINE SMOOTH",
"385 440 OFFCURVE",
"382 460 OFFCURVE",
"340 460 CURVE SMOOTH",
"296 460 LINE",
"296 500 LINE",
"407 497 LINE",
"489 500 LINE",
"489 463 LINE",
"474 463 LINE SMOOTH",
"456 463 OFFCURVE",
"447 454 OFFCURVE",
"441 438 CURVE SMOOTH",
"275 8 LINE",
"253 1 OFFCURVE",
"232 -5 OFFCURVE",
"210 -12 CURVE",
"48 427 LINE SMOOTH",
"42 444 OFFCURVE",
"32 459 OFFCURVE",
"11 461 CURVE SMOOTH",
"-11 463 LINE"
);
}
);
width = 480;
},
{
associatedMasterId = "1B5E7594-BD1E-41E1-80E1-0DE241437139";
background = {
paths = (
{
closed = 1;
nodes = (
"357 421 OFFCURVE",
"345 386 OFFCURVE",
"322 329 CURVE SMOOTH",
"298 273 OFFCURVE",
"264 194 OFFCURVE",
"223 91 CURVE",
"219 91 LINE",
"200 151 OFFCURVE",
"184 205 OFFCURVE",
"172 253 CURVE SMOOTH",
"166 274 OFFCURVE",
"161 294 OFFCURVE",
"155 315 CURVE SMOOTH",
"144 356 OFFCURVE",
"134 391 OFFCURVE",
"130 416 CURVE",
"126 428 OFFCURVE",
"125 435 OFFCURVE",
"125 440 CURVE SMOOTH",
"125 450 OFFCURVE",
"130 457 OFFCURVE",
"138 461 CURVE SMOOTH",
"147 464 OFFCURVE",
"165 467 OFFCURVE",
"190 468 CURVE",
"197 503 LINE",
"195 508 LINE",
"181 507 OFFCURVE",
"168 505 OFFCURVE",
"154 504 CURVE",
"129 500 OFFCURVE",
"97 500 OFFCURVE",
"62 500 CURVE SMOOTH",
"7 500 LINE SMOOTH",
"-5 500 OFFCURVE",
"-17 500 OFFCURVE",
"-29 502 CURVE",
"-36 465 LINE",
"-34 461 LINE",
"4 460 OFFCURVE",
"30 441 OFFCURVE",
"41 406 CURVE SMOOTH",
"49 382 OFFCURVE",
"61 344 OFFCURVE",
"76 300 CURVE SMOOTH",
"90 256 OFFCURVE",
"107 206 OFFCURVE",
"121 158 CURVE SMOOTH",
"137 103 OFFCURVE",
"157 45 OFFCURVE",
"176 -17 CURVE",
"236 2 LINE",
"396 378 LINE SMOOTH",
"409 410 OFFCURVE",
"420 429 OFFCURVE",
"430 442 CURVE",
"440 454 OFFCURVE",
"450 457 OFFCURVE",
"466 461 CURVE",
"474 502 LINE",
"464 500 OFFCURVE",
"453 500 OFFCURVE",
"443 500 CURVE SMOOTH",
"383 500 LINE",
"306 500 LINE SMOOTH",
"293 500 OFFCURVE",
"281 500 OFFCURVE",
"269 502 CURVE",
"263 467 LINE",
"268 461 LINE",
"309 461 LINE SMOOTH",
"345 461 OFFCURVE",
"357 455 OFFCURVE",
"357 434 CURVE SMOOTH"
);
}
);
};
layerId = "9D0F713D-0DDC-4FC9-8B93-9A6DA16AB0FD";
name = "Sep 26 17, 12:20";
paths = (
{
closed = 1;
nodes = (
"-30 483 LINE",
"97 503 LINE",
"104 498 LINE",
"198 133 LINE",
"214 60 LINE",
"344 431 LINE",
"262 454 LINE",
"262 483 LINE",
"418 504 LINE",
"426 498 LINE",
"240 8 LINE",
"175 -12 LINE",
"43 432 LINE",
"-30 455 LINE"
);
}
);
width = 426;
},
{
associatedMasterId = "5A1ECF60-5C3D-4C60-84B4-C69E600E0422";
background = {
components = (
{
name = k;
transform = "{1, 0, 0, 1, -48, 0}";
}
);
};
layerId = "86DAB389-954B-4378-A7E5-7403AF0979FB";
name = "Mar 30 18, 17:23";
paths = (
{
closed = 1;
nodes = (
"32 505 LINE",
"127 504 LINE",
"278 507 LINE",
"278 410 LINE",
"257 408 LINE SMOOTH",
"240 406 OFFCURVE",
"245 380 OFFCURVE",
"248 361 CURVE SMOOTH",
"280 129 LINE",
"290 129 LINE",
"339 351 LINE SMOOTH",
"347 385 OFFCURVE",
"346 406 OFFCURVE",
"326 408 CURVE SMOOTH",
"304 410 LINE",
"304 506 LINE",
"438 503 LINE",
"537 507 LINE",
"537 410 LINE",
"505 406 LINE SMOOTH",
"486 404 OFFCURVE",
"474 382 OFFCURVE",
"468 359 CURVE SMOOTH",
"376 6 LINE",
"306 6 OFFCURVE",
"205 -1 OFFCURVE",
"135 -10 CURVE",
"39 372 LINE SMOOTH",
"32 400 OFFCURVE",
"31 403 OFFCURVE",
"19 438 CURVE"
);
}
);
width = 535;
},
{
anchors = (
{
name = bottom;
position = "{255, 0}";
},
{
name = top;
position = "{255, 506}";
}
);
layerId = "5A1ECF60-5C3D-4C60-84B4-C69E600E0422";
paths = (
{
closed = 1;
nodes = (
"-12 506 LINE",
"120 503 LINE",
"276 506 LINE",
"276 410 LINE",
"255 408 LINE SMOOTH",
"238 406 OFFCURVE",
"243 380 OFFCURVE",
"246 361 CURVE SMOOTH",
"278 129 LINE",
"288 129 LINE",
"337 351 LINE SMOOTH",
"345 385 OFFCURVE",
"344 406 OFFCURVE",
"324 408 CURVE SMOOTH",
"302 410 LINE",
"302 506 LINE",
"431 503 LINE",
"525 506 LINE",
"525 410 LINE",
"503 406 LINE SMOOTH",
"484 403 OFFCURVE",
"472 382 OFFCURVE",
"466 359 CURVE SMOOTH",
"374 6 LINE",
"304 6 OFFCURVE",
"203 -1 OFFCURVE",
"133 -10 CURVE",
"37 372 LINE SMOOTH",
"32 391 OFFCURVE",
"23 403 OFFCURVE",
"8 405 CURVE SMOOTH",
"-12 408 LINE"
);
}
);
width = 509;
},
{
associatedMasterId = "1B5E7594-BD1E-41E1-80E1-0DE241437139";
background = {
paths = (
{
closed = 1;
nodes = (
"338 141 OFFCURVE",
"402 319 OFFCURVE",
"447 433 CURVE",
"473 436 OFFCURVE",
"501 444 OFFCURVE",
"518 450 CURVE",
"518 467 OFFCURVE",
"516 487 OFFCURVE",
"512 499 CURVE",
"478 498 OFFCURVE",
"424 497 OFFCURVE",
"403 497 CURVE SMOOTH",
"372 497 OFFCURVE",
"332 499 OFFCURVE",
"299 499 CURVE",
"294 488 OFFCURVE",
"293 468 OFFCURVE",
"293 450 CURVE",
"316 448 OFFCURVE",
"348 443 OFFCURVE",
"373 436 CURVE",
"338 335 OFFCURVE",
"284 177 OFFCURVE",
"247 63 CURVE",
"234 141 LINE",
"198 251 OFFCURVE",
"160 354 OFFCURVE",
"127 436 CURVE",
"159 438 OFFCURVE",
"192 444 OFFCURVE",
"211 450 CURVE",
"211 467 OFFCURVE",
"209 489 OFFCURVE",
"204 499 CURVE",
"176 498 OFFCURVE",
"115 497 OFFCURVE",
"90 497 CURVE SMOOTH",
"50 497 OFFCURVE",
"12 499 OFFCURVE",
"-25 499 CURVE",
"-30 486 OFFCURVE",
"-32 468 OFFCURVE",
"-32 450 CURVE",
"-9 446 OFFCURVE",
"8 443 OFFCURVE",
"30 436 CURVE",
"85 299 OFFCURVE",
"140 147 OFFCURVE",
"194 -6 CURVE",
"227 -5 OFFCURVE",
"263 -1 OFFCURVE",
"293 9 CURVE"
);
}
);
};
layerId = "C9E70D63-49F4-4517-A147-963BA4D78A5B";
name = "Mar 30 18, 20:24";
paths = (
{
closed = 1;
nodes = (
"-13 500 LINE",
"78 496 LINE",
"185 500 LINE",
"186 461 LINE",
"155 459 LINE SMOOTH",
"130 457 OFFCURVE",
"118 443 OFFCURVE",
"125 422 CURVE SMOOTH",
"244 77 LINE",
"251 77 LINE",
"374 415 LINE SMOOTH",
"383 440 OFFCURVE",
"380 460 OFFCURVE",
"338 460 CURVE SMOOTH",
"294 460 LINE",
"294 500 LINE",
"405 497 LINE",
"487 500 LINE",
"487 463 LINE",
"472 463 LINE SMOOTH",
"454 463 OFFCURVE",
"445 454 OFFCURVE",
"439 438 CURVE SMOOTH",
"273 8 LINE",
"251 1 OFFCURVE",
"230 -5 OFFCURVE",
"208 -12 CURVE",
"46 427 LINE SMOOTH",
"40 444 OFFCURVE",
"30 459 OFFCURVE",
"9 461 CURVE SMOOTH",
"-13 463 LINE"
);
}
);
width = 474;
}
);
unicode = 0076;
},
{
color = 1;
glyphname = w;
lastChange = "2018-04-11 18:30:05 +0000";
layers = (
{
anchors = (
{
name = bottom;
position = "{385, 0}";
},
{
name = top;
position = "{385, 500}";
}
);
background = {
components = (
{
name = v;
transform = "{1, 0, 0, 1, -9, 0}";
},
{
name = v;
transform = "{1, 0, 0, 1, 293, 0}";
}
);
};
layerId = "1B5E7594-BD1E-41E1-80E1-0DE241437139";
paths = (
{
closed = 1;
nodes = (
"-9 499 LINE",
"78 498 LINE",
"217 500 LINE",
"217 464 LINE",
"154 460 LINE SMOOTH",
"122 458 OFFCURVE",
"109 437 OFFCURVE",
"120 408 CURVE SMOOTH",
"243 73 LINE",
"249 73 LINE",
"354 392 LINE",
"324 472 LINE",
"330 487 LINE",
"391 506 LINE",
"539 73 LINE",
"544 73 LINE",
"663 395 LINE SMOOTH",
"674 425 OFFCURVE",
"677 458 OFFCURVE",
"630 459 CURVE SMOOTH",
"565 460 LINE",
"565 500 LINE",
"699 498 LINE",
"774 500 LINE",
"774 460 LINE",
"759 460 LINE SMOOTH",
"745 460 OFFCURVE",
"735 453 OFFCURVE",
"730 440 CURVE SMOOTH",
"567 8 LINE",
"545 1 OFFCURVE",
"522 -5 OFFCURVE",
"500 -12 CURVE",
"383 317 LINE",
"274 7 LINE",
"251 0 OFFCURVE",
"230 -5 OFFCURVE",
"207 -12 CURVE",
"45 429 LINE SMOOTH",
"38 447 OFFCURVE",
"31 460 OFFCURVE",
"10 461 CURVE SMOOTH",
"-9 462 LINE"
);
}
);
width = 767;
},
{
anchors = (
{
name = bottom;
position = "{389, 0}";
},
{
name = top;
position = "{389, 506}";
}
);
background = {
components = (
{
name = v;
transform = "{1, 0, 0, 1, -3, 0}";
},
{
name = v;
transform = "{1, 0, 0, 1, 291, 0}";
}
);
};
guideLines = (
{
position = "{332, 130}";
}
);
layerId = "5A1ECF60-5C3D-4C60-84B4-C69E600E0422";
paths = (
{
closed = 1;
nodes = (
"-11 506 LINE",
"136 503 LINE",
"286 507 LINE",
"286 410 LINE",
"263 408 LINE SMOOTH",
"244 406 OFFCURVE",
"235 387 OFFCURVE",
"238 370 CURVE SMOOTH",
"274 130 LINE",
"287 130 LINE",
"345 359 LINE",
"321 460 LINE",
"343 494 LINE",
"508 514 LINE",
"571 130 LINE",
"582 130 LINE",
"631 341 LINE SMOOTH",
"641 386 OFFCURVE",
"623 404 OFFCURVE",
"597 407 CURVE SMOOTH",
"566 410 LINE",
"566 507 LINE",
"698 503 LINE",
"815 506 LINE",
"815 410 LINE",
"797 406 LINE SMOOTH",
"778 402 OFFCURVE",
"761 379 OFFCURVE",
"756 359 CURVE SMOOTH",
"666 7 LINE",
"597 5 OFFCURVE",
"508 -1 OFFCURVE",
"439 -9 CURVE",
"399 149 LINE",
"358 3 LINE",
"281 1 OFFCURVE",
"202 -6 OFFCURVE",
"130 -13 CURVE",
"36 371 LINE SMOOTH",
"30 397 OFFCURVE",
"18 405 OFFCURVE",
"1 408 CURVE SMOOTH",
"-11 410 LINE"
);
}
);
width = 777;
},
{
associatedMasterId = "1B5E7594-BD1E-41E1-80E1-0DE241437139";
background = {
paths = (
{
closed = 1;
nodes = (
"439 449 LINE",
"270 8 LINE",
"205 -12 LINE",
"70 438 LINE",
"150 435 LINE",
"228 133 LINE",
"244 60 LINE",
"367 426 LINE"
);
}
);
};
layerId = "757D154B-913C-4F51-93A1-325FE9A59F06";
name = "Mar 25 18, 18:59";
paths = (
{
closed = 1;
nodes = (
"11 504 LINE",
"98 500 LINE",
"227 502 LINE",
"227 469 LINE",
"177 466 LINE SMOOTH",
"145 464 OFFCURVE",
"142 443 OFFCURVE",
"150 411 CURVE SMOOTH",
"221 133 LINE",
"236 63 LINE",
"331 480 LINE",
"406 500 LINE",
"498 133 LINE",
"513 63 LINE",
"615 404 LINE SMOOTH",
"624 434 OFFCURVE",
"629 467 OFFCURVE",
"582 468 CURVE SMOOTH",
"537 469 LINE",
"537 502 LINE",
"661 500 LINE",
"736 504 LINE",
"736 469 LINE",
"721 469 LINE SMOOTH",
"707 469 OFFCURVE",
"697 462 OFFCURVE",
"692 449 CURVE SMOOTH",
"539 8 LINE",
"517 1 OFFCURVE",
"496 -5 OFFCURVE",
"474 -12 CURVE",
"360 380 LINE",
"267 8 LINE",
"244 1 OFFCURVE",
"220 -5 OFFCURVE",
"197 -12 CURVE",
"65 434 LINE SMOOTH",
"60 452 OFFCURVE",
"51 465 OFFCURVE",
"30 466 CURVE SMOOTH",
"11 467 LINE"
);
}
);
width = 760;
},
{
associatedMasterId = "1B5E7594-BD1E-41E1-80E1-0DE241437139";
background = {
paths = (
{
closed = 1;
nodes = (
"594 356 OFFCURVE",
"561 233 OFFCURVE",
"521 68 CURVE",
"512 143 LINE",
"492 214 OFFCURVE",
"439 380 OFFCURVE",
"396 503 CURVE",
"374 503 OFFCURVE",
"342 499 OFFCURVE",
"320 492 CURVE",
"287 370 OFFCURVE",
"249 212 OFFCURVE",
"216 65 CURVE",
"209 143 LINE",
"178 247 OFFCURVE",
"142 357 OFFCURVE",
"115 436 CURVE",
"147 438 OFFCURVE",
"179 445 OFFCURVE",
"198 451 CURVE",
"198 467 OFFCURVE",
"196 489 OFFCURVE",
"192 499 CURVE",
"163 498 OFFCURVE",
"102 497 OFFCURVE",
"77 497 CURVE SMOOTH",
"34 497 OFFCURVE",
"-8 499 OFFCURVE",
"-37 499 CURVE",
"-42 486 OFFCURVE",
"-44 468 OFFCURVE",
"-44 451 CURVE",
"-27 448 OFFCURVE",
"3 442 OFFCURVE",
"23 434 CURVE",
"51 361 OFFCURVE",
"137 94 OFFCURVE",
"166 -2 CURVE",
"206 -2 OFFCURVE",
"239 5 OFFCURVE",
"258 12 CURVE",
"287 144 OFFCURVE",
"325 298 OFFCURVE",
"351 403 CURVE",
"369 323 LINE",
"398 238 OFFCURVE",
"437 125 OFFCURVE",
"475 -2 CURVE",
"522 -2 OFFCURVE",
"549 5 OFFCURVE",
"567 12 CURVE",
"602 144 OFFCURVE",
"672 376 OFFCURVE",
"691 433 CURVE",
"716 436 OFFCURVE",
"745 444 OFFCURVE",
"762 451 CURVE",
"762 467 OFFCURVE",
"759 487 OFFCURVE",
"755 499 CURVE",
"721 498 OFFCURVE",
"668 497 OFFCURVE",
"647 497 CURVE SMOOTH",
"616 497 OFFCURVE",
"577 499 OFFCURVE",
"544 499 CURVE",
"539 488 OFFCURVE",
"537 468 OFFCURVE",
"537 451 CURVE",
"561 449 OFFCURVE",
"593 443 OFFCURVE",
"618 436 CURVE"
);
}
);
};
layerId = "AD98A69C-6261-416E-BDC0-9DEFF2FF95CD";
name = "Mar 30 18, 20:24";
paths = (
{
closed = 1;
nodes = (
"-14 499 LINE",
"73 498 LINE",
"212 500 LINE",
"212 464 LINE",
"149 460 LINE SMOOTH",
"117 458 OFFCURVE",
"107 437 OFFCURVE",
"115 408 CURVE SMOOTH",
"211 73 LINE",
"216 73 LINE",
"326 488 LINE",
"396 506 LINE",
"517 73 LINE",
"522 73 LINE",
"611 395 LINE SMOOTH",
"619 425 OFFCURVE",
"625 458 OFFCURVE",
"578 459 CURVE SMOOTH",
"513 460 LINE",
"513 500 LINE",
"647 498 LINE",
"722 500 LINE",
"722 460 LINE",
"707 460 LINE SMOOTH",
"693 460 OFFCURVE",
"682 453 OFFCURVE",
"678 440 CURVE SMOOTH",
"546 8 LINE",
"524 1 OFFCURVE",
"501 -5 OFFCURVE",
"479 -12 CURVE",
"360 405 LINE",
"249 8 LINE",
"226 1 OFFCURVE",
"197 -5 OFFCURVE",
"174 -12 CURVE",
"40 429 LINE SMOOTH",
"35 447 OFFCURVE",
"26 460 OFFCURVE",
"5 461 CURVE SMOOTH",
"-14 462 LINE"
);
}
);
width = 710;
}
);
unicode = 0077;
},
